<svg xmlns="http://www.w3.org/2000/svg" width="274.039" height="288.856" viewBox="0 0 274.039 288.856">
    <defs>
        <clipPath id="clip-path">
            <path id="Path_11766" fill="none" d="M902.452 690.8s70.935-34.76 139.223-5.267 80.928-49.921 70.394-81.842-44.26-88.231-64.527-154.066-61.348-20.807-135.609 34.1-41.607 142.652-13.167 138.785 14.747 34.285-26.334 39.7-51.088 72.828 30.02 28.59z" transform="translate(-841.309 -416.905)"/>
        </clipPath>
        <style>
            .cls-16{fill:#b7d972}.cls-4{fill:#a7523e}.cls-6{fill:#233862}.cls-7{fill:#1c7458}.cls-8{fill:#473b1e}.cls-10{fill:#722f20}.cls-11{fill:#279975}.cls-12{fill:#ffb27d}.cls-13{fill:#002a24}.cls-20{fill:#466aa5}.cls-22{fill:#7e9a53}
        </style>
    </defs>
    <g id="Group_8099" transform="translate(-841.309 -416.905)">
        <path id="Path_11715" fill="#b7d972" d="M902.452 899.8s70.935-34.76 139.223-5.267 80.928-49.921 70.394-81.842-44.26-24.02-64.527-89.855-61.348-20.807-135.609 34.1-41.607 78.44-13.167 74.574 14.747 34.285-26.334 39.7-51.088 72.835 30.02 28.59z" opacity="0.143" transform="translate(0 -209.008)"/>
        <g id="Group_8098" transform="translate(841.309 416.905)">
            <g id="Group_8097" clip-path="url(#clip-path)">
                <g id="Group_8089" transform="translate(48.415 43.284)">
                    <g id="man">
                        <path id="Path_11716" d="M1071.893 847.613c1.195 3.212 3.266 6.941 5.439 7.868a8.422 8.422 0 0 1 3.492 2.536l1.99-1.155 2.376-1.381s-.056-.264-.172-.694-.293-1.024-.534-1.685a2.3 2.3 0 0 1-.282-2.114 4.91 4.91 0 0 0-.405-4.1c-.762-1.107-1.5-3.837-1.957-3.756-1.111.191.546 3.943.07 4.639a.821.821 0 0 1-1.068.365l-.019-.01c-3.118-1.371-6.9-8.761-8.573-7.764-.624.372-.866 5.882-.357 7.251z" class="cls-4" transform="translate(-1065.906 -784.055)"/>
                        <g id="Group_8087" transform="translate(0 52.682)">
                            <path id="Path_11717" fill="#2b478b" d="M1070.264 840.593l-3.906 2.745a.615.615 0 0 1-.854-.149l-10.004-14.237a.615.615 0 0 1 .149-.854l3.906-2.745a.615.615 0 0 1 .854.149l10.005 14.236a.615.615 0 0 1-.15.855z" transform="translate(-1053.49 -825.242)"/>
                            <path id="Path_11718" d="M1060.512 851.372l-2.29 1.609a.468.468 0 0 1-.65-.114l-10.172-14.476a.468.468 0 0 1 .114-.65l2.29-1.609a.468.468 0 0 1 .65.113l10.174 14.476a.468.468 0 0 1-.116.651z" class="cls-6" transform="translate(-1047.314 -833.508)"/>
                        </g>
                        <path id="Path_11719" d="M1164.934 803.635s-19.874 34.664-27.084 41.042l-26.437-19.71a9.649 9.649 0 0 0-5.516 5.028s16.054 32.708 31.86 34.094 37.991-39.2 37.991-39.2z" class="cls-7" transform="translate(-1092.129 -756.031)"/>
                        <g id="Group_8088" transform="translate(51.137 127.708)">
                            <path id="Path_11720" d="M1548.079 1730.949h11.483a6.96 6.96 0 0 0 3.141-5.262c.561-3.7 4.707-5.717 5.6-8.743s-3.7-7.283-3.7-7.283l-.769-.991-.8-1.028-7.621 1.795s-.189 1.816-.3 4.128a52.77 52.77 0 0 0-.033 5.286c.224 4.034-1.128 8.38-4.713 9.165-2.65.584-2.531 2.152-2.288 2.933z" class="cls-6" transform="translate(-1481.437 -1575.29)"/>
                            <path id="Path_11721" d="M1264.9 1763.1h26.26c1.263-1.541.8-7.229.607-9.086-.039-.374-.067-.592-.067-.592s-8.967-7.173-10.2-1.681c-.037.172-.083.341-.133.507-1.552 5.137-8.513 7.472-12.532 8.122-2.61.43-3.576 1.784-3.935 2.73z" class="cls-6" transform="translate(-1264.902 -1607.442)"/>
                            <path id="Path_11722" d="M1286.192 1175.443s1.362 16.989 2.962 37.41c2.175 27.74 4.791 61.815 5.05 68.27.447 11.209 2.243 29.139 2.243 29.139s4.256 4.26 12.776 2.464c0 0 7.592-25.6 9.76-52.677l.1-1.338c2.017-27.569 5.154-85.622 5.154-85.622z" class="cls-8" transform="translate(-1281.188 -1166.366)"/>
                            <path id="Path_11723" fill="#2b210b" d="M1286.192 1175.443s1.362 16.989 2.962 37.41l29.829 47.2.1-1.338c2.017-27.569 5.154-85.622 5.154-85.622z" transform="translate(-1281.188 -1166.366)"/>
                            <path id="Path_11724" d="M1312.651 1155.575s24.543 61.526 40.681 90.44 21.181 36.985 21.181 36.985 9.246-3.7 10.086-6.22c0 0-6.171-55.82-16.978-69.427-6.107-7.689-13.28-30.763-13.616-38.832s-2.185-24.039-2.185-24.039z" class="cls-8" transform="translate(-1301.429 -1144.48)"/>
                        </g>
                        <path id="Path_11725" d="M1338.648 726.794c9.591 3.027 26.185-5.141 26.185-5.141s-8.843-6.637-8.38-20.436l-7.416 5.976-5.037 4.059a60.35 60.35 0 0 0 .571 6.587c.146 1.1.326 2.333.555 3.677a22.953 22.953 0 0 0-6.478 5.278z" class="cls-4" transform="translate(-1270.179 -677.683)"/>
                        <path id="Path_11726" d="M1361.425 730.236a60.351 60.351 0 0 0 .571 6.587c5.582-.958 11.913-9.979 11.913-9.979a17.782 17.782 0 0 0-7.447-.667z" class="cls-10" transform="translate(-1287.604 -696.667)"/>
                        <path id="Path_11727" d="M1338.884 657.642s15.842 2.632 17.329-7.259 4.534-16.212-5.518-18.311-12.589 1.38-13.888 4.56-2.007 20.068 2.077 21.01z" class="cls-4" transform="translate(-1267.995 -624.3)"/>
                        <path id="Path_11728" d="M1280.652 869.978a1.552 1.552 0 0 0 1.008.384c3.6-.049 14.1 1.952 22.99 1.039 7.492-.719 14.123-2.938 21.243-6.13.946-.424 3.122-1.585 3.073-2.642-.032-1.157-.147-2.836-.291-4.95a264.8 264.8 0 0 1-.526-34.577c.154-2.716.235-5.41.245-8.062.073-19.767-3.846-37.153-11.722-43.038-.673-.482-4.8 1.537-8.6 3.408a15.705 15.705 0 0 1-10.325 1.25l-3.313 2.929c-4.034 3.746-8.453 8.837-10.374 16.569-1.635 6.579-2.594 18.443-3.122 30.738-.24 5.571-.433 11.192-.482 16.523v.191c-.047.529-.047 1.106-.047 1.634-.19 13.687.003 24.541.243 24.734z" class="cls-11" transform="translate(-1225.57 -731.777)"/>
                        <path id="Path_11729" d="M1436.075 953.307a264.8 264.8 0 0 1-.526-34.577c.154-2.716.235-5.41.245-8.062-3.281-7.959-5.963-13.731-5.963-13.731h-8.27s-6.061 41.413 14.514 56.37z" class="cls-7" transform="translate(-1332.969 -827.406)"/>
                        <path id="Path_11730" d="M1552.158 1135s1.853 2.468 1.926 3.453c.5 6.682-2.555 7.606 5.35 11.318 0 0 3.375 1.287 3.432-1.333s-2.342-2.663-1.9-6.331c.506-4.231.455-4.27-2.322-6.48l-1.839-3.039z" class="cls-12" transform="translate(-1433.511 -1007.675)"/>
                        <path id="Path_11731" d="M1434.04 865.507a27.1 27.1 0 0 1-6.206.345s-8.841-27.311-9.979-29.806-26.261-32.024-26.261-32.024l10.466-26.191s27.173 45.389 29.932 51.767c4.559 10.539 6.142 34.168 6.142 34.168a11.378 11.378 0 0 1-4.094 1.741z" class="cls-11" transform="translate(-1310.682 -736.292)"/>
                        <path id="Path_11732" d="M1342.816 626.211s-1.626-.272-1.363-2.511.259-5.166-1.562-4.62-1.911 2-2.659 1.152-.762-4.437-6.179-4.687-7.618 1.636-10.137.528-2.652-4.92-2.652-4.92a4.334 4.334 0 0 0 1.8 1.795s-4.2-5.748.663-9.69 9.827-1.361 12.643-1.191c6.2.376 10.211.748 12.238 4.825s1.192 15.395-2.792 19.319z" class="cls-13" transform="translate(-1254.586 -601.08)"/>
                        <path id="Path_11733" d="M1555.525 1155.349s-1.784 1.859-1.9 2.633c-.361 2.483-1.191 3.556-.775 3.826.864.562 2.007-1.277 2.553-2.927a7.538 7.538 0 0 0 .122-3.532z" class="cls-12" transform="translate(-1433.957 -1025.086)"/>
                    </g>
                </g>
                <g id="Group_8096" transform="translate(111.11 52.125)">
                    <g id="Group_8095">
                        <g id="Group_8094">
                            <g id="Group_8093">
                                <path id="Path_11734" d="M1467.039 638.705a19.707 19.707 0 0 1 9.627 3.126c3.848 2.456 12.554 14.883 15.421 22.277s-3.109 10.6 1.161 14.839c4.22 4.194 9.986 16.022.2 21.83-5.529 3.282-15.364-6.864-21.681-8.3s-23.225 11.592-27.671 7.5-8.9-11.131 4.461-20.038c3.45-2.3-11.749-3.74-5.244-20.229 4.487-11.366 12.46-21.328 23.726-21.005z" class="cls-13" transform="translate(-1410.141 -638.697)"/>
                                <path id="Path_11735" d="M1349.457 923.485c0-.166 2.435-5.2 1.66-5.59s-2.163-.329-2.324.553a30.811 30.811 0 0 0 .664 5.037z" class="cls-4" transform="translate(-1340.62 -852.105)"/>
                                <path id="Path_11736" d="M1506.384 657.684s11.92-12.007 19.481-1.026c0 0 4.669-1.357 6.709 8.244 2.082 9.8-1.1 15.784-4.468 13.944-2.161-1.18-3.8 2.6-3.8 2.6z" class="cls-13" transform="translate(-1461.19 -648.897)"/>
                                <path id="Path_11737" d="M1358.462 896.664c-11.354-4.183-22.29-23.613-22.29-23.613l3.581-2.506c2.983 4.363 16.4 12.739 16.4 12.739.306-3.676.751-7.012 1.3-10.033 3.725-20.534 12.246-26.617 14.533-27.909a5.124 5.124 0 0 1 .577-.292l-.025.437c-.033.618-.105 1.863-.225 3.57-.886 12.713-4.364 51.105-13.851 47.607z" class="cls-4" transform="translate(-1330.981 -796.554)"/>
                                <path id="Path_11738" d="M1515.218 858.506c-5.609-12.58-8.293-16.137-8.386-20.095-.074-3.13 1.469-6.507 4.467-14.788a30.886 30.886 0 0 0 1.493-5.986c2.371-15.964-6.9-33.433-12.638-34.609-2.481-.6-4.263-5.977-4.23-15.268l-.719.142-12.082 2.392s.275 3.8.283 7.384c.008 2.985.506 6.127-.848 6.17-.87.079-1.383.131-1.383.131s-10.074 13.99-10.921 27 8.068 18.664-.067 44.666c-8.305 26.555 48.129 9.812 45.031 2.861z" class="cls-4" transform="translate(-1432.861 -737.428)"/>
                                <path id="Path_11739" d="M1527.949 770.755s.275 3.8.283 7.384c6.761-.191 10.334-6.358 11.8-9.776z" class="cls-10" transform="translate(-1477.687 -737.889)"/>
                                <path id="Path_11740" d="M1516.513 681.963s3.543-5.6 4.393-10.385c.607-3.417-1.134-16.085-13.863-14.261a17.294 17.294 0 0 0-7.172 2.711c-2.764 1.867-6.753 5.9-2.293 16.951l1.158 3.734z" class="cls-13" transform="translate(-1452.921 -652.805)"/>
                                <path id="Path_11741" d="M1501 705.118s16 .264 16.006-9.7 2.083-16.64-8.129-17.23-12.2 3.21-13.014 6.535.978 20.069 5.137 20.395z" class="cls-4" transform="translate(-1452.997 -668.86)"/>
                                <path id="Path_11742" d="M1520.861 670.755s4.38 11.69 11.1 13.418 9.637-.073 9.637-.073a19.034 19.034 0 0 1-6.226-11.245s-11.207-7.663-14.511-2.1z" class="cls-13" transform="translate(-1472.265 -661.672)"/>
                                <path id="Path_11743" d="M1499.118 675.181a14.129 14.129 0 0 0-4.05 4.13c-1.459 2.224-2.914 4.2-2.7 8.6 0 0-3.3-7.945.408-12.44 3.935-4.766 6.342-.29 6.342-.29z" class="cls-13" transform="translate(-1449.436 -665.149)"/>
                                <path id="Path_11744" fill="#061f19" d="M1498.657 1285.438a158.057 158.057 0 0 1-10.082 28.282l-5.275-.365a149.125 149.125 0 0 0 2.438-28.933c-.1-11.625-1.542-25.363-6.135-38.48-15.783-45.077-13.232-77.883-13.232-77.883l29.681 3.472 1.383.162c.124 13.631.475 32.138.783 46.61.272 13.015.511 22.765.511 22.765 5.706 12.289 3.634 29.632-.072 44.37z" transform="translate(-1430.464 -1043.649)"/>
                                <path id="Path_11745" d="M1633.783 921.277l-4.8 1.44s-15.843-26.283-17.283-33.117c-.47-2.227-1.622-6.682-2.966-11.674-2.782-10.338-6.372-22.988-6.372-22.988l-1.182-5.121-4.032-17.463s7.721.789 12.237 2.677a5.612 5.612 0 0 1 3.035 2.243c3.318 7.3 6.63 25.706 8.958 38.84 1.3 7.32 2.287 13 2.8 14.205 1.444 3.355 5.845 21.838 9.605 30.958z" class="cls-4" transform="translate(-1530.623 -786.838)"/>
                                <path id="Path_11746" fill="#004b39" d="M1562.788 1262.535c-1.707 18.213-9.221 29.991-9.221 29.991l-2.52 1.832s-2.385-12.832-4.073-28.1c-1.608-14.51-3.813-29.865-6.306-34.552-9.9-18.587-12.878-88.754-12.878-88.754l30.093-1.493c3.026 5.088 4.345 13.433 4.659 22.922.792 23.947-4.838 55.173-5.679 59.689a.021.021 0 0 1 0 .011 1.576 1.576 0 0 0 .2 1.009c5.983 11.854 6.849 25.41 5.725 37.445z" transform="translate(-1477.566 -1023.303)"/>
                                <path id="Path_11747" d="M1501.093 918.465a7.144 7.144 0 0 1-.187 2.405c-.641 2.015-2.839 2.933-8.156 2.383-3.249-.338-4.7-5.783-5.344-10.429q-2.927 9.97-8.216 11.16c-5.154 1.146-31.151 4.307-32.853-8.051-1.872-13.593 3.733-37.661 4.041-50.637a64.2 64.2 0 0 1-.943-12.026c.217-9.244 3.2-14.615 5.282-16.7a39.025 39.025 0 0 1 9.51-1.786c-.44.786-1.929 5.339-1.682 7.664.768 7.218 8.215 6.438 14.762 2.073 4.837-3.225 7.573-10.252 7.573-10.252s9.66.787 11.924 4.486c4.332 7.079 7.713 25.891 10.423 39.118a19.261 19.261 0 0 1-14.09 2.064c2.329 15.232 7.609 31.587 7.956 38.528z" class="cls-16" transform="translate(-1414.964 -788.306)"/>
                                <path id="Path_11748" d="M1322.856 912.153c0-.494.414-7.639-.858-9.14s-3.869-3.635-4.686-3.57-4.011 4.31-3.05 7.563 5.013 7.654 5.013 7.654z" class="cls-4" transform="translate(-1314.084 -838.162)"/>
                                <g id="Group_8090" transform="translate(.879 50.222)">
                                    <path id="Path_11749" fill="#f1a34f" d="M1336.405 867.422l-7.4 2.219a.464.464 0 0 1-.578-.312l-4.232-14.118a.464.464 0 0 1 .312-.578l7.4-2.219a.465.465 0 0 1 .578.312l4.232 14.118a.465.465 0 0 1-.312.578z" transform="translate(-1322.679 -852.394)"/>
                                    <path id="Path_11750" fill="#d86713" d="M1329.625 869.826l-6.716 2.013a.823.823 0 0 1-1.025-.552l-4.025-13.43a.824.824 0 0 1 .552-1.025l6.716-2.013a.824.824 0 0 1 1.026.552l4.025 13.431a.824.824 0 0 1-.553 1.024z" transform="translate(-1317.823 -854.222)"/>
                                </g>
                                <g id="Group_8091" transform="translate(37.447 262.286)">
                                    <path id="Path_11751" fill="#1a2d4c" d="M1497.123 1766.933h-3.368c-1.128-.178-1.961-.5-3.118-.655a3.121 3.121 0 0 0-2.727.655l-.031.033h-14.305c-.36-.514-.014-1.7.324-2.58a2.035 2.035 0 0 1 1.339-1.224c1.517-.439 4.507-.83 7.246-3.31 1.541-1.392 7.441-5.12 7.441-5.12l.031-.007c.13 0 .746.192 3.43 2.458 1.388 1.169 3.752-1.651 3.752-1.651a3.365 3.365 0 0 1 .775 1.051 3.553 3.553 0 0 1 .307 2.2c-.214 1.289.475 3.684 1.025 5.3.333.982.614 1.678.614 1.678s.162.81-2.735 1.172z" transform="translate(-1473.421 -1754.726)"/>
                                    <path id="Path_11752" d="M1551.631 1756.584a10.662 10.662 0 0 1-3.627 1.829c-1.519.2-4.361-3.679-4.361-3.679l.031-.007c.13 0 .746.192 3.43 2.458 1.388 1.169 3.752-1.651 3.752-1.651a3.365 3.365 0 0 1 .775 1.05z" class="cls-20" transform="translate(-1527.14 -1754.726)"/>
                                    <path id="Path_11753" fill="#3b6096" d="M1497.123 1797.4h-3.368c-1.128-.178-1.961-.5-3.118-.655a3.121 3.121 0 0 0-2.727.655l-.031.033h-14.305c-.36-.514-.014-1.7.324-2.58.434-.386.557 1.678.8 2.007s11.67.12 12.33-.36a6.9 6.9 0 0 1 5.4-.66c2.4.574 5.943-.9 6.819-1.289.333.982.614 1.678.614 1.678s.159.804-2.738 1.171z" transform="translate(-1473.421 -1785.188)"/>
                                </g>
                                <g id="Group_8092" transform="translate(55.418 262.286)">
                                    <path id="Path_11754" d="M1573.588 1766.933h-3.368c-1.128-.178-1.961-.5-3.118-.655a3.121 3.121 0 0 0-2.727.655l-.031.033h-14.305c-.36-.514-.014-1.7.324-2.58a2.036 2.036 0 0 1 1.339-1.224c1.517-.439 4.508-.83 7.246-3.31 1.541-1.392 7.441-5.12 7.441-5.12l.031-.007c.13 0 .746.192 3.43 2.458 1.387 1.169 3.752-1.651 3.752-1.651a3.366 3.366 0 0 1 .775 1.051 3.554 3.554 0 0 1 .307 2.2c-.214 1.289.475 3.684 1.025 5.3.334.982.614 1.678.614 1.678s.162.81-2.735 1.172z" class="cls-6" transform="translate(-1549.886 -1754.726)"/>
                                    <path id="Path_11755" d="M1628.1 1756.584a10.666 10.666 0 0 1-3.627 1.829c-1.52.2-4.361-3.679-4.361-3.679l.031-.007c.13 0 .746.192 3.43 2.458 1.387 1.169 3.752-1.651 3.752-1.651a3.366 3.366 0 0 1 .775 1.05z" class="cls-20" transform="translate(-1603.604 -1754.726)"/>
                                    <path id="Path_11756" d="M1573.588 1797.4h-3.368c-1.128-.178-1.961-.5-3.118-.655a3.121 3.121 0 0 0-2.727.655l-.031.033h-14.305c-.36-.514-.014-1.7.324-2.58.435-.386.557 1.678.8 2.007s11.67.12 12.33-.36a6.9 6.9 0 0 1 5.4-.66c2.4.574 5.943-.9 6.819-1.289.334.982.614 1.678.614 1.678s.159.804-2.738 1.171z" class="cls-20" transform="translate(-1549.886 -1785.188)"/>
                                </g>
                                <path id="Path_11757" d="M1633.6 1020.488c-3.649-5.75-5.789-12.71-8.647-20.68-7.362-20.53-6.246-31.752-4.459-32.164s5.151 14.316 5.151 14.316c2.326 15.232 7.606 31.587 7.955 38.528z" class="cls-22" transform="translate(-1547.469 -890.329)"/>
                                <path id="Path_11758" d="M1435.42 875.255a9.215 9.215 0 0 1-1.681-.253c-.122-.03-.247-.062-.369-.1a12.866 12.866 0 0 1-3.895-1.955 39.64 39.64 0 0 1-5.147-4.742c4.761-21.2 13.844-24.148 13.844-24.148s2.898 31.499-2.752 31.198z" class="cls-16" transform="translate(-1398.419 -795.796)"/>
                                <path id="Path_11759" d="M1324.572 887.165s3.083-4.744 3.837-4.48c1.075.377-2.8 6.4-2.8 6.4s2.869-4.5 3.316-4.16c1.021.771-.6 3.6-2.215 5.764 0 0 2.884-2.641 2.978-2.166.329 1.666-3.166 5.7-3.166 5.7l-1.954-4.463z" class="cls-4" transform="translate(-1322.107 -825.335)"/>
                                <path id="Path_11760" d="M1314.732 885.024c.149-.58.9-11.909 1.224-10.835s1.089 7.015 1.089 7.015z" class="cls-4" transform="translate(-1314.58 -818.79)"/>
                                <path id="Path_11761" d="M1612.119 939.776l5.89 21.412s12.269.846 16.331-3.44l-7.422-19.064z" class="cls-16" transform="translate(-1542.076 -868.183)"/>
                                <path id="Path_11762" d="M1450.494 941.491c-.122-.03-.247-.062-.369-.1a12.866 12.866 0 0 1-3.895-1.955 6.523 6.523 0 0 1 1.449-2.089c1.437-1.339 2.627-6.8 3.124-6.349s-.309 10.493-.309 10.493z" class="cls-22" transform="translate(-1415.174 -862.284)"/>
                            </g>
                        </g>
                    </g>
                    <path id="Path_11763" d="M1737.4 1210.736s5.794 3.851 6.679 5.475 2.952 7.6 2.952 7.6-1.476.221-2.952-2.361-6.346-2.361-7.969-3.763-3.512-5.51-3.512-5.51z" class="cls-4" transform="translate(-1634.24 -1076.297)"/>
                    <path id="Path_11764" d="M1735.277 1222.272s.964 4.535 2.144 5.863 2.8 3.542 3.468 2.952-.738-5.534-.738-5.534z" class="cls-4" transform="translate(-1636.289 -1085.122)"/>
                    <path id="Path_11765" d="M1778 1236.229c.147.222 5.239 5.632 5.239 5.632s-1.845.836-2.361 0-2.878-5.632-2.878-5.632z" class="cls-4" transform="translate(-1668.969 -1095.799)"/>
                </g>
            </g>
        </g>
    </g>
</svg>
