<svg xmlns="http://www.w3.org/2000/svg" xmlns:xlink="http://www.w3.org/1999/xlink" width="117.694" height="82.817" viewBox="0 0 117.694 82.817">
    <defs>
        <linearGradient id="linear-gradient" x1=".848" x2=".121" y1="-.002" y2="1.005" gradientUnits="objectBoundingBox">
            <stop offset="0" stop-color="#53cd9f"/>
            <stop offset="1" stop-color="#0d7a5c"/>
        </linearGradient>
        <linearGradient id="linear-gradient-2" x1=".998" x2="-.264" y1="-.404" y2="2.147" xlink:href="#linear-gradient"/>
        <linearGradient id="linear-gradient-3" x1="-.063" x2="1.347" y1="-.422" y2="1.627" gradientUnits="objectBoundingBox">
            <stop offset="0" stop-color="#00503e"/>
            <stop offset="1" stop-color="#023222"/>
        </linearGradient>
        <linearGradient id="linear-gradient-4" x1=".374" x2=".835" y1="-.173" y2="1.953" gradientUnits="objectBoundingBox">
            <stop offset="0" stop-color="#c9cd55"/>
            <stop offset=".507" stop-color="#659c52"/>
            <stop offset="1" stop-color="#287f50"/>
        </linearGradient>
        <linearGradient id="linear-gradient-5" x2="1" y1=".5" y2=".5" gradientUnits="objectBoundingBox">
            <stop offset="0" stop-color="#fb9a2b"/>
            <stop offset="1" stop-color="#e65925"/>
        </linearGradient>
        <linearGradient id="linear-gradient-7" x1=".381" x2=".698" y1="-.089" y2="1.783" xlink:href="#linear-gradient-4"/>
        <linearGradient id="linear-gradient-8" x1="-.119" x2=".879" y1=".068" y2=".845" xlink:href="#linear-gradient-3"/>
        <linearGradient id="linear-gradient-9" x1="0" x2="1" y1=".5" y2=".5" xlink:href="#linear-gradient-3"/>
        <linearGradient id="linear-gradient-10" x1="-.769" x2="1.217" y1=".068" y2=".756" xlink:href="#linear-gradient-3"/>
        <linearGradient id="linear-gradient-11" x1=".084" x2=".908" y1=".146" y2=".833" xlink:href="#linear-gradient-3"/>
        <linearGradient id="linear-gradient-12" x1=".846" x2=".3" y1="-.07" y2=".877" xlink:href="#linear-gradient-4"/>
        <linearGradient id="linear-gradient-13" x1="-.208" x2="1.085" y1=".084" y2=".857" xlink:href="#linear-gradient-3"/>
        <linearGradient id="linear-gradient-14" x1=".261" x2=".797" y1=".149" y2=".921" xlink:href="#linear-gradient-3"/>
        <linearGradient id="linear-gradient-16" x1=".26" x2=".758" y1=".055" y2="1.12" gradientUnits="objectBoundingBox">
            <stop offset="0" stop-color="#c7a44f"/>
            <stop offset="1" stop-color="#609a3f"/>
        </linearGradient>
        <linearGradient id="linear-gradient-17" x1="0" x2="1" y1=".5" y2=".5" xlink:href="#linear-gradient"/>
        <style>
            .cls-2{fill:#722f20}.cls-3{fill:#a7523e}.cls-4{fill:#473b1e}.cls-8{fill:#002a24}.cls-10{fill:#7c3625}.cls-13{fill:#847d3d}.cls-14{fill:#b7d972}.cls-15{fill:#edfdfc}.cls-16{fill:url(#linear-gradient-5)}.cls-20{fill:url(#linear-gradient-9)}
        </style>
    </defs>
    <g id="Group_5825" transform="translate(-4529.684 -674.744)">
        <ellipse id="Ellipse_782" cx="57.934" cy="7.808" rx="57.934" ry="7.808" transform="translate(4529.684 741.944)" style="mix-blend-mode:multiply;isolation:isolate" fill="#373737" opacity="0.093"/>
        <g id="Group_5803" transform="translate(4553.565 678.138)">
            <path id="Path_9568" d="M5205.957 1579.022s-.8.8-.817 1.094-.071 3.441.256 3.735 1.284.5.976.833c-.233.25-2.024.2-3.212.129-.346-.02-.781-2.858-.918-3.275-.2-.606-.917-1.925-.736-2.347a5.552 5.552 0 0 1 1.339-1.07 5.534 5.534 0 0 0 1.226-1.339z" class="cls-2" transform="translate(-5201.301 -1511.275)"/>
            <path id="Path_9569" d="M5388.286 1631.319l-.716 2.079c-.053.329-.263 1.14-.263 1.439 0 1.122 4.931-.952 3.825-1.45a1.2 1.2 0 0 1-.446-.786 2.673 2.673 0 0 1 .415-1.326z" class="cls-3" transform="translate(-5372.938 -1561.605)"/>
            <g id="Group_5801" transform="translate(2.006 30.499)">
                <path id="Path_9570" d="M5403.542 1118.473s.371 3.432.371 3.487c0 6.014.693 17.762.473 18.892-.539 2.758-6.424 17.768-6.424 17.768l-3.05-.441 4.088-17.729-1.5-6.78-2.127-13.4z" class="cls-4" transform="translate(-5381.968 -1118.473)"/>
                <path id="Path_9571" d="M5235.526 1124.427l-.595 3.524-1.61 14.5-7.876 14.717s1.185 1.841 2.456 2.131l11.18-14.874 6.06-18.621-.213-4.137z" class="cls-4" transform="translate(-5225.445 -1121.425)"/>
            </g>
            <path id="Path_9572" fill="#466eb6" d="M5456.549 881.538l-4.347.455s-.2-3.657-.2-5.4c0-2.117.233-4.812.482-4.753a3.587 3.587 0 0 1 2.143 1.32c1.94 2.733 1.922 8.378 1.922 8.378z" transform="translate(-5432.691 -860.177)"/>
            <path id="Path_9573" d="M5255.764 963.36c-.664-1.1-.812-.945-.894-1.088a26.769 26.769 0 0 1 .01-2.79s.267-7.726.295-8.143l3.4-7.133-2.936-2.8s-3.5 7.865-3.608 8.31.7 10.945.738 11.872c0 0-.34 1.12-.532 1.831a6.491 6.491 0 0 0-.093 1.687 6.86 6.86 0 0 0 .124 1.614c.146.759.341-.027.341-.027a6.219 6.219 0 0 1 .082-1.436c.085.014.056.809.209 1.651.04.216.079.43.117.626.1.514.43.6.408.046a5.563 5.563 0 0 0-.075-.75 4.56 4.56 0 0 1-.03-.707 5.84 5.84 0 0 1-.026-.729c.022.011.075-.076.124.153.059.275.059.885.175 1.283.066.225.176.7.176.7a4.7 4.7 0 0 0 .34.689c.241-.022.166-.553.039-.847a3.686 3.686 0 0 0-.119-.731s-.044-1.072.1-1.079a12.566 12.566 0 0 1 .361 1.278c.183.582.459 1.139.574 1.12.2-.032.059-.7.059-.7s-.12-.463-.149-.619c-.034-.184-.094-.741-.094-.741a9.149 9.149 0 0 1 .015-1.945.89.89 0 0 1 .537.285c.048.118.027.382.075.5a.307.307 0 0 0 .351.183c.144-.048.122-.711.122-.711a2.192 2.192 0 0 0-.216-.852z" class="cls-3" transform="translate(-5247.981 -924.432)"/>
            <path id="Path_9574" fill="url(#linear-gradient)" d="M5352.467 874.137c.091.645 2.234 17.948 2.234 17.948-7.914 3.923-13.076 2.747-13.076 2.747s.581-14.125.271-15.8c-.206-1.109-.461-8.482.239-8.688a17.145 17.145 0 0 1 3.053-.666 28.46 28.46 0 0 1 5.351.068 8.8 8.8 0 0 1 1.928 4.391z" transform="translate(-5330.745 -858.096)"/>
            <path id="Path_9575" fill="url(#linear-gradient-2)" d="M5274.337 887.041l3.766 2.595a41.861 41.861 0 0 1 3.261-4.4c1.427-1.446-.519-5.874-1.439-5.623-2.057.564-5.588 7.428-5.588 7.428z" transform="translate(-5268.597 -867.352)"/>
            <path id="Path_9576" d="M5200.765 1594.058s1.842 5.323 2.563 5.58c.191.068 1.11.241 1.283.658a1.835 1.835 0 0 1 0 .545h-3.839s-.486-2.346-.678-3.376a15.562 15.562 0 0 1-.9-2.747c.106-.228 1.571-.66 1.571-.66z" class="cls-8" transform="translate(-5199.183 -1527.232)"/>
            <path id="Path_9577" d="M5383.637 1660.627l.564-1.831a4.8 4.8 0 0 0 1.778.429 17.588 17.588 0 0 0 1.75-.429c2.367.8 4.305 1.188 3.952 1.831h-8.045z" class="cls-8" transform="translate(-5369.547 -1587.025)"/>
            <path id="Path_9578" fill="#fe875e" d="M5585.286 1188.774a1.5 1.5 0 0 0 1.365.392.923.923 0 0 1-1.365-.392z" transform="translate(-5555.794 -1152.905)"/>
            <path id="Path_9579" d="M5395 820.889l-.582 3.654s2.132 4.649 3.405 4.258c1.068-.328.411-4.322.411-4.322a10.788 10.788 0 0 1-.408-3.218c.174-1.073-2.826-.372-2.826-.372z" class="cls-3" transform="translate(-5379.505 -812.913)"/>
            <path id="Path_9580" d="M5404.281 821.262c.174-1.073-2.827-.373-2.827-.373l-.048.314a1.752 1.752 0 0 0 .326.528 3.979 3.979 0 0 0 2.624 1.169 5.75 5.75 0 0 1-.075-1.638z" class="cls-2" transform="translate(-5385.959 -812.913)"/>
            <g id="Group_5802" transform="translate(12.599)">
                <path id="Path_9581" d="M5392.787 739.087c-.084-.03-.68 4.317.449 5.513s3.329 1.588 4.119.646c.873-1.042.829-5.714-.927-6.945s-3.641.786-3.641.786z" class="cls-3" transform="translate(-5390.383 -736.473)"/>
                <path id="Path_9582" d="M5366.945 720.12a3.189 3.189 0 0 0-2.318 1.816 3.489 3.489 0 0 0 .96 4.6 2.706 2.706 0 0 1 1.215 2.021l.2-.554a3.106 3.106 0 0 0 .155-1.326 2.581 2.581 0 0 0-.2-.8c-.3-.629.64-1.047.9-1.571.2-.4.212-1.325.531-1.991l.38-.509a2.447 2.447 0 0 1 1.738-.483c.863.189-.193-3.938-3.561-1.203z" class="cls-4" transform="translate(-5364.128 -719.181)"/>
                <path id="Path_9583" d="M5398.607 784.9c.009.53-.236.965-.546.97s-.571-.42-.58-.951.236-.965.547-.97.572.422.579.951z" class="cls-3" transform="translate(-5394.933 -779.003)"/>
            </g>
        </g>
        <g id="Group_5808" transform="translate(4598.992 685.929)">
            <g id="Group_5804" transform="translate(22.376 15.959)">
                <path id="Path_9584" d="M6094.377 1046.947s-.242-.277-.314-.375c-.085-.115-.316-.48-.316-.48a6.744 6.744 0 0 1-.641-1.356c.1-.047.354.107.428.171s.167.133.241.2a.193.193 0 0 0 .271-.023c.087-.087-.153-.409-.257-.5a15.661 15.661 0 0 0-1.467-.98c-.126-.083-1-2.59-1.361-3.426-.558-1.386-1.062-2.838-1.121-2.985l-.577-6.372-2.418-.7s.541 7.08.608 7.431c.032.167 1.575 3.278 1.576 3.278.855 1.484 1.614 2.79 1.753 3.045 0 0 .209.874.31 1.438a4.938 4.938 0 0 0 .472 1.2 3.708 3.708 0 0 0 .577 1.113c.359.474.236-.144.236-.144s-.508-1-.422-1.027c.065-.021.311.542.7 1.07.1.136.2.269.293.391.244.32.511.259.31-.118a4.091 4.091 0 0 0-.305-.494 3.338 3.338 0 0 1-.258-.48 4.288 4.288 0 0 1-.263-.5c.02 0 .029-.081.14.06a9.93 9.93 0 0 0 .556.827c.123.132.362.425.362.425a3.808 3.808 0 0 0 .471.411c.167-.1-.061-.5-.251-.661a2.682 2.682 0 0 0-.33-.464s-.391-.728-.289-.786c.084-.048 1.355 1.51 1.515 1.394.133-.097-.229-.583-.229-.583z" class="cls-10" transform="translate(-6086.846 -1030.117)"/>
            </g>
            <path id="Path_9585" d="M5854.918 1048.6c-.027-.025-.115-.167-.2-.269a2.576 2.576 0 0 0-.246-.251.994.994 0 0 0-.036-.247c-.016-.062-.068-.142-.086-.211s-.01-.152-.028-.219c-.049-.173-.132-.3-.23-.285a4.739 4.739 0 0 0 .063 1.08 4.653 4.653 0 0 0 3 2.341c1.092.561 6.64 3.091 7.166 2.8a31.911 31.911 0 0 0 2.816-4.185c-.518-.26-1.616-.815-2.217-1.135a14.207 14.207 0 0 1-1.607 2.842 32.466 32.466 0 0 1-4.378-1.309c-.106-.035-.215-.068-.325-.1l-.948-.3-.581-.886s-1.145-1.221-1.323-1.139c-.081.038-.027.173.061.32l.039.065c.1.156.219.308.235.354a1.109 1.109 0 0 1 .064.273c-.987-.537-.819-.571-1.021-.853-.049-.072-.127-.127-.173-.194-.08-.116-.086-.255-.149-.343a.469.469 0 0 0-.272-.184c-.052-.005-.05.082-.012.223a4.5 4.5 0 0 0 .856 1.472c.063.133-.144-.036-.367-.38a2.117 2.117 0 0 1-.23-.29c-.042-.082-.048-.183-.087-.265s-.09-.14-.123-.2c-.044-.08-.07-.22-.109-.281-.146-.226-.264-.3-.3-.3a7.012 7.012 0 0 0 .324 1.22s.435.723.553.868c.003-.007.035.112-.129-.032z" class="cls-3" transform="translate(-5849.469 -1029.323)"/>
            <path id="Path_9586" d="M5934.2 870.518a4.746 4.746 0 0 0-.163-3.509 3.188 3.188 0 0 0-2.509-1.709c-3.007-.357-3.271 2.33-6.128 3.507-1.22.5-2.472.359-3.562 1.008-1.968 1.173-3.014 4.463-1.708 7.528 3.2 7.5 10.735 2.592 11.7 1.115.724-1.1 2.208-7.213 2.37-7.94z" class="cls-4" transform="translate(-5909.952 -861.9)"/>
            <g id="Group_5805" transform="translate(7.794 9.507)">
                <path id="Path_9587" d="M5948.343 983.169c-1.613.5-5.981 1.918-6.2 1.865l-3.98-3.168-2.449 2.149s5.464 4.046 5.774 4.194c.229.11 5.041-2.369 7.309-3.478a2.646 2.646 0 0 0-.454-1.562z" class="cls-10" transform="translate(-5932.674 -979.099)"/>
                <path id="Path_9588" fill="url(#linear-gradient-3)" d="M5904.32 950.181l-2.494 3.23a37.849 37.849 0 0 1-3.6-3.108c-1.176-1.319-2.462-4.151-2.273-4.255a4.251 4.251 0 0 1 2.476-.346c2.744.613 5.891 4.479 5.891 4.479z" transform="translate(-5895.936 -945.64)"/>
            </g>
            <g id="Group_5806" transform="translate(10.441 4.184)">
                <path id="Path_9589" fill="url(#linear-gradient-4)" d="M6083.906 993.547l2.524-1.44s-1.146-4.831-3.19-4.986z" transform="translate(-6071.581 -978.63)"/>
                <path id="Path_9590" d="M5932.375 1554.6s-.214 2.174-.765 2.573a2.859 2.859 0 0 0-.917 2.674.926.926 0 0 0 .605.474 1.605 1.605 0 0 0 1.925-.9 4.575 4.575 0 0 0 .378-1.658 6 6 0 0 1 .633-2.664z" class="cls-3" transform="translate(-5930.594 -1502.766)"/>
                <path id="Path_9591" d="M6060.77 1566.251a18.28 18.28 0 0 1 .033 2.907c-.076.382-.5 1.167-.3 1.527a.97.97 0 0 0 .413.449l4.993.08c.272 0 .092-.17-.127-.331a10.1 10.1 0 0 0-1.795-.991c-.075-.036-.348-.209-.445-.269a3.47 3.47 0 0 1-.715-.63 6.387 6.387 0 0 1-.39-2.33z" class="cls-3" transform="translate(-6050.53 -1513.524)"/>
                <path id="Path_9592" d="M6058.063 1177.864a21.382 21.382 0 0 1 .216 5.9c-.413 2.335-2.395 23.979-2.395 23.979l-2.2.124s-.462-9.041-.379-10.3a19.458 19.458 0 0 1 .736-3.361l-.219-7.3 2.778-9.589z" class="cls-13" transform="translate(-6043.922 -1154.295)"/>
                <path id="Path_9593" d="M5956.474 1164.93a16.247 16.247 0 0 0-2.146 4.76c-.413 2.155.3 8.779-.491 11.6-.43 1.529-2.059 3.89-2.307 5.866s-1.22 7.151-1.22 7.151l2.2.435 5.115-12.925 4.012-11.682 1.028-6.017z" class="cls-14" transform="translate(-5948.804 -1142.111)"/>
                <path id="Path_9594" d="M6016.736 980.707a4.3 4.3 0 0 0-2.074 1.063c-1.9 1.859 1.115 9.026 1.281 10.283s-1.353 4.19-1.353 4.19 5.673 1.049 7.214.031c0 0 .182-10.088.017-10.986a17.518 17.518 0 0 0-2.343-4.029c-.331-.359-2.742-.552-2.742-.552z" class="cls-15" transform="translate(-6007.663 -972.706)"/>
                <path id="Path_9595" d="M6049.205 940.012l-.034.182a17.335 17.335 0 0 1-.762 2.88c-.322.607 1.1 2.543 2.471 2.307.408-.07-.344-1.779-.308-1.96l.259-1.3c.054-.273.108-.551.161-.811l.266-1.346z" class="cls-3" transform="translate(-6039.367 -935.072)"/>
                <path id="Path_9596" d="M6058.2 940.194l.033-.182 2.053-.051s-.119.606-.267 1.346l-.159.807a1.927 1.927 0 0 1-.98-.49 2.585 2.585 0 0 1-.742-1.1c.022-.133.043-.244.062-.33z" class="cls-2" transform="translate(-6048.393 -935.072)"/>
                <path id="Path_9597" d="M6049.917 876.74a2.423 2.423 0 0 0-1.444.9c-.606.783-1.261 3.2.246 4.52s3-.174 3.216-1.753.176-3.724-2.018-3.667z" class="cls-3" transform="translate(-6038.844 -876.679)"/>
                <path id="Path_9598" d="M6098.313 907.24c-.18.349-.481.542-.674.431s-.2-.483-.023-.832.482-.542.674-.432.202.484.023.833z" class="cls-3" transform="translate(-6084.739 -904.053)"/>
                <path id="Path_9599" d="M6039.429 875.979s-1.293 2.3-2.217 2.409-1.046 1.33-1.046 1.33.331-2.819 1.246-3.362a3.407 3.407 0 0 1 2.017-.377z" class="cls-4" transform="translate(-6028.101 -875.954)"/>
                <path id="Path_9600" d="M6042.123 907.135c.076.409-.076.784-.337.837s-.535-.234-.61-.643.076-.784.338-.837.534.234.609.643z" class="cls-3" transform="translate(-6032.711 -904.154)"/>
                <path id="Path_9601" d="M5933.373 1600.443a2.463 2.463 0 0 1-2.413-1.006 2.312 2.312 0 0 0-.268 1.823 1.45 1.45 0 0 0 2.358-.087 3.984 3.984 0 0 0 .323-.73z" class="cls-16" transform="translate(-5930.594 -1544.175)"/>
                <path id="Path_9602" d="M6063.4 1609.04a4.528 4.528 0 0 1-2.843-.111 2.292 2.292 0 0 0-.229 1.186c.122.353.294.432.446.436 1.207.032 4.418.075 5.338.087a.15.15 0 0 0 .117-.246 24.261 24.261 0 0 0-2.829-1.352z" class="cls-16" transform="translate(-6050.396 -1552.942)"/>
            </g>
            <path id="Path_9603" fill="url(#linear-gradient-7)" d="M5986.746 997.578l3.53.425s1.309-3.474 1.066-5.3-.93-2.011-1.313-2c-1.063.035-2.074 1.451-2.765 3.664a7.812 7.812 0 0 0-.518 3.211z" transform="translate(-5971.999 -977.756)"/>
            <path id="Path_9604" fill="#f7a491" d="M5980.452 1573.856l-.117 2.052c-.042.26-.21.9-.21 1.139 0 .888 3.951-.754 3.065-1.147-.08-.036-.5-.305-.526-.607-.04-.466-.144-1.408-.144-1.408z" transform="translate(-5965.9 -1516.364)"/>
            <path id="Path_9605" d="M5982.119 1600.059a14.216 14.216 0 0 1-1.4.34c-.475.068-1.1-.5-1.437-.349-.37.17-.3 2.174-.3 2.174s5.174.4 6.573-.046c.553-.178-1.539-1.486-3.436-2.119z" class="cls-8" transform="translate(-5964.839 -1540.532)"/>
            <path id="Path_9606" d="M5866.49 1573.856l-.117 2.052c-.042.26-.21.9-.21 1.139 0 .888 3.951-.754 3.065-1.147-.08-.036-.624-.506-.65-.808-.041-.466-.02-1.206-.02-1.206z" class="cls-3" transform="translate(-5860.644 -1516.364)"/>
            <path id="Path_9607" d="M5866.2 1600.059a14.216 14.216 0 0 1-1.4.34c-.475.068-1.1-.5-1.437-.349-.37.17-.465 2.131-.465 2.131s5.491.508 6.735.148c.559-.162-1.533-1.637-3.433-2.27z" class="cls-8" transform="translate(-5857.627 -1540.532)"/>
            <path id="Path_9608" d="M5890.1 1186.8l1.671.72 3.513 16.781-.142 12.58-2.817.065s-1.31-11-1.31-11.857-6.068-14.924-6.068-14.924z" class="cls-4" transform="translate(-5877.992 -1158.875)"/>
            <path id="Path_9609" d="M5856.205 1192.094s-.467 12.729-.467 14.909-.665 14.432-.665 14.432l-3.92.128s-.2-3.718-.507-9.187c-.047-.857.061-2.585 0-3.472-.439-6.378-1.308-12.383-.893-14.763a4.7 4.7 0 0 1 .436-1.638c1.85-1.914 6.016-.409 6.016-.409z" class="cls-4" transform="translate(-5845.387 -1163.243)"/>
            <path id="Path_9610" fill="url(#linear-gradient-8)" d="M5830.161 944.63a9 9 0 0 0-2.461.648 6.887 6.887 0 0 0-1.219 1.373s2.393 11.307 2.4 13.21c0 1.472-.518 5.086-.518 5.086s7.229.456 9.966-.624c0 0-.864-4.3-.864-5.427s-1.034-11.393-1.27-12.11a2.72 2.72 0 0 0-1.925-2.107 19.469 19.469 0 0 0-4.109-.049z" transform="translate(-5823.993 -935.113)"/>
            <path id="Path_9611" d="M5939.654 1081.033l.046.27a.255.255 0 0 0 .295.208l5.587-.968a.255.255 0 0 0 .208-.295l-.047-.27a.255.255 0 0 0-.294-.208l-5.587.968a.255.255 0 0 0-.208.295z" class="cls-4" transform="translate(-5928.517 -1060.015)"/>
            <path id="Path_9612" d="M5806.979 964.825c.655-.019 1.235 4.3.819 4.732s-.5 5.752-.5 5.752l6.185-.154c.12-.081 1.416-.951 1.6-1.141a1.49 1.49 0 0 1 1.388.175c.25.274-.555.05-.777.2s.167.524.167.524 1.567.227 1.873-.1 1.122-.873 1.232-.549c.057.167-.363.674-.6.887.3-.221.649-.457.771-.416.222.075.129.357.009.441s-1.365 1.033-1.559 1.1-3.083.136-3.583.247c0 0-8.155 1.857-8.619 1.741-.407-.1-.813-2.712-.813-4.711s.359-8.668 2.407-8.728z" class="cls-10" transform="translate(-5803.763 -953.853)"/>
            <path id="Path_9613" d="M5797.969 951.911a4.98 4.98 0 0 0-2.319 1.587c-1.072 1.2-1.747 7.948-1.747 7.948l3.7.6.3-3.262.989-1.492z" class="cls-20" transform="translate(-5793.902 -941.925)"/>
            <path id="Path_9614" d="M6080.73 982.63a.945.945 0 0 1 .74-.247 1.97 1.97 0 0 1 1.2.862 3.682 3.682 0 0 1-.389 1.2c-.078.116-.257.173-.319.112-.041-.04 0-.242.014-.285.022-.085.183-.634.183-.634s-.312.553-.457.587a.165.165 0 0 1-.216-.13 3.515 3.515 0 0 1 .287-.685s-.365.535-.544.479-.1-.247-.078-.311.276-.434.276-.434-.4.548-.473.351c-.047-.119.211-.638.211-.638z" class="cls-3" transform="translate(-6058.821 -970.067)"/>
            <path id="Path_9615" d="M5869.5 909.62l.3 3.058s1.479 1.956 2.4 1.523c.777-.363.41-1.576.41-1.576s-.134-.542-.321-1.164a4.529 4.529 0 0 1-.23-1.251c.032-.84-2.559-.59-2.559-.59z" class="cls-3" transform="translate(-5863.729 -902.833)"/>
            <path id="Path_9616" d="M5872.3 911.445a4.471 4.471 0 0 1-.226-1.235c.02-.84-2.567-.59-2.567-.59l.038.378a.935.935 0 0 0 .052.12 2.488 2.488 0 0 0 2.703 1.327z" class="cls-2" transform="translate(-5863.729 -902.833)"/>
            <g id="Group_5807" transform="translate(4.023 0)">
                <path id="Path_9617" d="M5898.333 848.995a6.777 6.777 0 0 1-.126 2.885 6.387 6.387 0 0 1-1 1.821l-1.358-4.658z" class="cls-8" transform="translate(-5892.082 -846.87)"/>
                <path id="Path_9618" d="M5920.7 874.567c-.132.412-.435.684-.674.607s-.326-.474-.193-.886.435-.684.674-.607.33.474.193.886z" class="cls-2" transform="translate(-5914.183 -869.659)"/>
                <path id="Path_9619" d="M5868.183 845.826c-.059-.042-1.49 3.242-.877 4.431s2.179 1.745 3 1.179c.912-.626 1.978-4.07.884-5.424s-3.007-.186-3.007-.186z" class="cls-3" transform="translate(-5865.581 -843.51)"/>
                <path id="Path_9620" d="M5849.818 821.354a5.753 5.753 0 0 0-2.547 1.546c-1.213 1.127-.647 3.094.107 4.107a7.154 7.154 0 0 1 1.037 1.925s-.1-1.152-.106-1.4c-.005-.22-.006-.967-.041-1.18-.092-.56-.106-.679.215-1.032.247-.272.431-1.03.828-1.483l1.48.3a3.093 3.093 0 0 0 1.58-.139c1.848-.875.112-3.517-2.553-2.644z" class="cls-8" transform="translate(-5846.566 -821.179)"/>
                <path id="Path_9621" d="M5862.8 872.822c.009.433-.188.788-.44.794s-.463-.342-.472-.775.188-.788.439-.794.459.342.473.775z" class="cls-3" transform="translate(-5860.713 -868.162)"/>
            </g>
        </g>
        <g id="Group_5809" transform="translate(4588.151 689.09)">
            <path id="Path_9622" d="M5829.854 987.3l.314-1.432a6.084 6.084 0 0 1 1.631 1.587c.6.934.887 3.424 1.059 3.517a27.837 27.837 0 0 0 2.405-3.3 11.363 11.363 0 0 0 .822-1.724 1.692 1.692 0 0 1 1.508-.605c.343.062-.472 1.519-.472 1.519a46.736 46.736 0 0 0-2.747 5.54c-.687 1.961-2.833 2.895-3.176 2.615s-1.344-7.717-1.344-7.717z" class="cls-10" transform="translate(-5816.266 -975.956)"/>
            <path id="Path_9623" d="M5911.375 988.721s.085-.377.316-.454a1.621 1.621 0 0 1 .66 0 4.86 4.86 0 0 0 .471-.231l-.368.685s-.72.848-.959.531-.12-.531-.12-.531z" class="cls-3" transform="translate(-5891.533 -978.452)"/>
            <path id="Path_9624" d="M5928.918 988.447a8.674 8.674 0 0 1 .194 1.6c-.066.278-.231.129-.263.069a5.226 5.226 0 0 1-.217-1.1z" class="cls-10" transform="translate(-5907.5 -978.832)"/>
            <path id="Path_9625" d="M5925.044 998.006a3.081 3.081 0 0 0 .251.917c.083.063.188.026.223-.14a8.19 8.19 0 0 0-.166-1.176z" class="cls-10" transform="translate(-5904.186 -987.291)"/>
            <path id="Path_9626" d="M5909.917 985.321l-.431-.21 1.831-3.757a.479.479 0 0 1 .221.641z" class="cls-4" transform="translate(-5889.816 -972.28)"/>
            <path id="Path_9627" d="M5667.47 868.019a4.933 4.933 0 0 0-.17-3.648 3.313 3.313 0 0 0-2.608-1.776c-3.126-.371-2.458 2.547-6.827 3.179a9.808 9.808 0 0 0-3.752 1.06c-2.047 1.219-2.819 3.175-1.462 6.361 3.323 7.8 11.482 1.179 12.49-.358a26.649 26.649 0 0 0 2.329-4.818z" class="cls-4" transform="translate(-5651.971 -862.562)"/>
            <path id="Path_9628" d="M5668.822 1579.206s-.223 2.26-.795 2.675-1.335 1.95-.954 2.78a.961.961 0 0 0 .63.493 1.668 1.668 0 0 0 2-.938 4.752 4.752 0 0 0 .393-1.723 6.232 6.232 0 0 1 .658-2.77z" class="cls-3" transform="translate(-5665.825 -1524.466)"/>
            <path id="Path_9629" d="M5802.307 1591.316a19.086 19.086 0 0 1 .034 3.022c-.079.4-.515 1.214-.315 1.587a1 1 0 0 0 .429.467l5.191.083c.283 0 .1-.177-.132-.344a10.513 10.513 0 0 0-1.867-1.03c-.078-.038-.361-.217-.463-.279a3.6 3.6 0 0 1-.743-.655 6.652 6.652 0 0 1-.405-2.422z" class="cls-3" transform="translate(-5790.517 -1535.651)"/>
            <path id="Path_9630" fill="url(#linear-gradient-10)" d="M5799.493 1187.533a22.218 22.218 0 0 1 .225 6.13c-.429 2.427-2.489 24.929-2.489 24.929l-2.289.129s-.479-9.4-.394-10.706a20.209 20.209 0 0 1 .765-3.495l-.228-7.589 2.889-9.97z" transform="translate(-5783.646 -1162.183)"/>
            <path id="Path_9631" fill="url(#linear-gradient-11)" d="M5693.878 1174.087a16.906 16.906 0 0 0-2.231 4.948c-.43 2.241.314 9.127-.511 12.064-.447 1.59-2.142 4.044-2.4 6.1s-1.268 7.435-1.268 7.435l2.288.453 5.317-13.437 4.172-12.146 1.068-6.255z" transform="translate(-5684.759 -1149.516)"/>
            <path id="Path_9632" fill="url(#linear-gradient-12)" d="M5757.371 982.561a4.537 4.537 0 0 0-2.522 1.206c-.944 1.027 1.526 9.283 1.7 10.59s-1.407 4.356-1.407 4.356 5.9 1.09 7.5.032c0 0 .171-9.4 0-10.333a27.611 27.611 0 0 0-1.946-5.1c-.344-.378-3.325-.751-3.325-.751z" transform="translate(-5746.792 -973.395)"/>
            <path id="Path_9633" d="M5759.544 1001.744a.829.829 0 0 1 1.118-.489 3.6 3.6 0 0 1 1.862 1.62c.687 1.432 3.09 6.349 3.834 6.536s3.777-5.1 3.777-5.1a3.472 3.472 0 0 1 .171-1.463c.257-.529 1.03-1.089 1.145-.9s-.429.654-.429.747.229.156.544-.031a1.418 1.418 0 0 0 .485-.564 1.861 1.861 0 0 1-.028 1.778c-.543.84-.772 1.183-.772 1.183s-3.52 7.812-4.807 7.905c-1.199.08-8.105-7.58-6.9-11.222z" class="cls-3" transform="translate(-5751.198 -990.596)"/>
            <path id="Path_9634" d="M5790.284 940.253l-.034.19a18.089 18.089 0 0 1-.793 2.994c-.334.631 1.146 2.644 2.57 2.4.424-.073-.358-1.849-.321-2.038l.27-1.355.167-.843.276-1.4z" class="cls-3" transform="translate(-5778.911 -934.27)"/>
            <path id="Path_9635" d="M5799.633 940.443l.035-.19 2.134-.053-.276 1.4-.166.838a2 2 0 0 1-1.02-.51 2.691 2.691 0 0 1-.772-1.146c.027-.135.048-.251.065-.339z" class="cls-2" transform="translate(-5788.294 -934.27)"/>
            <path id="Path_9636" d="M5791.024 874.472a2.518 2.518 0 0 0-1.5.935c-.63.814-1.31 3.331.256 4.7s3.114-.181 3.344-1.823.182-3.871-2.1-3.812z" class="cls-3" transform="translate(-5778.367 -873.561)"/>
            <path id="Path_9637" d="M5841.337 906.182c-.187.363-.5.564-.7.449s-.211-.5-.024-.865.5-.564.7-.449.211.503.024.865z" class="cls-3" transform="translate(-5826.08 -902.022)"/>
            <path id="Path_9638" d="M5780.119 873.681s-1.344 2.394-2.305 2.5-1.087 1.382-1.087 1.382.344-2.931 1.295-3.5a3.542 3.542 0 0 1 2.097-.382z" class="cls-4" transform="translate(-5767.197 -872.808)"/>
            <path id="Path_9639" d="M5782.921 906.073c.078.425-.079.815-.351.871s-.556-.244-.635-.669.079-.815.352-.871.556.244.634.669z" class="cls-3" transform="translate(-5771.99 -902.126)"/>
            <path id="Path_9640" d="M5669.86 1626.863a2.559 2.559 0 0 1-2.509-1.046 2.408 2.408 0 0 0-.278 1.9 1.507 1.507 0 0 0 2.452-.091 4.183 4.183 0 0 0 .335-.763z" class="cls-4" transform="translate(-5665.826 -1567.517)"/>
            <path id="Path_9641" d="M5805.044 1635.8a4.706 4.706 0 0 1-2.955-.116 2.369 2.369 0 0 0-.237 1.233c.126.367.305.45.463.454 1.254.033 4.593.078 5.549.09a.156.156 0 0 0 .122-.256 25.135 25.135 0 0 0-2.942-1.405z" class="cls-4" transform="translate(-5790.376 -1576.632)"/>
        </g>
        <g id="Group_5812" transform="translate(4567.881 683.576)">
            <g id="Group_5810" transform="translate(14.256 62.25)">
                <path id="Path_9642" d="M5578.363 1608.671a8.507 8.507 0 0 1 .524-2.963c-.849 0-1.562-.374-2.43-.361-.236 1.386-.6 3.661-.6 3.661l-.04 1.8 6.041.045a14.229 14.229 0 0 1-1.831-1.1c-.135-.083-1.589-.553-1.664-1.082z" class="cls-3" transform="translate(-5575.617 -1605.348)"/>
                <path id="Path_9643" d="M5573.409 1655.193h6.235c.23-.021.287-.209.207-.325a10.784 10.784 0 0 0-2.2-1.193c-1.434.151-3.955-.439-4.181-.772a3.223 3.223 0 0 0-.061 2.29z" class="cls-4" transform="translate(-5573.242 -1649.271)"/>
            </g>
            <g id="Group_5811" transform="translate(6.732 62.37)">
                <path id="Path_9644" d="M5479.856 1610.123a10.329 10.329 0 0 1-.017-3.059c-.849 0-1.656-.157-2.523-.144 0 1.425.029 3.54.029 3.54l-.039 1.8 6.04.045a14.421 14.421 0 0 1-1.831-1.1c-.131-.084-1.585-.554-1.659-1.082z" class="cls-3" transform="translate(-5477.11 -1606.919)"/>
                <path id="Path_9645" d="M5474.9 1655.193h6.235c.23-.021.287-.209.207-.325a10.791 10.791 0 0 0-2.2-1.193c-1.434.151-3.955-.439-4.181-.772a3.215 3.215 0 0 0-.061 2.29z" class="cls-4" transform="translate(-5474.733 -1649.392)"/>
            </g>
            <path id="Path_9646" d="M5568.149 833.7l2.271-2.4s2.433 1.337 5.268 2.615a45.587 45.587 0 0 0 2.119-6.031c.069-.214-1.489-2.894-1.141-2.961s.8 1.431 1.17 1.28 1.315-3.629 1.537-3.439c.415.355-.5 2.162-.279 2.294s.773-2 1.2-1.912-.713 1.944-.589 2.122 1.312-1.56 1.557-1.157c.133.219-1.095 1.514-.843 1.658s1.36-.671 1.492-.407-1.033.539-1.356 1.208-.911.929-1.106 2.193-.729 8.021-2.106 8.563c-1.206.474-9.194-3.626-9.194-3.626z" class="cls-3" transform="translate(-5554.282 -820.284)"/>
            <path id="Path_9647" fill="#726a33" d="M5519.8 1135.258l-1.842 1.028-3.745 5.727 6.7 15.764s-.754 2.371-1 3.555c-.257 1.239-.888 11.876-.888 11.876l2.857.048s2.714-11.323 3.174-15c.559-4.463-2.84-15.092-2.84-15.092-.634-2.169-2-6.63-2-6.63s-.335-1.086-.416-1.276z" transform="translate(-5504.467 -1108.915)"/>
            <path id="Path_9648" d="M5457.309 1107.1a5.4 5.4 0 0 1-.571 2.883c-.465.937-1.268 1.671-1.842 2.818a12.752 12.752 0 0 0-1.271 7.238s2.249 8.585 2.16 11.722a40.5 40.5 0 0 1-.684 4.651c-.225 1.246-.3 10.643-.3 10.643l3.191-.1 2.443-15.159 1.033-13.474 2.253-9.076z" class="cls-13" transform="translate(-5448.386 -1082.909)"/>
            <path id="Path_9649" d="M5402.282 794.791a5.3 5.3 0 0 0-1.9-3.629 3.534 3.534 0 0 0-3.443-.556c-3.458 1.254-1.6 4-5.89 6.924a9.731 9.731 0 0 0-2.8 2.437c-1.34 1.7-2.072 3.97-1.4 5.843a6.7 6.7 0 0 0 7.964 4.171c4.2-1.528 7.7-6.857 7.934-8.311a33.1 33.1 0 0 0-.465-6.879z" class="cls-8" transform="translate(-5386.602 -790.381)"/>
            <path id="Path_9650" d="M5430.268 925.635c1.017.47 2.858 1.176 2.858 1.176l1.048-3.314c-5.921-3.368-5.457-2.825-9.9-2.759-3.55.051-5.038-.627-8.1 7.626 0 0 2.328 1.046 3.161 1.381.358-1.02 1.006-3.055 1.384-1.9a33.778 33.778 0 0 1 1.269 5.343 11.273 11.273 0 0 1 .362 3.562 32.994 32.994 0 0 0 4.265.579h.016a14.482 14.482 0 0 0 2.62-.277s.362-7.657.556-7.976a3.072 3.072 0 0 0 .35-3.206c-.136-.296-.099-.332.111-.235z" class="cls-15" transform="translate(-5413.917 -910.715)"/>
            <path id="Path_9651" d="M5409.559 1033.771c.042.006.231-.019.385-.015a2.958 2.958 0 0 1 .4.036 1.124 1.124 0 0 1 .244-.147c.066-.031.175-.042.25-.076s.141-.1.213-.133c.188-.082.362-.1.419 0 .048.082-1 .724-1 .724a5.316 5.316 0 0 1-4.24-.968c-1.286-.562-7.53-3.646-7.656-4.318a36.44 36.44 0 0 1 1.67-5.515c.6.27 1.888.842 2.606 1.143a16.254 16.254 0 0 0-1.354 3.475c.021.059.1.166 4.321 2.93l.325.213.953.621 1.2-.126s1.907.131 1.963.349c.025.1-.133.149-.327.177h-.006l-.086.011c-.21.025-.431.029-.484.048a1.269 1.269 0 0 0-.288.141c1.189.486 1.1.312 1.492.288.1-.008.2.021.3.013.16-.013.288-.109.412-.116a.535.535 0 0 1 .36.109c.042.042-.036.1-.188.172a5.134 5.134 0 0 1-1.922.3c-.164.04.135.1.6.051a2.45 2.45 0 0 0 .423-.006c.1-.023.2-.09.3-.114s.188-.021.267-.036c.1-.019.245-.1.327-.107a.778.778 0 0 1 .488.048 8.05 8.05 0 0 1-1.314.594s-.955.137-1.168.137c-.006.002-.134.059.115.097z" class="cls-3" transform="translate(-5397.654 -1005.562)"/>
            <path id="Path_9652" d="M5521.216 872.715s-.271 2.186-.431 2.945c-.167.794-.418 3.3 1.229 3.7s1.138-2.722 1.165-3.529.494-3.624.494-3.624z" class="cls-3" transform="translate(-5510.424 -865.959)"/>
            <path id="Path_9653" d="M5526.718 873.412l.05.031a2.06 2.06 0 0 0 2.3.033c.106-.7.2-1.267.2-1.267l-2.458.506-.092.697z" class="cls-2" transform="translate(-5516.015 -865.959)"/>
            <path id="Path_9654" d="M5511.1 803.63a2.817 2.817 0 0 0-1.521 1.23c-.557.958-.834 3.711 1.214 4.885s3.5-.707 3.441-2.468-.549-4.089-3.134-3.647z" class="cls-3" transform="translate(-5499.816 -802.568)"/>
            <path id="Path_9655" d="M5569.729 832.423c.022.458-.174.839-.437.853s-.5-.347-.52-.8.173-.839.438-.853.497.342.519.8z" class="cls-3" transform="translate(-5554.856 -828.468)"/>
            <path id="Path_9656" d="M5499.645 803.343s-1.1 2.879-2.186 3.186-.994 1.723-.994 1.723-.139-3.273.849-4.076a4.288 4.288 0 0 1 2.331-.833z" class="cls-8" transform="translate(-5488.067 -802.353)"/>
            <path id="Path_9657" d="M5501.486 844.747c.167.45.058.907-.244 1.021s-.681-.159-.848-.609-.058-.907.244-1.021.682.162.848.609z" class="cls-3" transform="translate(-5491.63 -840.008)"/>
        </g>
        <g id="Group_5816" transform="translate(4540.726 674.744)">
            <g id="Group_5815" transform="translate(0)">
                <g id="Group_5814">
                    <path id="Path_9658" d="M5042.25 693.3s-3.345-5.971-4.16-7.24-2.935-6.313-3.01-6.512 1.46-2.586 1.117-2.667-.722 1.258-1.088 1.1-1.435-3.386-1.643-3.226c-.39.3.576 2 .368 2.109s-.837-1.872-1.246-1.814.776 1.814.663 1.97-1.345-1.5-1.567-1.147c-.121.192 1.131 1.444.891 1.562s-1.354-.691-1.472-.458 1.03.553 1.373 1.181.928.9 1.171 2.065.605 5.378 1.849 7.48 3.978 6.754 3.978 6.754z" class="cls-3" transform="translate(-5031.095 -674.744)"/>
                    <g id="Group_5813" transform="translate(17.884 27.078)">
                        <path id="Path_9659" d="M5273.323 1049.531s-.272-.34-.354-.46c-.1-.141-.351-.584-.351-.584a7.99 7.99 0 0 1-.692-1.637c.122-.051.414.143.5.224s.191.166.276.246a.227.227 0 0 0 .321-.015c.107-.1-.161-.491-.28-.609a18.515 18.515 0 0 0-1.689-1.231c-.146-.1-1.052-3.115-1.444-4.122-.593-1.668-1.12-3.411-1.182-3.589l-.374-7.572-2.828-.943s.3 8.409.359 8.827c.03.2 1.705 3.958 1.707 3.957.941 1.8 1.775 3.381 1.927 3.69 0 0 .205 1.045.3 1.718a5.89 5.89 0 0 0 .5 1.441 4.383 4.383 0 0 0 .628 1.346c.4.578.286-.159.286-.159s-.552-1.208-.45-1.237c.08-.022.342.656.781 1.3.112.166.225.329.328.478.273.391.592.331.372-.125a4.705 4.705 0 0 0-.337-.6 3.927 3.927 0 0 1-.283-.581 5.172 5.172 0 0 1-.287-.6c.023 0 .038-.094.163.078.15.207.372.719.617 1.005.139.162.408.52.408.52a4.492 4.492 0 0 0 .538.51c.2-.115-.048-.6-.265-.794a3.177 3.177 0 0 0-.368-.565s-.427-.881-.3-.945c.1-.053 1.531 1.853 1.726 1.724.151-.102-.253-.696-.253-.696z" class="cls-3" transform="translate(-5265.224 -1029.241)"/>
                    </g>
                    <path id="Path_9660" d="M5098.745 825.341a9.994 9.994 0 0 0-.914-4.82 4.086 4.086 0 0 0-3.643-2.075c-4.555-.006-5.134 6.013-8.034 8.334-.886.709-1.876 1.287-2.715 2.052-3.1 2.825-1.7 8.054 1.142 10.53 1.973 1.719 5.073 2.695 7.5 1.351a7.649 7.649 0 0 0 2.919-3.144 42.982 42.982 0 0 0 2.294-5.836 21.777 21.777 0 0 0 1.451-6.392z" class="cls-8" transform="translate(-5077.821 -807.469)"/>
                    <path id="Path_9661" d="M5096.77 1604.813a9.284 9.284 0 0 1-.873 2.938 5.691 5.691 0 0 0-.746.98 2.874 2.874 0 0 0 .1 2.24c.131.285-.01.284.289.376a1.832 1.832 0 0 0 2.2-1.03 5.215 5.215 0 0 0 .432-1.893 6.846 6.846 0 0 1 .723-3.043z" class="cls-3" transform="translate(-5090.085 -1533.771)"/>
                    <path id="Path_9662" d="M5240.648 1618.114a20.868 20.868 0 0 1 .038 3.319c-.086.436-.566 1.333-.345 1.744a1.1 1.1 0 0 0 .471.513l5.7.092c.311 0 .106-.195-.145-.378a11.469 11.469 0 0 0-2.05-1.132c-.085-.041-.4-.239-.508-.307a3.936 3.936 0 0 1-.815-.719c-.41-.455-.445-2.661-.445-2.661z" class="cls-3" transform="translate(-5224.305 -1546.056)"/>
                    <path id="Path_9663" fill="url(#linear-gradient-13)" d="M5237.558 1174.6a24.43 24.43 0 0 1 .247 6.734c-.472 2.667-2.734 27.382-2.734 27.382l-2.515.141s-.527-10.324-.433-11.76a22.2 22.2 0 0 1 .841-3.838l-.25-8.336 3.173-10.951z" transform="translate(-5216.757 -1135.836)"/>
                    <path id="Path_9664" fill="url(#linear-gradient-14)" d="M5121.549 1159.827a18.555 18.555 0 0 0-2.451 5.435c-.472 2.461.346 10.025-.561 13.251-.491 1.746-2.352 4.442-2.634 6.7s-1.393 8.166-1.393 8.166l2.513.5 5.841-14.76 4.582-13.341 1.174-6.871z" transform="translate(-5108.138 -1121.922)"/>
                    <path id="Path_9665" d="M5181 949.349s-2.621-.167-3.658.962 2.3 10.052 2.489 11.488-.961 5.253-.961 5.253 6.158 1.237 7.918.074c0 0 .188-10.324 0-11.35a30.341 30.341 0 0 0-2.137-5.607c-.382-.41-3.651-.82-3.651-.82z" class="cls-14" transform="translate(-5165.982 -928.366)"/>
                    <path id="Path_9666" d="M5227.442 902.982l-.038.208a19.736 19.736 0 0 1-.871 3.289c-.367.693 1.258 2.9 2.823 2.634.466-.08-.394-2.031-.353-2.238.08-.4.187-.935.3-1.489l.183-.926.3-1.537z" class="cls-3" transform="translate(-5211.557 -885.495)"/>
                    <path id="Path_9667" d="M5237.712 903.191l.038-.208 2.344-.058-.3 1.537-.183.921a2.194 2.194 0 0 1-1.119-.56 2.955 2.955 0 0 1-.848-1.258c.026-.15.05-.277.068-.374z" class="cls-2" transform="translate(-5221.864 -885.495)"/>
                    <path id="Path_9668" d="M5228.65 833.99a2.116 2.116 0 0 0-1.8.767c-.692.894-1.439 3.659.281 5.162s3.421-.2 3.673-2 .353-3.994-2.154-3.929z" class="cls-3" transform="translate(-5211.187 -821.821)"/>
                    <path id="Path_9669" d="M5283.221 873.2c-.205.4-.55.619-.77.493s-.232-.552-.026-.95.55-.619.77-.493.231.55.026.95z" class="cls-3" transform="translate(-5263.092 -857.13)"/>
                    <path id="Path_9670" d="M5216.278 829.859s-1.477 2.629-2.533 2.751-1.195 1.518-1.195 1.518.378-3.219 1.423-3.84a3.893 3.893 0 0 1 2.305-.429z" class="cls-8" transform="translate(-5198.69 -817.985)"/>
                    <path id="Path_9671" d="M5095.568 1657.16a2.811 2.811 0 0 1-2.755-1.149 3.012 3.012 0 0 0-.262 2.247c.226.491.885.477 1.4.5a1.356 1.356 0 0 0 1.245-.761 4.567 4.567 0 0 0 .372-.837z" class="cls-4" transform="translate(-5087.743 -1581.058)"/>
                    <path id="Path_9672" d="M5243.656 1666.977a5.173 5.173 0 0 1-3.246-.127 2.609 2.609 0 0 0-.261 1.354c.138.4.335.494.509.5 1.377.036 5.045.085 6.1.1a.171.171 0 0 0 .133-.281 27.594 27.594 0 0 0-3.235-1.546z" class="cls-4" transform="translate(-5224.151 -1591.07)"/>
                    <path id="Path_9673" d="M5218.46 865.887c.085.467-.087.895-.386.956s-.611-.268-.7-.734.087-.9.386-.956.614.267.7.734z" class="cls-3" transform="translate(-5203.128 -850.601)"/>
                    <path id="Path_9674" d="M5133.265 892.309s3.7 3.971 4.251 5.572-.537 3.89-2.037 3.99-4.84-7.049-4.84-7.049z" class="cls-14" transform="translate(-5123.035 -875.691)"/>
                </g>
            </g>
        </g>
        <g id="Group_5819" transform="translate(4608.012 705.702)">
            <path id="Path_9675" d="M6178.738 1619.079s.139 1.2.139 1.4v.2l-.1.207-.039.082.716 1.006 2.942.043c.064 0-.385-.7-.385-.7s-.952-.717-1.124-1.219a3.562 3.562 0 0 1 .146-1.551z" class="cls-3" transform="translate(-6158.363 -1577.422)"/>
            <path id="Path_9676" d="M5941.748 1505.451s-1.025.636-1.184.762l-.16.126-.1.206-.04.082-1.233.064s-1.823-2.227-1.863-2.278.524.075.524.075a5.055 5.055 0 0 0 1.65-.023 7.1 7.1 0 0 0 1.513-1.175z" class="cls-3" transform="translate(-5935.245 -1470.963)"/>
            <path id="Path_9677" d="M5985.581 1384.388l-11.04 9.4 1.7 2.407s11.345-7.044 11.938-7.125a1 1 0 0 1 1.188.626c.112.433.4 13.433.4 13.433h2.948l1.537-16.367z" class="cls-20" transform="translate(-5969.764 -1361.141)"/>
            <g id="Group_5817" transform="translate(26.17 3.999)">
                <path id="Path_9678" d="M6260.162 1138.244a31.657 31.657 0 0 0 3.385-3.3 2.2 2.2 0 0 1 .592-1.164c.369-.427.649-1.4.891-1.126s-.358 1.051-.083 1.056 1.64-1.529 1.859-1.279-1.167 1.615-.921 1.619 1.372-1.377 1.682-1.023-1.475 1.5-1.309 1.693 1.272-.563 1.522-.278-1.561.957-1.416.959 1.189-.026 1.2.175c.009.227-2.643.581-2.967.975a15.31 15.31 0 0 1-3.174 4c-1.528 1.081-5.059 3.375-5.059 3.375l-1.753-2.266s4.582-2.781 5.551-3.416z" class="cls-3" transform="translate(-6254.609 -1132.408)"/>
                <path id="Path_9679" d="M6387.063 1155.9a1.092 1.092 0 0 1 .106.426 1.059 1.059 0 0 1-.345.857 1.812 1.812 0 0 0 .239-1.283z" class="cls-2" transform="translate(-6376.726 -1154.101)"/>
            </g>
            <g id="Group_5818" transform="translate(9.09 0)">
                <path id="Path_9680" d="M6037.455 1087.4a31.738 31.738 0 0 1-2.406-4.066 2.192 2.192 0 0 0-.267-1.278c-.245-.509-.259-1.524-.565-1.32s.071 1.109-.2 1.042-1.184-1.905-1.46-1.721.7 1.864.465 1.8-.964-1.688-1.355-1.427 1.03 1.836.82 1.976-1.081-.876-1.4-.666 1.255 1.332 1.115 1.3-1.141-.335-1.2-.144c-.068.217 2.4 1.252 2.608 1.717a15.3 15.3 0 0 0 2.018 4.692c1.191 1.443 4 4.581 4 4.581l2.285-1.728s-3.689-3.887-4.458-4.758z" class="cls-3" transform="translate(-6031.007 -1080.048)"/>
                <path id="Path_9681" d="M6065.494 1108.906a1.084 1.084 0 0 0-.214.383 1.06 1.06 0 0 0 .108.918 1.811 1.811 0 0 1 .106-1.301z" class="cls-2" transform="translate(-6062.607 -1106.702)"/>
            </g>
            <path id="Path_9682" d="M6162.74 1234.953a1.671 1.671 0 0 1 1.5-.737c1.752.119 5.307.4 5.645.737.45.449 1.8 3.38.514 7.489s-1.99 3.68-3.039 3.68-5.99-2.332-5.99-2.332z" class="cls-8" transform="translate(-6142.323 -1222.436)"/>
            <path id="Path_9683" fill="url(#linear-gradient-16)" d="M6108.035 1198.258l-2.061 2.689 2.559 3.806a20.626 20.626 0 0 1-.61 3.711c-.369.883-2.5 4.509-2.5 4.509s5.183 3.177 10.254 2.712c0 0 1.428-7.349 1.829-8.055a53.568 53.568 0 0 1 4.269-4.2l-1.878-3.033-3.241 1.8a59.659 59.659 0 0 1-6.21-1.243c-.289-.293-2.411-2.696-2.411-2.696z" transform="translate(-6090.646 -1189.229)"/>
            <path id="Path_9684" d="M6164.136 1122.441s-2-1.059-2.685.7a1.316 1.316 0 0 0-1.487 1.68s-1.808.909-.663 3.252c0 0-.5 2.2 2.075 2.343a1.4 1.4 0 0 0 1.562.6 2.823 2.823 0 0 0 1.476-.492s2.086.61 2.717-1.273c0 0 1.434-.342.471-2.182 0 0 1.251-2.385-.953-3.1.001-.009-.256-2.448-2.513-1.528z" class="cls-8" transform="translate(-6140.06 -1118.91)"/>
            <path id="Path_9685" d="M6236.888 1186.115c-.163.453-.045.91.261 1.02s.687-.169.849-.622.046-.91-.261-1.02-.686.168-.849.622z" class="cls-3" transform="translate(-6212.004 -1177.416)"/>
            <path id="Path_9686" d="M6167.115 1169.145c-.023.481.222.884.548.9s.607-.362.63-.844-.223-.884-.548-.9-.607.363-.63.844z" class="cls-3" transform="translate(-6147.627 -1161.56)"/>
            <path id="Path_9687" d="M6192.124 1212.549c0 .031-.26 1.148-.4 1.739a.474.474 0 0 0 .266.54 2.213 2.213 0 0 0 2.379-.076.31.31 0 0 0 .1-.243l-.091-2.666z" class="cls-3" transform="translate(-6170.348 -1201.776)"/>
            <path id="Path_9688" d="M6195.261 1213.175a2.159 2.159 0 0 0 2.136-.182 3.366 3.366 0 0 0 .294-.194l-.033-.955-2.257.706c-.001.014-.061.284-.14.625z" class="cls-2" transform="translate(-6173.624 -1201.776)"/>
            <path id="Path_9689" d="M6180.1 1140.126a2.866 2.866 0 0 1 1.564 1.219c.579.958.9 3.729-1.169 4.941s-3.571-.665-3.532-2.44.831-4.046 3.137-3.72z" class="cls-3" transform="translate(-6156.726 -1135.508)"/>
            <path id="Path_9690" d="M6142.1 1234.28c-.952.72-1.948 4.408-2.325 5.371l-.3 1.768 3.873-6.84s-1.048-.454-1.248-.299z" class="cls-4" transform="translate(-6122.093 -1222.469)"/>
            <path id="Path_9691" d="M6235.209 1246.666a42.222 42.222 0 0 0 .227 6.106 3.285 3.285 0 0 0 1.238 2.108l.439-1.817s-.439-4.013-.6-6.179c-.027-.33-1.304-.218-1.304-.218z" class="cls-4" transform="translate(-6210.503 -1233.922)"/>
            <path id="Path_9692" d="M6170.251 1650.957c-.439-.056.319-1.579.563-1.824l3.234.435a11.422 11.422 0 0 1 1.926 1.091c.088.088.1.241-.281.3a32.379 32.379 0 0 1-5.442-.002z" class="cls-8" transform="translate(-6150.4 -1605.664)"/>
            <path id="Path_9693" d="M5915.946 1518.812c.379.228 1.07-1.256 1.109-1.6l-2.611-2.056s-2.015-.578-2.421-.171c-.369.369 3.061 3.309 3.923 3.827z" class="cls-8" transform="translate(-5911.996 -1481.629)"/>
        </g>
        <g id="Group_5824" transform="translate(4584.926 707.846)">
            <path id="Path_9694" d="M5616.621 1121.885a1.811 1.811 0 0 1 2.114.835c.83 1.3.381 1.178.785 1.828a12.893 12.893 0 0 1 .737 3.5c1.423 10.194-15.6 11.02-8.953-1.974.623-1.219 1.151-1.951 1.712-3.252s2.932-1.251 3.605-.937z" class="cls-8" transform="translate(-5609.757 -1120.661)"/>
            <path id="Path_9695" d="M5619.361 1241.56l-1.717-.6a6.2 6.2 0 0 0-.886 3.05 15.248 15.248 0 0 0 0 3.46h1.942z" class="cls-14" transform="translate(-5616.139 -1230.813)"/>
            <path id="Path_9696" d="M5628.991 1233c-.582.06-4.915-.352-5.156.57-1.3 4.953.487 11.791.943 12.247s7.9-1.029 7.9-1.029 1.171-12.288-3.687-11.788z" class="cls-14" transform="translate(-5622.331 -1223.427)"/>
            <g id="Group_5820" transform="translate(7.834 0)">
                <path id="Path_9697" d="M5717.057 1112.613a2.4 2.4 0 0 1-.914-1.034c-.279-.517-1.108-1.18-.763-1.287s.875.767.974.517-.889-2.143-.576-2.24 1.132 1.744 1.221 1.52-.837-1.833-.395-1.97.92 1.98 1.158 1.906-.109-1.689.248-1.8.306 2 .434 1.937c.069-.033.385-1.054.578-.977.219.087-.371 2.183-.109 2.644s2.36 6.205 1.643 6.922c-.781.782-5.755 2.574-6.8 2.266s-1.637-1.337-1.387-1.969 5.167-2.053 5.246-2.252-.558-4.183-.558-4.183z" class="cls-3" transform="translate(-5712.316 -1108.112)"/>
                <path id="Path_9698" d="M5779.607 1143.273a1.143 1.143 0 0 1 .44.079 1.2 1.2 0 0 1 .7.674 2.028 2.028 0 0 0-1.14-.753z" class="cls-2" transform="translate(-5774.467 -1140.587)"/>
            </g>
            <path id="Path_9699" d="M5807.638 1597.351s.962 3.923 1.679 4.539 3.055 1.794 2.443 1.921-5.14.232-5.016-.523.254-1.237.254-1.237l-1.2-2.8z" class="cls-3" transform="translate(-5790.826 -1559.981)"/>
            <path id="Path_9700" d="M5822.935 1665.461a40.85 40.85 0 0 1-5.268.106s-.176-.035-.052-.79c.03-.185.061-.353.09-.5a12.1 12.1 0 0 0 3.442-.35c.8.382 1.7.953 1.989 1 .421.073.42.473-.201.534z" class="cls-8" transform="translate(-5801.697 -1621.47)"/>
            <path id="Path_9701" d="M5625.542 1635.124s-.1.992-.1 1.43.408 1.671.219 1.86a28.38 28.38 0 0 1-5.582-.012 4.674 4.674 0 0 1 2.249-1.086 2.086 2.086 0 0 0 1.4-2.629z" class="cls-3" transform="translate(-5619.29 -1594.465)"/>
            <path id="Path_9702" d="M5618.941 1670.5a4.336 4.336 0 0 1 2.029-1.024 7.745 7.745 0 0 0 3.551-.049c.194.509.257.991.157 1.091a29.955 29.955 0 0 1-5.737-.018z" class="cls-8" transform="translate(-5618.24 -1626.555)"/>
            <path id="Path_9703" d="M5719.843 1423.273l.967.858s1.089 2.948 1.152 3.143c.088.271 3.615 11.636 3.615 11.636l-2.457.884a52.636 52.636 0 0 1-2.84-6.4c-.4-1.648-4.441-8.545-4.441-8.545z" class="cls-15" transform="translate(-5707.736 -1399.2)"/>
            <path id="Path_9704" d="M5656.544 1444.142l-1.178 15.064h-2.725s-.976-11.274-.64-15.233z" class="cls-15" transform="translate(-5648.71 -1418.32)"/>
            <path id="Path_9705" fill="url(#linear-gradient-17)" d="M5649.772 1240.606a21.037 21.037 0 0 1 3.7-.563 13.814 13.814 0 0 1 2.388.16 25 25 0 0 1 1.615 5.08c.37 2.288 2.389 9.622 2.389 9.622a11.118 11.118 0 0 1-10.093 1.077z" transform="translate(-5646.716 -1229.957)"/>
            <path id="Path_9706" d="M5682.6 1205.574a8.079 8.079 0 0 0 .114 1.954.651.651 0 0 1 .155.872c-.247.426-1.318.154-1.816-.09a2.356 2.356 0 0 1-.789-.67l.25-2.829z" class="cls-3" transform="translate(-5674.882 -1197.426)"/>
            <path id="Path_9707" d="M5684.491 1206.315a2.5 2.5 0 0 1-1.409-1.106l.035-.4 2.086.762s-.013.436-.007.9a2.391 2.391 0 0 1-.705-.156z" class="cls-2" transform="translate(-5677.481 -1197.426)"/>
            <path id="Path_9708" d="M5666.609 1167.817s-.051-1.05-.7-.846-.153 1.789.381 1.737.319-.891.319-.891z" class="cls-3" transform="translate(-5661.34 -1162.451)"/>
            <path id="Path_9709" d="M5673.932 1133.221a1.907 1.907 0 0 1 1.525.762 5.19 5.19 0 0 1 .224 4.576 1.753 1.753 0 0 1-2.389 1.009 2.668 2.668 0 0 1-1.782-1.951c-.449-1.447-.124-4.699 2.422-4.396z" class="cls-3" transform="translate(-5666.637 -1131.285)"/>
            <path id="Path_9710" d="M5646.76 1242.385a13.448 13.448 0 0 1 1.54 5.743 6.306 6.306 0 0 1-2 4.262v1.277s2.145-.338 2.965-3.677-1.152-7.875-1.152-7.875a1.022 1.022 0 0 0-.84-.045.933.933 0 0 0-.513.315z" class="cls-4" transform="translate(-5643.51 -1231.782)"/>
            <path id="Path_9711" d="M5713.983 1238.375s1.612 8.675 3.7 9.237l-.364-1.479s-2.154-7.019-2.154-7.589-1.182-.169-1.182-.169z" class="cls-4" transform="translate(-5706.022 -1228.299)"/>
            <g id="Group_5823" transform="translate(6.068 17.516)">
                <path id="Path_9712" d="M5695.456 1348.2h-6.256v-7.127l6.254.278z" class="cls-16" transform="translate(-5689.201 -1340.795)"/>
                <g id="Group_5821">
                    <path id="Path_9713" d="M5695.456 1337.435h-5.976a.278.278 0 0 0-.278.278.278.278 0 0 0 .278.278h5.976-.005c-.414-.157-.411-.402.005-.556z" class="cls-16" transform="translate(-5689.201 -1337.435)"/>
                    <path id="Path_9714" d="M5698.768 1338.512h-5.6a.2.2 0 0 0-.2.2.2.2 0 0 0 .2.2h5.6c-.19-.13-.19-.279 0-.4z" class="cls-15" transform="translate(-5692.685 -1338.43)"/>
                </g>
                <g id="Group_5822" transform="translate(2.966 0.122)">
                    <path id="Path_9715" d="M5728.575 1339.036h-.394a.153.153 0 0 0-.153.153v.014h.547z" class="cls-20" transform="translate(-5728.028 -1339.036)"/>
                    <path id="Path_9716" d="M5730.247 1339.039a.485.485 0 0 1 .314.178l.934 1.159h.548l-.888-1.1a.636.636 0 0 0-.414-.234z" class="cls-20" transform="translate(-5730.078 -1339.039)"/>
                </g>
            </g>
            <path id="Path_9717" d="M5638.6 1247.535a5.724 5.724 0 0 1 .977 2.265c.5 1.792.762 5.989 1.2 6.426s3.3 2.714 3.813 2.635 1.671-1.424 2.03-1.424.314.325.135.5-.4.387-.292.493l.107.106a6.118 6.118 0 0 1 1.867-.263c.27.157-.258.527-.258.8a3.07 3.07 0 0 1 .034.561 1.119 1.119 0 0 1-.247.673 7.386 7.386 0 0 1-3.633.415 8.362 8.362 0 0 1-5.394-2.994c-1.559-1.929-1.247-7.991-1.211-8.6.092-1.528.872-1.593.872-1.593z" class="cls-3" transform="translate(-5635.548 -1236.885)"/>
        </g>
    </g>
</svg>
