<svg xmlns="http://www.w3.org/2000/svg" id="mask_group_12" width="333" height="233" viewBox="0 0 333 233">
    <defs>
        <style>
            .cls-3{fill:#279975}.cls-4{fill:#a7523e}.cls-7{fill:#fff}.cls-8{fill:#b7d972}.cls-9{fill:#1c7458}
        </style>
    </defs>
    <g id="Group_8142" opacity="0.055">
        <path id="Path_11780" fill="#acacac" d="M323 0H197.1C191.3 38.3 122.6 120.6 0 127.4V223a10.029 10.029 0 0 0 10 10h233c1.5-39 20.5-88.8 90-117.5V10a10.029 10.029 0 0 0-10-10z"/>
    </g>
    <path id="Path_11578" d="M231.8 175.2c-6.2-17.5-8.3-34.4-9.2-48.4-1.3-20-.5-34.2-6.7-36.1 0 0-18.9-4.1-31.9-5.6-2-1-4.1-1.8-6.2-2.6-4.1-1.4-21.5-23.1-24.5-28.4s-9.1-28.8-9.1-28.8l-6 2.4s0 26.9 1.4 33.8 23 35.6 24.8 38.1c8.7 24.9 4.7 66.6 8.5 75.6 2 4.6 32.8 11.2 49.3 8.9a15.72 15.72 0 0 0 2.3-.4c3.9-.8 6.6-2.3 7.5-4.5a6.049 6.049 0 0 0-.2-4z" class="cls-3"/>
    <path id="Path_11579" d="M144.1 25.3s2.8-10.3.2-10.4-8.9.4-9.6 2.1c-.7 1.8 3.4 10.7 3.4 10.7z" class="cls-4"/>
    <path id="Path_11581" d="M144.1 25.3s2.2-2 2.6-3.8c.4-1.7 1.7-4.7.9-5s-3 3.6-3 3.6z" class="cls-4"/>
    <path id="Path_11582" d="M189.4 81.9l-.2 1.6s-1 4.9 4.9 6.3c5.9 1.5 10.9 2 11.2-1.8a85.2 85.2 0 0 1-.3-10.1 13.565 13.565 0 0 1 .6-2.9l-11.7-1.7-3.5.1z" class="cls-4"/>
    <path id="Path_11583" fill="#722f20" d="M190.4 73.4l-.7 5.7c11.1 2.1 15.6-3.1 15.9-4.1l-11.7-1.7z"/>
    <path id="Path_11584" d="M207.1 72.6c-2.9 7.1-12.4 4.9-16.4 3.6-1.1-.4-1.8-.7-1.8-.7-1.2-.6-1.5-2.8-1.3-5.6.4-5.5 2.9-13.2 4.2-15 2-2.7 5.2-5.5 14.4-1.1s4.6 9.6.9 18.8z" class="cls-4"/>
    <path id="Path_11585" fill="#002a24" d="M190.2 47.2a31.538 31.538 0 0 0 9.7-.6c4.4-.9 9.1 2.1 10.6 3.3a4.253 4.253 0 0 0-.2-1.1 1.974 1.974 0 0 1 .6 1.4l.1.1a2.3 2.3 0 0 1 1.4.4s-.4-.1-.6.1l-.1.1c5.7 4.4 4.2 14.5 1.7 16.4-3 2.3-8.1 8.3-8.1 8.3a13.41 13.41 0 0 1 1-4.4c1-2.4-1.2-2.8-3.6-4.5s.4-4.3-1.5-6.7-10.8-3-10.3-4.5c-2.9-1.8-.8-8-.7-8.3z"/>
    <path id="Path_11586" d="M193.3 71s-.5.9-2.8 0c0 0-2-.7-1.6-1.7a6.557 6.557 0 0 1 4.4 1.7z" class="cls-7"/>
    <path id="Path_11587" d="M192.4 94.4s-2.8 35.2-40.3 62.1l-2.9 10.9 14.2-1s33.1-31.9 32.7-71.2z" class="cls-8"/>
    <path id="Path_11588" d="M192.4 94.4l-.4-5.3 6.6 1.4-2.6 4.7z" class="cls-9"/>
    <path id="Path_11589" d="M189.4 81.9l-3.6 3.5a14.507 14.507 0 0 0 2.2 9.3l7.3-4.9a10.727 10.727 0 0 1-5.9-7.9z" class="cls-8"/>
    <path id="Path_11590" d="M195.3 89.9s1 4 3.2 5.9c0 0 8.5-2.1 10.6-6.4l-4-5.4c-.1 0-.6 3.9-9.8 5.9z" class="cls-8"/>
    <path id="Path_11591" d="M253.1 176.4s.6 7.8 0 9.4-3.5 6.9-4.9 8.1-.1-6.3-.7-7.6-.9 2.7-1.5 2.9c-.7.2-1.1-3.3-1.4-4.5-.2-1.3 2.6-5 3.3-7.9.7-2.8 5.2-.4 5.2-.4z" class="cls-4"/>
    <path id="Path_11592" d="M215.8 90.6s7.7 1.5 13.6 12.4c6.2 11.4 22.4 36.7 23.2 40.3s1.7 37.5 1.7 37.5-6.3.7-8.4-2.2c0 0-4.3-29.5-5.4-31.1-1.1-1.5-27.9-29.3-26.3-37s1.6-19.9 1.6-19.9z" class="cls-3"/>
    <path id="Path_11593" d="M231.9 179.1a20.6 20.6 0 0 1-7.5 4.5 6.2 6.2 0 0 1-2.3.4c-13.9-.5-15.6-54.3-9.1-58.8 6.8-4.7 9.7 1.5 9.7 1.5.9 14 3 30.9 9.2 48.4a6.1 6.1 0 0 1 0 4z" class="cls-9"/>
    <g id="Group_8143">
        <path id="Path_11781" d="M203.8 233h10.6c-5.8-15.7-10-27.3-10-27.3.2 9.1-.1 18.3-.6 27.3z" class="cls-7"/>
        <path id="Path_11782" fill="#473b1e" d="M173.8 169.9s.9 22.1 2.4 63.1h27.6c.6-9 .8-18.2.6-27.3 0 0 4.2 11.7 10 27.3h27.9c-6.7-30.9-14.3-61.7-19.7-69.5-11.8-17.1-48.8 6.4-48.8 6.4z"/>
    </g>
    <g id="Group_8144">
        <path id="Path_11783" fill="#2b210b" d="M204.4 205.7s-6.6-9.2-8.6-8c-1.1.6 1 17.2 2.5 35.3h5.5c.5-9 .8-18.2.6-27.3z"/>
    </g>
</svg>
