<svg xmlns="http://www.w3.org/2000/svg" width="120.055" height="60.309" viewBox="0 0 120.055 60.309">
    <defs>
        <style>
            .cls-1{fill:#009460}.cls-2{fill:#fff}
        </style>
    </defs>
    <g id="Group_2" transform="translate(-2467.834 -403.279)">
        <path id="Path_1" d="M2717.753 420.374s-5.924 5.172 6.256 8.624c0 0 1.4 1.073 2.766 4.635s3.4 4.127 8.706-3.772c3.675-5.47 10.976-2.852 12.674-.42s7.417 6.1 4.153 8.943-1.687 5.4 4.046 1.98 8.221.349 6.683 6.5 3.979 7.456 5.678 2.424 2.1-.443 3.583-.741 5.737-3.3 3.65-6.216-2.5-4.271 1.028-2.771 3.388-2.849-.741-3.583.183-2 1.9-2.675-.629-3.96-3.719-3.36-1.109-3.446.958-4.883-2.074-2.543-2.828-6.5-3.032-1.392-4.328.765c0 0-1.122-3.819 3.551-5.466s-3.86-.121-3.888-4.722-5.606-7.775-6-4.528-1.363 3.9-3.228 3.963-4.857-3.944-8.159 1.514c0 0-.554-5.455-5.6.061l-1.557-1.938s6.69-4.575-2.8-2.022-4.092.384-5.968.073-13.77-6.385-9.807.574c0 0-5.567.931-.51 3.376s-2.08 4.8-4.117 3.371-4.705.654-6.156 5.677 2.18 1.792 3.774 1.117z" class="cls-1" transform="translate(-191.599)"/>
        <rect id="Rectangle_1" width="35.51" height="6.016" class="cls-2" rx="3.008" transform="rotate(-90 1501.289 -1048.279)"/>
        <rect id="Rectangle_2" width="39.48" height="6.016" class="cls-2" rx="3.008" transform="rotate(-90 1505.685 -1052.675)"/>
        <rect id="Rectangle_3" width="28.672" height="6.016" class="cls-2" rx="3.008" transform="rotate(-90 1510.081 -1057.071)"/>
        <path id="Path_2" d="M2485.106 611.44h-11.633c.473 1.624 1.86 2.569 3.927 2.569a5.127 5.127 0 0 0 3.69-1.388l2.952 3.071c-1.535 1.712-3.779 2.6-6.82 2.6-5.7 0-9.389-3.513-9.389-8.3 0-4.812 3.75-8.237 8.8-8.237 4.724 0 8.562 3.012 8.562 8.3-.001.411-.06.945-.089 1.385zm-11.721-2.953h6.554a3.329 3.329 0 0 0-6.554 0z" class="cls-1" transform="translate(0 -154.701)"/>
        <path id="Path_3" d="M2568.668 580.9h-10.7l-1.988 4.917h-7.3l11.171-25.306h7.05l11.207 25.306h-7.447zm-2.1-5.278l-3.254-8.1-3.253 8.1z" class="cls-1" transform="translate(-63.012 -122.55)"/>
        <path id="Path_4" d="M2691.278 560.506h11.966c8.387 0 14.135 4.88 14.135 12.653s-5.748 12.653-14.135 12.653h-11.966zm11.677 19.594c4.3 0 7.195-2.567 7.195-6.941s-2.892-6.941-7.195-6.941h-4.519V580.1z" class="cls-1" transform="translate(-174.163 -122.55)"/>
        <path id="Path_5" d="M2826.667 560.506h7.158v19.631h12.075v5.676h-19.233z" class="cls-1" transform="translate(-279.69 -122.55)"/>
        <g id="Group_1" transform="translate(2467.907 438.012)">
            <path id="Rectangle_4" fill="#cf1126" d="M0 0H5.734V6.176H0z"/>
            <path id="Rectangle_5" fill="#fdd116" d="M0 0H5.734V6.176H0z" transform="translate(5.734)"/>
            <path id="Rectangle_6" d="M0 0H5.734V6.176H0z" class="cls-1" transform="translate(11.469)"/>
        </g>
    </g>
</svg>
