<svg xmlns="http://www.w3.org/2000/svg" width="333" height="205.95" viewBox="0 0 333 205.95">
    <defs>
        <style>
            .cls-3{fill:#fff}.cls-6{fill:#a7523e}.cls-7{fill:#002a24}.cls-9{fill:#b7d972}
        </style>
    </defs>
    <g id="mask_group_13" transform="translate(0 -27.05)">
        <g id="Group_8145" opacity="0.055">
            <path id="Path_11784" fill="#acacac" d="M10 233h313a10.029 10.029 0 0 0 10-10V29.6C307.3 35.8 276.8 52 257 92c-39.9 80.5-115 77.6-160.3 45.3-33.2-23.6-73.7-21-96.7 2.2V223a10.029 10.029 0 0 0 10 10z"/>
        </g>
        <g id="Group_8146">
            <path id="Path_11785" d="M170.8 218.4c-2.2 4.8-4.5 9.7-6.7 14.6h3.8a37.046 37.046 0 0 1 1.6-5.7c.8-2 1.1-5.1 1.3-8.9z" class="cls-3"/>
            <path id="Path_11786" fill="#004b39" d="M205.5 164c1.5-6-4.6-24.3-22.6-9.5a19.033 19.033 0 0 0-3.8 4.2c-2.7 0-5.7.1-9.1.3-20.6 1.7-14.7 55.5-24.8 66.3a32.009 32.009 0 0 0-5 7.7h23.9c2.2-4.9 4.5-9.8 6.7-14.6-.2 3.8-.5 6.9-1.4 8.9a30.4 30.4 0 0 0-1.6 5.7h22.4c1.9-9.8 4.1-20.6 6.6-32.3 2.6-11.4 5.5-23.7 8.7-36.7z"/>
        </g>
        <path id="Path_11599" fill="#061f19" d="M205.5 164c-3.3 13-6.1 25.3-8.6 36.7l-29.1 32.1c.4-2.5 2.1-12.1 3-14.5 17.8-38.4 14.3-34.9 22.4-55.3 8.6-21.6 13.8-4.9 12.3 1z"/>
        <path id="Path_11600" d="M240.7 40.7s-.2-3.1-.6-5.5c-.2-1.1 2.7-7.5 4.3-8.1s4.8 4.3 3.3 7.6c-.8 1.7-2.4 7.4-2.4 7.4z" class="cls-6"/>
        <path id="Path_11601" d="M240.7 40.7s-.6-1.8-1.3-2.2-1.1-3.3-1.5-4.5c0 0 .6-.7 1.4.4a22.7 22.7 0 0 1 1.5 2.5z" class="cls-6"/>
        <path id="Path_11602" d="M136 38.1a7.62 7.62 0 0 0-.7 1.3V39c.1-1.1-3.1-7.3-4.7-7.9s-4.5 4.6-2.9 7.8c.9 1.7 2.8 7.2 2.8 7.2l4.5-1.7s.5-1.9 1.1-2.3c.7-.4.9-3.4 1.2-4.6 0 .1-.6-.5-1.3.6z" class="cls-6"/>
        <path id="Path_11605" d="M203.1 69.4v-.1a23.358 23.358 0 0 0-.4-2.6 65.775 65.775 0 0 0-1.7-7.4 30.149 30.149 0 0 0-1.3-3.6c-.1-.2-.1-.3-.2-.5-1.1-2.4-2.3-4.2-3.5-4.8a12.333 12.333 0 0 0-6.6-1.1 3.694 3.694 0 0 1 1.4-.7 11.476 11.476 0 0 0-3.6 1c-15.7-5.6-17.5 17.3-17.1 22.6.5 5.3-5 7.2-13 11.6-15.2 8.4-16.3 19.1-16.3 19.1.1.1.2.1.4.2.7-1.3 2.2-3.8 3.6-4.2a48.132 48.132 0 0 0-2 5.3c2 1.4 4.7 3.6 7.7 6.1 3.9 3.3 8.3 7 11.7 10a9.82 9.82 0 0 1 .3-3.4l.7 3.9.1.5c2.2 1.9 4 3.5 4.8 4.3l.2.2a1.2 1.2 0 0 1 .4.4c-.2-1.4 1.7-4.6 4.6-8.7l.6-.9c.9-1.3 2-2.6 3.1-4l1.2-1.5c.3-.4.7-.8 1-1.2.8-1 1.7-2 2.5-2.9 2.2-2.5 4.5-5 6.8-7.3a69.482 69.482 0 0 1 9.1-8 2.186 2.186 0 0 0 .3-.5 11.066 11.066 0 0 0 1.2-2.7 6.89 6.89 0 0 1 .3-.8 31.605 31.605 0 0 0 1.4-6.8 40.766 40.766 0 0 1-.9 6.9c-.1.4-.2.7-.3 1l-.6 1.8a8.064 8.064 0 0 0 1.2-1.4c.2-.4.5-.7.7-1.1 2.7-4.5 3.1-11.7 2.2-18.7z" class="cls-7"/>
        <path id="Path_11606" d="M197.3 92.1c.1 0-4.9 2.8-8.7 1.8-3.6-.9-6-5.4-6-5.5 1.5-.3 1.9-2.4 1.6-11.3l.7.1 11.5 2s-.2 3.6-.1 7c.1 3 .3 5.7 1 5.9z" class="cls-6"/>
        <path id="Path_11607" fill="#722f20" d="M196.4 79.3s-.2 3.6-.1 7c-6.4 0-10-5.8-11.4-9z"/>
        <path id="Path_11608" d="M183.7 76.1s-3.5-5.2-4.4-9.8c-.7-3.2.7-15.3 12.8-13.9a17.251 17.251 0 0 1 6.9 2.4c2.7 1.7 6.6 5.4 2.6 16l-1 3.6z" class="cls-7"/>
        <path id="Path_11609" d="M207.3 161.7a49.634 49.634 0 0 1-34.6.2c-.2-.1-15.3-4.4-15.3-4.4.4-.7 3.8-12.3 4.1-13 4.4-8.3 16.4-54.6 21.8-56.3 1.1 1.6 4.8 3 8 3.1 3.7.1 5.2-1.3 5.1-3.1 3.8 2.4 6.8 4.6 6.8 4.6 3 6.1 4.1 68.9 4.1 68.9z" class="cls-3"/>
        <path id="Path_11610" d="M198.6 82.4s-15.2.6-15.4-8.8c-.2-9.5-2.4-15.8 7.3-16.6s11.7 2.8 12.5 5.9c.9 3.2-.4 19.1-4.4 19.5z" class="cls-6"/>
        <path id="Path_11611" d="M197.4 56.6s-3.9 11.2-10.2 13-9.2.2-9.2.2a17.518 17.518 0 0 0 5.6-10.8c.1 0 10.5-7.6 13.8-2.4z" class="cls-7"/>
        <path id="Path_11612" d="M196.4 57.6s3.2 2.4 4 4.8 1.3 7.3 2.7 7.1c0 0 2.9-7.6-.7-11.8-3.8-4.4-6-.1-6-.1z" class="cls-7"/>
        <path id="Path_11613" d="M245.4 41.5a8.486 8.486 0 0 0-2.6-1.1 9.638 9.638 0 0 0-2.4 0S233 66 232.5 67.3c-.5 1.4-20.6 19.1-25.4 18.4-4.3-.6-9.8 2.1-10.8 2.6 0 0 7.4 22.5 7.4 26.5 0 4.4-3 71.8-3 71.8s-.7 3.1 5.3 2.1 7.6-2.2 7.6-2.2 1.1-53.2 2-69.7a31.834 31.834 0 0 0-.3-6.2 5.9 5.9 0 0 1 1.6-5.1c8.6-9.2 22.2-24.1 23.2-27.5 1.9-5 5.3-36.5 5.3-36.5z" class="cls-9"/>
        <path id="Path_11615" d="M191.9 115.4c-.2-5.3-8.4-27.5-8.4-27.5s-6.6-2.9-11.3-1.8-26.3-14.9-26.9-16.2-10.2-26-10.2-26a2.874 2.874 0 0 0-2.7-.1 3.291 3.291 0 0 0-2 2.3s6 30.4 8 35.2c1.2 2.9 13 14 22.2 22.3a6.242 6.242 0 0 1 1.9 6.3c-2.6 9.8-3.6 15.4-7.3 32.3-3 14-6.9 41.5-6.9 41.5s10.8 5.3 18.4 6.7c7.7 1.5 10.4-6.5 10.4-6.5s15-63.1 14.8-68.5z" class="cls-9"/>
        <path id="Path_11616" d="M194.3 77.2a6.667 6.667 0 0 0 3.9 1.2c1.5 0 2-1.7 2-1.7a5.66 5.66 0 0 0-2.6-.3 12.256 12.256 0 0 0-3.3.8z" class="cls-3"/>
    </g>
</svg>
