<svg xmlns="http://www.w3.org/2000/svg" width="59.148" height="68.864" viewBox="0 0 59.148 68.864">
    <defs>
        <filter id="kar5lqfmea" width="59.148" height="68.864" x="0" y="0" filterUnits="userSpaceOnUse">
            <feOffset dx="3" dy="3"/>
            <feGaussianBlur result="blur" stdDeviation="5"/>
            <feFlood flood-opacity=".2"/>
            <feComposite in2="blur" operator="in"/>
            <feComposite in="SourceGraphic"/>
        </filter>
    </defs>
    <g filter="url(#kar5lqfmea)">
        <path fill="#fff" d="M21.861 18.825v2.125a.914.914 0 0 1-.911.911H8.2a.914.914 0 0 1-.911-.911v-2.125a.914.914 0 0 1 .911-.911h12.75a.914.914 0 0 1 .911.911zm-.911 5.465H8.2a.914.914 0 0 0-.911.911v2.125a.914.914 0 0 0 .911.911h12.75a.914.914 0 0 0 .911-.911V25.2a.914.914 0 0 0-.911-.91zm8.2-14.278v25.209a3.644 3.644 0 0 1-3.65 3.644H3.644A3.644 3.644 0 0 1 0 35.221V3.644A3.644 3.644 0 0 1 3.644 0h15.492a3.644 3.644 0 0 1 2.573 1.07l6.369 6.369a3.63 3.63 0 0 1 1.07 2.573zM19.432 3.94v5.776h5.777L19.432 3.94zM25.5 35.221V13.36h-7.89a1.817 1.817 0 0 1-1.822-1.822V3.644H3.644v31.577z" transform="translate(12 12)"/>
    </g>
</svg>
