<svg xmlns="http://www.w3.org/2000/svg" width="171.811" height="186.957" viewBox="0 0 171.811 186.957">
    <g transform="translate(-101.474 -136.043)">
        <g>
            <g>
                <g>
                    <path fill="#f7f7f7" d="M-921.62 67.951c-11.432-12.408-29.6-15.263-43.661-7.373-.026.015-.054.023-.08.035a16.9 16.9 0 0 0-7.628 13.187.959.959 0 1 1-1.915-.1 18.791 18.791 0 0 1 7.868-14.318c-9.531-16.535-28.7-25.3-46.138-19.678-17.165 5.532-28.029 23.033-27.116 41.957a23.121 23.121 0 0 1 4.682.539 30.943 30.943 0 0 1 16.013 9.834c.869.956-.5 2.331-1.367 1.377a32.725 32.725 0 0 0-4.74-4.307c-6.342-4.693-14.246-6.51-21.621-4.385-7.452 2.147-14.559 8.357-18.244 15.421a34.983 34.983 0 0 0-2.263 26.884 33.578 33.578 0 0 0 17.351 19.91 37.037 37.037 0 0 0 23.26 2.5c5.166-1.008 10.307-2.146 15.444-3.287 14.685-3.263 29.337-6.676 43.982-10.11q9.651-2.263 19.3-4.546c5.283-1.25 10.948-2.12 15.9-4.422 16.189-7.528 25.135-27.182 19.006-45.487a37.962 37.962 0 0 0-8.033-13.631z" transform="translate(101.474 136.043) translate(1069.523 -38)"/>
                </g>
                <path fill="#8b8b8b" d="M-865.213 176.4q-.156-.466-.325-.928c1.658 9.232-.7 18.62-8.115 24.839-7.621 6.39-16.1 12.107-25.239 15.445-24 8.766-50.129 15.516-74.917 21.754-7.91 2-15.453 3.313-25.23 5.029-.079.014-.118.117-.177.18a40.237 40.237 0 0 0 17.539 1.994q1.417-.184 2.834-.461c5.166-1.008 10.307-2.146 15.444-3.288 14.413-3.2 28.794-6.55 43.168-9.919l5.407-1.284q9.986-2.376 19.968-4.771c1.944-.467 3.937-.891 5.93-1.346a35.472 35.472 0 0 0 4.706-1.759c16.19-7.53 25.136-27.185 19.007-45.485z" opacity="0.1" transform="translate(101.474 136.043) translate(1021.145 -132.588)"/>
            </g>
            <g>
                <path fill="#009460" d="M-598.548 158.982a23.509 23.509 0 0 0-10.871-9.6 30.761 30.761 0 0 0-9.407-2l-9.044-.93a25.594 25.594 0 0 0-11.548 1.272 23.143 23.143 0 0 0-11.4 9.266 23.6 23.6 0 0 0-3.529 10.331l-4.917 47.8 7.187.739 4.941-48.038a14.946 14.946 0 0 1 1.342-5 17.625 17.625 0 0 1 3.152-4.6 15.467 15.467 0 0 1 4.883-3.379 15.776 15.776 0 0 1 5.9-1.4c.1-.006.41-.017 1.188.012.325.012.674.038 1.1.082l12.661 1.3a15.085 15.085 0 0 1 5.048 1.348 17.607 17.607 0 0 1 4.6 3.152 15.464 15.464 0 0 1 3.379 4.883 15.776 15.776 0 0 1 1.4 5.9c.006.1.018.41-.011 1.188-.012.325-.038.67-.081 1.086l-4.942 48.05 7.186.739 4.941-48.038a22.947 22.947 0 0 0-3.158-14.163z" transform="translate(194.348 164.931) translate(671.056 -146.288)"/>
                <g>
                    <path fill="#24c38b" d="M-681.875 265.228l-5.361 52.12a12.831 12.831 0 0 0 11.451 14.077l47.98 4.935a12.83 12.83 0 0 0 14.076-11.451l5.361-52.12zm35.769 37.431l-1.291 12.55c-.1.932-1.26 1.576-2.6 1.438l-.049-.005c-1.34-.138-2.348-1.005-2.253-1.938l1.291-12.55a9.716 9.716 0 0 1-6.249-10.088A9.712 9.712 0 0 1-646.6 283.4a9.712 9.712 0 0 1 8.668 10.655 9.715 9.715 0 0 1-8.174 8.604z" transform="translate(194.348 164.931) translate(0 50.024) translate(687.305 -265.228)"/>
                </g>
                <path d="M-664.987 380.345a12.872 12.872 0 0 0 2.133.405l47.98 4.935a12.831 12.831 0 0 0 14.074-11.451l2.436-23.681c-8.054 36.847-66.357 29.785-66.623 29.792z" opacity="0.1" transform="translate(194.348 164.931) translate(674.373 -264.643)"/>
            </g>
        </g>
        <ellipse cx="51" cy="6" rx="51" ry="6" transform="translate(137 311)" style="mix-blend-mode:multiply;isolation:isolate" fill="#707070" opacity="0.165"/>
    </g>
</svg>
