<svg xmlns="http://www.w3.org/2000/svg" width="375" height="237" viewBox="0 0 375 237">
    <defs>
        <linearGradient id="linear-gradient" x1=".493" x2=".53" y1=".159" y2="1.118" gradientUnits="objectBoundingBox">
            <stop offset="0" stop-color="#fff"/>
            <stop offset="1" stop-color="#fff" stop-opacity="0"/>
        </linearGradient>
        <clipPath id="clip-path">
            <path id="Rectangle_3711" d="M0 0H375V237H0z" class="cls-1"/>
        </clipPath>
        <style>
            .cls-1{fill:url(#linear-gradient)}
        </style>
    </defs>
    <g id="Mask_Group_11" clip-path="url(#clip-path)">
        <path id="Path_9763" fill="none" stroke="#c3e7db" stroke-linecap="round" stroke-linejoin="round" d="M964.03 446.561l-3.36 6.447s.362 1.279.612 1.25.917-.445.917-.75a4.736 4.736 0 0 0 0-.889 2.913 2.913 0 0 0-.199-.719 2.135 2.135 0 0 1-.166-.5 4.157 4.157 0 0 1 .388-.723 2.473 2.473 0 0 1 .583.611 19.03 19.03 0 0 1 .362 1.918c0 .139-.239.5.158.584a2.18 2.18 0 0 0 1.2-.028 6.85 6.85 0 0 0 1.111-.639 2.583 2.583 0 0 0 .389-.528c.139-.223.139-1.028.223-1.139s.361-.389.556-.334.333.75.306 1.14-.111.861.222 1.084.389.472.834.333.945-.167.945-.528-.194-.806 0-.945a2.544 2.544 0 0 1 .778-.473c.445-.167.945-.583.945-.778s-.945-.889-.973-1a2.327 2.327 0 0 1-.084-.806c.056-.222 0-.694.167-.833s.889-.75.889-.75a3.238 3.238 0 0 0-.334 1c-.028.417-.055.583.195.75a8.107 8.107 0 0 1 1.139.889.814.814 0 0 1 .195.528c0 .25.111-.083.444.167s.584.667.278.75-.556-.112-.889.083a1.445 1.445 0 0 0-.583.695c-.083.195.056.528-.139.75s-.834.028-1.167.389-.472.834-.861.917-.973-.167-1.278 0a9.458 9.458 0 0 0-1.057.583c-.249.195-1 .5-1.278.695s-.667.445-.694.639a1.9 1.9 0 0 0 .056.723.869.869 0 0 1 .389.945c-.167.611-.333.722-.333 1.028s-.389.473.25.5 1-.055 1.195-.306.417-.346.528-.659.862-1.81.862-1.81-.362 2.275-.417 2.581a3.342 3.342 0 0 1-.556 1.084c-.194.25.056.361-.3.723a9.539 9.539 0 0 1-.75.75c-.306.25-.778.417-.806.778a2.983 2.983 0 0 0 .417 1.418c.223.333.361.583.611.556a.578.578 0 0 0 .5-.584c0-.334 0-.667.333-.861s1.224-1.278 1.335-1.278a1.979 1.979 0 0 1 .417 0c.25.028 1.223-.806 1.5-.75s.223.417.056.556-.778 1.279-1.278 1.39-.5.055-.667.445-.361 1.139-.25 1.25.695.195.778.5a.727.727 0 0 1-.306.834.834.834 0 0 0-.473.667c0 .25-.583.556 0 .528s.945.028 1.334-.306 2.779-3.751 3.113-4.252.972-.861 1.083-1.222.278-1.668.639-1.668.612.28.806.182.751-.96 1.139-1.016a8.859 8.859 0 0 1 1.14-.055c.25 0 1.14-.084.945.111s-1.139.25-1.334.445.028.611-.167.778a3.37 3.37 0 0 1-.945.334c-.334.111-.278-.194-.639.5s-3.029 5.7-3.168 5.947-.584.75-.695.944-.445.5-.5.778-.306.528.167.695.723.334.556.528-.584.722-.972.806-.834-.028-1 .25-.389.333-.361.972-.056 1.167-.056 1.445v1.473s.639-.528.806-.389 1.251.556 1.418.389.695-.278.945-.611a3.273 3.273 0 0 1 1.222-.889c.306-.084.917-.167.917-.167a7.7 7.7 0 0 0-.945 2.14 5.819 5.819 0 0 0-.028 1.862c.055.167 1.529 1.723 1.973 2.2a3.633 3.633 0 0 1 .972 1.89c-.056.417-.333 1.7-.389 1.834a4.341 4.341 0 0 0-.167 1.167 3.1 3.1 0 0 0 .389.889 10.341 10.341 0 0 1 2.362-.612 5.336 5.336 0 0 1 1.584.612c.333.306 2.057 1.862 2.307 2a3.139 3.139 0 0 0 1.056.334c.333.027.917-.056.917.222s-.306.584-.306.778.417.889.444 1.084.472.361.75.278.834-.834 1.139-.889 1.028-.195 1.111-.083-.417.905-.527.994-.806.534-.528.923a3.677 3.677 0 0 0 .806.945 6.08 6.08 0 0 0 2.112.195c.5-.111.806 0 .806-.417s.138-.612 0-1.028-.321-1.14.061-1.39a5.654 5.654 0 0 1 1.606-.889 7.231 7.231 0 0 0 1.195-.333 6.4 6.4 0 0 1-.667 1.056c-.25.25-.89.639-.861.945s.417.417.5.445a.969.969 0 0 1 .139.778 4.708 4.708 0 0 0-.333 1.056 8.049 8.049 0 0 0-.112 1.362c-.028.083 4.363 2.835 4.5 3.057s1.751 1.862 2.223 2.279.862.528 1.028 1.056.639 2.334.89 2.306.472-.972.722-1.028 1.418.111 1.918.056a2.1 2.1 0 0 0 1.2-.361c.278-.251 1.445-2.64 1.751-2.89s.639-.417.584.111a7.192 7.192 0 0 1-.639 2.528c-.333.334-1.111.389-1.306.917s-.223.445-.084.667.361.585.25.626-.556.374-.778.347-.389-.195-.556-.111-.333.472-.528.917a1.119 1.119 0 0 0 .361 1.167 3.074 3.074 0 0 0 1.806 0 5.558 5.558 0 0 1 .945-.611.861.861 0 0 0 .534-.834c-.034-.5-.451-.556-.506-.667s-.445-.417-.139-.5.6-.25.647-.5-.008-1.473.131-1.473.5-.027.5.584a13.039 13.039 0 0 0 0 2.112c.111.195.138.5.444.695s.556.278.667.528a1.091 1.091 0 0 1 0 .889c-.139.139-.334.306-.139.5a1.782 1.782 0 0 1 .473.806c-.028.139-.584.139-.695.195a.683.683 0 0 0-.362.667 11.868 11.868 0 0 1-.417 2.112 7.234 7.234 0 0 1-.584 1.5c-.25.361-.695 1-.833 1.25a8.9 8.9 0 0 1-1.25 1.529c-.306.222-1.278.806-1.612.972s-.861.417-.445.528.25.222.889-.223 1.5-1.333 2.029-1.612 1.111-.611 1.417-.472a1.766 1.766 0 0 0 1.056.111 3.407 3.407 0 0 0 .639-.306s.417.611.473.75a.478.478 0 0 1 0 .472c-.111.139-.205.306.064.834s.492 1.056.741 1.167 1.167-.528 1.39-.472.055.556-.195.917-.723.417-.334 1.056.75 1.668.917 1.918a.674.674 0 0 0 .778.222c.306-.083-.139-.122.695.036s.889.37 1.14 0a15.245 15.245 0 0 0 .917-2.148 3.291 3.291 0 0 1 .278 1.306c-.028.556 0 1.084-.278 1.306s-.722.528-.778.917a8.95 8.95 0 0 0-.055 2.474 6.219 6.219 0 0 0 .806 1.556c.056.083 1.167.028 1.334-.223a3.736 3.736 0 0 0 .445-1.361c.056-.5-.167-.806.472-1.111s3-1.723 3-1.723l.473-.306a9.061 9.061 0 0 1-.945 1.7c-.25.167-1.139.861-1.084 1.111a8.693 8.693 0 0 1 .111.973c0 .083.111.195.584.055s1.667-.723 1.89-.806l.222-.084s.362.139-.306.611-.89.945-1.417 1.056-.945.35-1.084.148a1.291 1.291 0 0 1-.389-.731c-.083-.473-.167-.917-.361-.723s-.166.445 0 .889a6.094 6.094 0 0 1 .222 1.39 5.388 5.388 0 0 1 .139 2.112c-.167.334-.445.639-.472.889a1.243 1.243 0 0 1-.194.5c-.055.112-.223.445.389.556s1.195.222 1.25-.223a1.614 1.614 0 0 1 .361-1 1.9 1.9 0 0 0 .556-.75 4.315 4.315 0 0 1 .945-1.473c.334-.25.667-.667.917-.667a3.415 3.415 0 0 1 .972.083c.5.111 1 .111 1.112.25s-.027.361-.278.361-1.362-.084-1.556-.084a.6.6 0 0 0-.584.445 2.269 2.269 0 0 0-.166.723 2.188 2.188 0 0 1-.25 1c-.112.111-.778.528-.723.778s.055.445.361.417 2.056-.362 2.251-.362a1.252 1.252 0 0 1 .584.112 7.491 7.491 0 0 0 1.389.195c.111 0 .806.417 0 .417s-2.168.139-2.584.139-1.056-.084-1.417.278a9.123 9.123 0 0 1-1.751 1.167c-.278.111-.834.222-.862.445a.911.911 0 0 1-.445.695c-.333.222-.917.583-.917.861a1.68 1.68 0 0 0 .417 1.111c.361.445.222.445.222.445s2.529-.695 2.807-.806 1.473-.556 1.584-.584.472-.306.834.278.556 1.028 1.223 1.111a5.156 5.156 0 0 0 2.14-.139c.361-.194 1.667-.972 2.029-1.25a8.823 8.823 0 0 0 1.389-1.473 15.145 15.145 0 0 0 .917-2.029c.111-.278-.111-1.167 0-1.64a7.409 7.409 0 0 1 1.445-1.973c.222-.167.305 0 .945.028a11.732 11.732 0 0 0 3.446-.25 7.929 7.929 0 0 0 1.612-1.334c.306-.361.528-.778 1.028-1.528a4.6 4.6 0 0 0 .639-1.612 1.981 1.981 0 0 0 1.25-.027 15.753 15.753 0 0 0 2.779-3.446 4.2 4.2 0 0 0 .361-1.862c.055-.973-.111-.834.583-1.667s.751-1.306 1.167-1.445.723.111.945-.334.084-1 .362-1.5.638-1.445 1.083-1.7.75-.111 1.084-.667 1.556-4.863 2.056-5.085 9.477-3 9.754-2.973a.719.719 0 0 1 .556.722c-.055.306.223.445.667.611s2.807 1.028 3.223 1.168a58.48 58.48 0 0 0 8.42-2c.556-.334.945-2.251 1.195-2.418s27.206.639 27.317.723a5.261 5.261 0 0 1 1.167 1.139c.306.5.389 2.89.611 3.418s1.529.973 2.084 1.167a8.614 8.614 0 0 1 2.363 2.168 25.831 25.831 0 0 1 2.334 3.335 17.194 17.194 0 0 1 .778 2.807c.139.389 1.529.695 1.668 1.112s.167 1.5.333 1.778 1.306.306 1.362.834-.362 1.862.333 2.251 1.445.5 1.334.806-.584-.083-.278 1.64a12.218 12.218 0 0 0 1.557 3.779c.111.139 1.778-.139 2.167.167s3.113 2.528 3.168 3.279.334 3.807 0 4.085-2.39.75-2.612 1.084-.389 2.807-.556 3.5.695 1.056 1.251 1.056 2.529-.028 2.779.306 1.945 1.334 1.945 2.028-.611 8.726.167 9.171a3.82 3.82 0 0 1 1.362 1.5c.389.556 1.945 4.28 1.779 4.585a43.05 43.05 0 0 1-2.723 3.418c-.333.278-1.918 1.056-2.668 1.529a6.114 6.114 0 0 0-2.167 2.724c-.611 1.361-.223 2.14-.556 2.834a6.484 6.484 0 0 1-1.779 1.806 2.424 2.424 0 0 0-.667 1.417c-.139.556-.889 1.306.25.584s1.056-1.251 2.5-.917a22.624 22.624 0 0 0 4.5.639c.64-.083 2.029-1.834 2.64-2.612a21.292 21.292 0 0 1 3-3.085 4.614 4.614 0 0 1 2.14-.75c.667.056 2.028 1.056 2.751 1.056a5 5 0 0 0 2.584-.528 13.038 13.038 0 0 1 3.974-.833c.5 0 1.223 1.056 1.5 1.5s1.389 1.223 1.918.972 1.5-1.167 2.112-1.167 2.724.778 3.2.75 2.7-3.168 3-3.335 1.389.278 1.751.667.917 3.473 1.222 4.252.334 1.306 1 1.056 1.334-1.584 1.556-1.667 1 .361.778.833-.695 1.028-.361 1.279 1.556.25 1.75.389.473 1.445.945 1.584.889-.266 1.111.214-.25 4.816-.138 5.344 1.89 2.168 1.89 2.557-.917 3.557-.333 3.834 1.584.112 1.584.473-.806 3.307-.834 3.862.167 4.335.5 4.78 1.779 1.862 1.917 2.084-.417 7.059-.25 7.475.834 1.584.584 2.029-2.251 5.252-2.64 5.808-1.028.75-1.25 1.112-.945.917-.083 1.139a5.072 5.072 0 0 0 2.557-.139c.972-.222 2.14-.639 2.362-.334a4.06 4.06 0 0 0 2.251 1.445c.973.083 1.973.334 2.223.806a13.279 13.279 0 0 1 .473 2.2c.139.556 3.334 4.974 4.14 4.974a27.239 27.239 0 0 0 5.113-1.862 9.9 9.9 0 0 1 2.946-.306c.778-.028 1.362.334 1.528-.055s.472-3.724.862-4.141 4.835-4.5 4.919-5.086-.334-4.085 0-4.447 1.806-2.667 2.14-2.751 4-.639 4.279 0 .5 2.279 1.084 2.668 1.612 1.25 2.417 1.195a4.018 4.018 0 0 0 2.168-1.668c.027-.25-.112-.778 0-.778s4.974.222 5.224.612 2.39 3.974 2.723 3.835 6.336-11.644 6.336-11.644-.667-3.057-.75-3.112 3.78-7.42 3.974-7.642 2.39.223 2.473-.222a24.455 24.455 0 0 0-1.584-4.363c-.139-.195-6.92-1.306-6.864-1.945s-.695-9.031-.445-9.281a31.552 31.552 0 0 1 2.446-2c.112 0 .334.667 1 .195s1.779-1.25 2.279-1.195 2.89-.167 2.89-.167 1.918 2.529 2.251 3 2.39 1.5 2.724 1.278 1.5-2.39 1.7-2.2 1.611 3.7 2.362 3.751a13.829 13.829 0 0 0 3.529.112c.612-.25.25-2.084.528-2.7a6.561 6.561 0 0 0 .445-2.7c-.083-.778-1.5-3.529-1.223-4.2s1.75-1.445.778-2.084-1.945-.861-2.056-1.222-2.112-4.03-2.585-4.113a40.7 40.7 0 0 1-4.529-.833c.027-.167.056-4.058.361-4.28s1.667.167 1.667-.612-.694-2.2-.222-2.417 5.614-4 5.614-4l-6.17-4.5s1.445-3.5 1.806-4.057a13.448 13.448 0 0 0 1.084-3.113c.056-.5.222-1.834.056-1.834s-6.975-.5-7.336-.472a8.611 8.611 0 0 1-2.2-.861c-.056-.084-1.834-4.308-1.779-4.447s1.584-13.394 1.584-13.533-1.75-2.223-1.417-2.5 1.806-1.445 1.668-1.695a17.856 17.856 0 0 1-1-1.862 3.648 3.648 0 0 1 .194-1.167 25.412 25.412 0 0 0 3.863-2.362c.555-.639 3.529-9.226 3.529-9.226s-3.7-1.751-3.751-2.056-1.417-3.168-1.417-3.168-3.084 1.139-3.2 1.084-4.2-7.67-4.2-7.67l-.417-11.616s1.918-3.279 1.946-3.585a34.16 34.16 0 0 0-1.39-3.5s-4.585-1.612-5.03-1.473-6.114 3.613-6.308 3.668-1.89 0-1.89 0-1.222-.667-1.222-.889-.278-2.418-.195-2.418.667.584 1.167.389 1.529-.611 1.39-1.279-.806-2-.389-2.056 2.14.639 2.279-.055-.445-2.2.028-2.362 3.084-.473 3.418-.695 2.363-1.7 2.363-1.7 2.806-.223 2.917-.473a2.07 2.07 0 0 0-.027-1.528c-.278-.473-.056-1.279-.278-1.668s-.75-1.584-1.139-1.667a17.873 17.873 0 0 1-2.779-.778c-.111-.167-1.083-2.974-1.167-3.363s-2.029-.806-2.751-1a13.652 13.652 0 0 1-2.279-.695c0-.111-2.362-6.169-2.362-6.169s-2.5.722-3.113.333-2.112-.639-1.917-1.306 1.417-8.809 1.417-9.392-.528-3.418-.528-3.418a19.769 19.769 0 0 0-2.417-1.389c-.5-.139-1.111-.417-1.139-1.667s-.389-1.139-.389-1.973.361-1.334.222-1.723-1.557-1.584-1.417-1.889a53.281 53.281 0 0 0 2.2-5.53c-.111-.278-4.668-5.975-4.807-5.947s-10.838-2-11.06-1.806-1.113 2.723-.806 3.085 3.779 2.167 3.5 3.2a16.24 16.24 0 0 1-2.446 4.057 3.939 3.939 0 0 1-1.945.528c-.361-.083-2.112-1.612-2.362-1.529a49.85 49.85 0 0 0-4.28 3.029c-.167.25-3.418.889-3.612 1.028s-2.863 5.641-3.224 6.058-3.251-2.251-3.891-2.585a46.389 46.389 0 0 0-5.53-1.7c-.917-.167-3.89-.111-4.224-.278s-11.449-5-11.449-5l-1 1.751a24.453 24.453 0 0 0-4 2.307 29.129 29.129 0 0 0-2.918 3.724c0 .333.306 1.417 0 1.917a15.02 15.02 0 0 1-2.779 1.862s-.445 1.279-1.279 1.2-2.39-.028-2.556-.639-2.446-5.392-2.418-5.475-.111-3.279-.111-3.279l-7.92-5.669a16.229 16.229 0 0 0-2.862 1.806 3.381 3.381 0 0 0-.723 1.723 1.815 1.815 0 0 1-.5 1.556c-.445.5-3.307 2.056-3.307 2.334s.111 2.974-.584 3.279-2.529.806-2.668.556-6.086-6.78-6.447-6.864-2.14.084-2.417-.584-1.139-1.612-.806-2.056.612-.639.361-1.278-.556-1.418.028-1.89.473-.889.667-1.278a2.3 2.3 0 0 1 .75-.722l.194-1.223s-.972-.723-.722-1.306 1.612-1.584 1.64-1.834-.333-1.111-2.195-1.223-10.477 1.612-11.089 1.807-1.334-.445-1.722-.5-2.14.306-2.668.278-3.168-1.594-3.585-1.589-5.5.839-5.808 1.005-.944.973-1.556 1.5-7.753 2.473-8 2.5-1.112-2.112-1.362-2.474a11.106 11.106 0 0 0-3.668-1.417c-.612 0-2.112.611-2.5.583s-2.473-2.056-3.279-2.334a32.277 32.277 0 0 0-4.168-.25c-.556-.084-1.223-1.251-1.417-1.334s-.973.278-1.334-.612a8.72 8.72 0 0 0-3.113-2.667c-.278.027-.973.334-.973.528a23.456 23.456 0 0 1-.555 3.252c-.167.25-1.112.778-1.39.417a2.941 2.941 0 0 0-1.445-.889 7.714 7.714 0 0 1-1.584-.111c-.305-.084-1.167-.306-.973-1.084s-.027-1.64.528-2.112a3.767 3.767 0 0 0 1-2.139c0-.472-.417-1.2-.584-1.2s-.806.472-1.222.334a20.109 20.109 0 0 0-2.084-.778c-.278 0-1.973.278-1.973.278s-1.25-1.195-1.583-1.195-1.39-.223-1.612 0a4.827 4.827 0 0 1-1.445.806c-.111-.056-1.2-1.334-1.612-1.306s-12.505-.612-12.505-.612a10.588 10.588 0 0 0-.223 2.445 24.137 24.137 0 0 0 1.334 3.363 10.327 10.327 0 0 1 1 3.418c.028.945-.778 1-.889 1.473a16.549 16.549 0 0 0-.333 3 2.3 2.3 0 0 1-.278 1.723c-.361.361-2.223 1.64-2.223 1.64s-1.057-1.056-1.307-.834-1.083 1.39-1.25 1.056-.527-1.556-.527-1.556l-1.445.334-.973 1.222-2.306.389-.25 1.056s-.917-.139-.973.389-.5 1.529.028 1.64a11.092 11.092 0 0 1 1.25.25c.556.167 1.917.834 2.056 1.25s.25.25 1.084.639 1 1.917 1.361 2.223 3.335 1.834 3.446 1.973-.277 11.227-.361 11.533a6.139 6.139 0 0 1-2.473 1.139c-.333-.028-.75-.75-1.417-.75s-1.306-1.473-1.362-1.612-.806.223-.806.639a9.038 9.038 0 0 1-.556 1.89c-.083.195-1.2.056-1.584-.111s-1-.112-1.056.167.584.417.278.584-2.862.056-2.946.167-.75-.445-1.084-.5a12.335 12.335 0 0 0-2.334.834c-.306.111-1.556-1.056-1.834-1.167s-.944.334-1.389.25-.667-.695-1.084-.722a6.607 6.607 0 0 0-2.223.084c-.389.222-2.084 2.556-2.417 2.779s-7 3.446-7.753 3.64-3.863-.639-4.724-.556a8.082 8.082 0 0 0-2.862 1.64c-.395.33-7.123 11.974-7.123 11.974z" transform="rotate(-14.98 -860.166 3803.97)"/>
        <path id="Rectangle_3681" d="M0 0H375V168H0z" class="cls-1"/>
    </g>
</svg>
