<svg xmlns="http://www.w3.org/2000/svg" width="289.394" height="209.795" viewBox="0 0 289.394 209.795">
    <defs>
        <style>
            .cls-9{fill:#b7d972}.cls-3{fill:#002a24}.cls-5{fill:#279975}.cls-6{fill:#a7523e}.cls-7{fill:#722f20}.cls-8{fill:#fff}.cls-10{fill:#1c7458}.cls-13{fill:#004b39}.cls-14{fill:#061f19}.cls-15{fill:#014534}.cls-17{fill:#aec9c7}.cls-18{fill:#6bb7bf}.cls-19{fill:#86d1cd}.cls-24{fill:#f99746}.cls-25{fill:#ffb27d}.cls-26{fill:#014433}
        </style>
    </defs>
    <g id="Group_8040" transform="translate(-288.894 -384.646)">
        <path id="Path_9932" fill="#b7d972" d="M257.3 353.534c94.929-11.3 194.735 15.616 134.84 30.109s-.176 56.54 26.206 58.111 8.249 52.108-38.17 43.741-53.031 7-30.8 20.137-91.163 10.015-115.226-16.977-49.456-56.861 5.691-40.34-23.222-32.428-35.392-44.465-42.081-39.015 52.851-50.316z" opacity="0.143" transform="translate(115.854 59.512)"/>
        <g id="Group_8039" transform="translate(288.894 384.646)">
            <g id="Group_8038">
                <ellipse id="Ellipse_876" cx="141.703" cy="6.573" rx="141.703" ry="6.573" transform="translate(5.988 196.65)" style="mix-blend-mode:multiply;isolation:isolate" fill="#ececec"/>
                <g id="Group_8030" transform="translate(92.652 31.928)">
                    <path id="Path_11575" d="M1279.423 1810.392s.409 4.726-.59 5.217l-12.784-.026s0-1.475 2.054-1.8 5.661-1.53 6.271-4.208 5.049.817 5.049.817z" class="cls-3" transform="translate(-1260.452 -1644.314)"/>
                    <path id="Path_11576" d="M1569.965 1805.007s.385 6.555-.614 7.047l-12.784-.026s0-1.475 2.053-1.8 5.661-1.53 6.271-4.208 5.074-1.013 5.074-1.013z" class="cls-3" transform="translate(-1514.312 -1640.758)"/>
                    <path id="Path_11577" fill="#473b1e" d="M1369.085 1233.633a23.926 23.926 0 0 1-3.624 1.545 16.154 16.154 0 0 1-3.474.1c-4.349-11.657-17.833-59.042-17.833-59.042a205.377 205.377 0 0 1-5.408 36.675c-.065.281-.132.561-.2.838-.059.252-.12.5-.18.751a.312.312 0 0 0-.007.034c-2.983 12.4-5.973 20.838-5.973 20.838s-.772.977-2.922.531a5.6 5.6 0 0 1-3.286-1.594c1.594-50.49 2.484-78.961 2.484-78.961s21.344-11.531 27.142-1.674 13.281 79.959 13.281 79.959z" transform="translate(-1312.997 -1068.579)"/>
                    <path id="Path_11578" d="M1275.077 639.091a98.216 98.216 0 0 1-3.2-27.062c.029-11.068 1.023-18.864-2.308-20.178 0 0-10.292-2.992-17.375-4.31a35.026 35.026 0 0 0-3.331-1.658c-2.237-.908-10.957-13.584-12.435-16.619s-3.926-16.258-3.926-16.258l-3.4 1.083s-1.021 14.842-.531 18.711 11.287 20.5 12.182 21.959c3.844 14.05 0 36.914 1.757 42.012.9 2.622 17.662 7.427 26.835 6.823.457-.03.9-.074 1.312-.132 2.17-.3 3.748-.994 4.327-2.211a3.008 3.008 0 0 0 .093-2.16z" class="cls-5" transform="translate(-1227.589 -547.188)"/>
                    <path id="Path_11579" d="M1226.612 512.713s1.92-5.579.516-5.741-4.928-.145-5.363.8 1.449 6.027 1.449 6.027z" class="cls-6" transform="translate(-1221.7 -506.894)"/>
                    <path id="Path_11581" d="M1260.632 520.439a5.489 5.489 0 0 0 1.6-1.972c.29-.942 1.142-2.526.688-2.718s-1.776 1.848-1.776 1.848z" class="cls-6" transform="translate(-1255.72 -514.621)"/>
                    <path id="Path_11582" d="M1439.324 782.5l-.165.858s-.764 2.636 2.461 3.68 5.943 1.53 6.263-.557a44.538 44.538 0 0 1 .219-5.584 9.5 9.5 0 0 1 .435-1.583l-6.373-1.393-1.945-.065z" class="cls-6" transform="translate(-1411.651 -743.67)"/>
                    <path id="Path_11583" d="M1443.98 777.861l-.593 3.129c6.055 1.6 8.7-1.1 8.912-1.671l-6.373-1.393z" class="cls-7" transform="translate(-1415.413 -743.67)"/>
                    <path id="Path_11584" d="M1446.446 696.024c-1.878 3.817-7.037 2.227-9.211 1.343-.612-.248-.987-.44-.987-.44-.659-.39-.742-1.624-.514-3.146.45-3.012 2.111-7.152 2.909-8.107 1.2-1.436 3.093-2.823 7.965-.072s2.246 5.533-.162 10.422z" class="cls-6" transform="translate(-1408.626 -661.673)"/>
                    <path id="Path_11585" d="M1450.941 663.163a17.978 17.978 0 0 0 5.4.05c2.474-.34 4.959 1.5 5.729 2.225a1.4 1.4 0 0 0-.068-.6 1.258 1.258 0 0 1 .272.82c.033.043.046.069.033.073a1.614 1.614 0 0 1 .741.261s-.2-.087-.31.025a.132.132 0 0 1-.043.027c2.973 2.627 1.765 8.151.306 9.1a39.931 39.931 0 0 0-4.772 4.276 7.767 7.767 0 0 1 .723-2.409c.616-1.264-.534-1.586-1.817-2.6s.4-2.368-.579-3.753-5.813-2.088-5.531-2.858c-1.554-1.122-.134-4.46-.084-4.637z" class="cls-3" transform="translate(-1421.454 -643.445)"/>
                    <path id="Path_11586" d="M1444.761 760.3s-.314.472-1.572-.085c0 0-1.056-.468-.812-1.024a3.708 3.708 0 0 1 2.384 1.109z" class="cls-8" transform="translate(-1414.5 -727.352)"/>
                    <path id="Path_11587" d="M1265.551 870.232s-2.907 19.29-24.649 32.685l-2.029 5.894h7.848s19.474-16.331 20.78-38.025z" class="cls-9" transform="translate(-1236.705 -824.385)"/>
                    <path id="Path_11588" d="M1450.3 849.981v-2.924l3.584 1.015-1.635 2.464z" class="cls-10" transform="translate(-1421.454 -804.134)"/>
                    <path id="Path_11589" d="M1425.673 814.659l-2.1 1.792a8.245 8.245 0 0 0 .834 5.22l4.228-2.417a6.036 6.036 0 0 1-2.962-4.595z" class="cls-9" transform="translate(-1397.999 -775.824)"/>
                    <path id="Path_11590" d="M1464.5 831.421a7.824 7.824 0 0 0 1.521 3.394s4.762-.834 6.084-3.116l-1.995-3.116s-.475 2.126-5.61 2.838z" class="cls-9" transform="translate(-1433.864 -787.991)"/>
                    <path id="Path_11591" d="M1656.016 1242.594s.008 4.318-.389 5.177a18.3 18.3 0 0 1-3 4.255c-.821.6.177-3.459-.081-4.2s-.574 1.464-.954 1.555-.484-1.854-.572-2.556 1.62-2.638 2.128-4.207 2.868-.024 2.868-.024z" class="cls-6" transform="translate(-1596.844 -1149.167)"/>
                    <path id="Path_11592" d="M1541.78 860.842s4.188 1.141 7.026 7.385c2.976 6.548 10.94 21.093 11.236 23.1s-.528 20.756-.528 20.756-3.486.135-4.562-1.519c0 0-1.213-16.458-1.75-17.352s-14.253-17.252-13.1-21.4a73.045 73.045 0 0 0 1.678-10.97z" class="cls-5" transform="translate(-1499.867 -816.18)"/>
                    <path id="Path_11593" d="M1518.969 1036.176a11.379 11.379 0 0 1-4.327 2.21 3.451 3.451 0 0 1-1.312.132c-7.665-.79-6.486-30.568-2.773-32.768 3.914-2.319 5.3 1.2 5.3 1.2a98.224 98.224 0 0 0 3.2 27.062 3.007 3.007 0 0 1-.088 2.164z" class="cls-10" transform="translate(-1471.57 -942.113)"/>
                    <path id="Path_11594" fill="#233862" d="M1422.775 1658.133c.051-.232.11-.483.18-.751-.055.252-.12.503-.18.751z" transform="translate(-1397.403 -1512.21)"/>
                    <path id="Path_11595" fill="#2b210b" d="M1425.762 1363.634c2.345-11.1-.183-40.845.947-41.411 1.16-.58 4.462 4.735 4.462 4.735a205.386 205.386 0 0 1-5.409 36.676z" transform="translate(-1400.013 -1219.304)"/>
                </g>
                <g id="Group_8031" transform="translate(25.388 68.657)">
                    <path id="Path_11596" d="M966.607 1780.229l-.676-4.869 2.84-2.373.895 6.446z" class="cls-6" transform="translate(-930.94 -1649.957)"/>
                    <path id="Path_11597" d="M965.411 1822.156h-11.577a6.358 6.358 0 0 1 .327-3.1c.579-1.284 1.481-2.077 1.563-3.061a3.477 3.477 0 0 0 3.315 1.02 12.69 12.69 0 0 0 2.009 2.6c.752.544 4.13.351 4.363 2.541z" class="cls-3" transform="translate(-920.314 -1687.535)"/>
                    <path id="Path_11598" d="M928.207 1265.422c-.757 6.09-1.376 11.832-1.88 17.183-2.694 28.513-2.165 45.94-2.165 45.94s-.2.516-1.865.524a9.584 9.584 0 0 1-1.869-.2s-6.032-18.619-5.567-29.215a16.231 16.231 0 0 1 .471-3.429c1.447-5.421-5.355-26.153 2.039-33.873s11.184.275 10.836 3.07z" class="cls-13" transform="translate(-885.436 -1200.895)"/>
                    <path id="Path_11599" d="M928.207 1265.422c-.757 6.09-1.376 11.832-1.88 17.183l-11.466 17.048a16.231 16.231 0 0 1 .471-3.429c1.447-5.421-5.355-26.153 2.039-33.873s11.184.276 10.836 3.071z" class="cls-14" transform="translate(-885.436 -1200.895)"/>
                    <path id="Path_11600" d="M1095.592 804.4s-.279-1.392-.594-2.453c-.139-.47.83-3.556 1.5-3.936s2.417 1.7 1.923 3.294c-.254.82-.671 3.487-.671 3.487z" class="cls-6" transform="translate(-1043.71 -797.969)"/>
                    <path id="Path_11601" d="M1088.592 827.929s-.364-.807-.694-.937-.682-1.45-.924-1.973c0 0 .234-.342.642.1.249.269.8 1.056.8 1.056z" class="cls-6" transform="translate(-1036.709 -821.495)"/>
                    <path id="Path_11602" d="M692.718 866.135c-.071.146-.17.408-.258.654v-.2c0-.49-1.835-3.157-2.587-3.324s-1.814 2.332-.875 3.713c.483.71 1.662 3.138 1.662 3.138l1.95-1.007s.112-.878.389-1.1.228-1.586.306-2.157c-.005.001-.325-.258-.587.283z" class="cls-6" transform="translate(-688.627 -855.02)"/>
                    <path id="Path_11603" d="M816.008 1774.439c-.164-1.561-.2-5.666-.2-5.666s4.184-1.337 4.03-.419a29.564 29.564 0 0 0-.552 6.749l-1.692 1.011z" class="cls-6" transform="translate(-799.757 -1645.626)"/>
                    <path id="Path_11604" d="M832.47 1301.089s-16.162 44.3-19.344 63.521a3.221 3.221 0 0 1-2.112.339 2.362 2.362 0 0 1-1.987-1.274s-2.92-23.033 2.884-31.029c3.987-5.494-1.72-29.622 7.567-31.556s12.992-.001 12.992-.001z" class="cls-13" transform="translate(-793.193 -1236.852)"/>
                    <path id="Path_11605" d="M794.413 908.8a.353.353 0 0 0-.014-.057c-.094-.39-.2-.774-.309-1.155a25.992 25.992 0 0 0-1.175-3.254c-.25-.561-.509-1.082-.774-1.545-.04-.071-.08-.138-.118-.207a4.645 4.645 0 0 0-1.846-2 5.541 5.541 0 0 0-3.042-.126 1.4 1.4 0 0 1 .58-.388 4.626 4.626 0 0 0-1.572.669c-7.444-1.665-7.009 8.866-6.5 11.252s-1.892 3.546-5.272 5.989c-6.451 4.66-6.342 9.6-6.342 9.6.058.024.122.053.188.086.26-.639.81-1.849 1.387-2.1a24.972 24.972 0 0 0-.619 2.5c.983.542 2.342 1.38 3.819 2.326 1.976 1.264 4.156 2.719 5.9 3.9a4.005 4.005 0 0 1-.043-1.554l.557 1.725.073.225c1.115.756 1.995 1.361 2.442 1.67l.123.084.2.138c-.148-.609.5-2.2 1.595-4.2.075-.14.154-.282.235-.426.353-.633.747-1.3 1.17-1.988.153-.249.307-.5.467-.75.128-.2.258-.406.392-.612.316-.489.644-.982.978-1.475.865-1.278 1.781-2.547 2.687-3.711a32.57 32.57 0 0 1 3.685-4.131c.035-.073.069-.147.1-.223a7.37 7.37 0 0 0 .4-1.273c.031-.133.059-.268.084-.4a17.452 17.452 0 0 0 .271-3.157 17.877 17.877 0 0 1-.04 3.182c-.021.171-.043.33-.069.477a6.543 6.543 0 0 1-.2.837 4.363 4.363 0 0 0 .47-.723 5.159 5.159 0 0 0 .244-.541c.875-2.235.642-5.553-.112-8.664z" class="cls-3" transform="translate(-758.006 -887.18)"/>
                    <path id="Path_11606" d="M918.261 1011.746a6.561 6.561 0 0 1-3.873 1.319 5.223 5.223 0 0 1-3.03-2.148c.665-.238.722-1.208.106-5.25l.319.015 5.359.257s.125 1.656.351 3.2c.189 1.295.451 2.513.768 2.607z" class="cls-6" transform="translate(-883.253 -979.459)"/>
                    <path id="Path_11607" d="M920.085 1006.042s.125 1.656.351 3.2c-2.925.351-4.86-2.077-5.71-3.456z" class="cls-7" transform="translate(-886.196 -979.562)"/>
                    <path id="Path_11608" d="M890.685 924.177a15.478 15.478 0 0 1-2.558-4.193c-.48-1.434-.542-7 5.059-7.033a7.534 7.534 0 0 1 3.264.709c1.31.627 3.287 2.108 2.074 7.156l-.26 1.683z" class="cls-3" transform="translate(-862.777 -898.44)"/>
                    <path id="Path_11609" d="M874.1 1073.073a22.7 22.7 0 0 1-15.728 2.013c-.1-.025-7.209-1.159-7.209-1.159.122-.334 1.04-5.824 1.161-6.13 1.553-4.008 4.392-25.762 6.764-26.835a5.372 5.372 0 0 0 3.818.979c1.706-.151 2.277-.888 2.135-1.68 1.888.893 3.338 1.722 3.338 1.722 1.721 2.584 5.721 31.09 5.721 31.09z" class="cls-8" transform="translate(-830.65 -1009.687)"/>
                    <path id="Path_11610" d="M909.709 939.487s-6.875 1.139-7.518-3.153-1.964-7.036 2.4-7.945 5.462.6 6.026 1.982.864 8.709-.908 9.116z" class="cls-6" transform="translate(-874.63 -911.691)"/>
                    <path id="Path_11611" d="M894.852 921.261s-1.138 5.317-3.923 6.493-4.156.586-4.156.586a8.291 8.291 0 0 0 1.961-5.244s4.338-4.02 6.118-1.835z" class="cls-3" transform="translate(-861.77 -905.136)"/>
                    <path id="Path_11612" d="M947.577 922.531a6.152 6.152 0 0 1 2.083 1.957c.506 1.042 1 3.27 1.64 3.1 0 0 .912-3.635-.973-5.334-2-1.806-2.75.277-2.75.277z" class="cls-3" transform="translate(-914.902 -905.926)"/>
                    <path id="Path_11613" d="M980.84 847.068a4.4 4.4 0 0 0-1.229-.38 3.815 3.815 0 0 0-1.08.113s-1.94 12.057-2.084 12.7-8.32 9.849-10.524 9.812c-1.99-.033-4.348 1.5-4.786 1.8 0 0 4.635 9.8 4.866 11.643.251 2 2.651 32.855 2.651 32.855s-.142 1.435 2.539.664a9.156 9.156 0 0 0 3.352-1.41s-2.463-24.288-2.98-31.841a14.483 14.483 0 0 0-.471-2.818 2.856 2.856 0 0 1 .461-2.427c3.391-4.654 8.745-12.195 9.043-13.8.44-2.359.242-16.911.242-16.911z" class="cls-9" transform="translate(-926.751 -840.534)"/>
                    <path id="Path_11614" d="M813.256 1822.156h-11.577a6.357 6.357 0 0 1 .327-3.1c.579-1.284 1.481-2.077 1.563-3.061a3.477 3.477 0 0 0 3.314 1.02 12.69 12.69 0 0 0 2.009 2.6c.757.544 4.131.351 4.364 2.541z" class="cls-3" transform="translate(-787.358 -1687.535)"/>
                    <path id="Path_11615" d="M736.546 936.152c-.39-2.4-5.372-12.041-5.372-12.041s-3.149-.942-5.222-.191-12.8-5.3-13.14-5.861-6.087-11.26-6.087-11.26a1.332 1.332 0 0 0-1.239.122 1.4 1.4 0 0 0-.758 1.162s4.433 13.475 5.612 15.56c.711 1.257 6.69 5.633 11.326 8.911a2.909 2.909 0 0 1 1.2 2.766c-.623 4.608-.782 7.2-1.5 15.11-.595 6.56-.822 19.259-.822 19.259a42.863 42.863 0 0 0 8.768 2.033c3.58.238 4.36-3.536 4.36-3.536s3.275-29.565 2.874-32.034z" class="cls-9" transform="translate(-702.695 -892.984)"/>
                    <path id="Path_11616" d="M948.771 997.105a3.069 3.069 0 0 0 1.821.343c.676-.1.829-.9.829-.9a2.662 2.662 0 0 0-1.219 0 5.2 5.2 0 0 0-1.431.557z" class="cls-8" transform="translate(-915.945 -971.432)"/>
                </g>
                <g id="Group_8032" transform="translate(168.266 71.978)">
                    <path id="Path_11617" d="M1940.449 935.911s2.135 3.519-1.88 5.735c0 0 3.086 1.113 4.161.693a2.334 2.334 0 0 1-.469.379s2.9.921 4.346.418 4.56-14.547-4-15.288c0 0-6.753-2.418-8.181 5.118s-4.029 6.8-4.029 6.8a4.07 4.07 0 0 0 .98.631s.561-.036.735-.268a1.666 1.666 0 0 1-.383.474s2.738 1.035 4.415.452 4.278-3.514 4.305-5.144z" class="cls-3" transform="translate(-1916.584 -914.458)"/>
                    <path id="Path_11618" d="M1941.948 1832.7h10.923a6 6 0 0 0-.309-2.928c-.547-1.212-1.4-1.96-1.475-2.888a3.282 3.282 0 0 1-3.127.962 11.985 11.985 0 0 1-1.9 2.457c-.709.516-3.892.333-4.112 2.397z" class="cls-3" transform="translate(-1926.679 -1700.377)"/>
                    <path id="Path_11619" d="M1924.587 1347.91a9.907 9.907 0 0 1-1.9.388c-1.721.153-1.971-.359-1.971-.359s-1.71-15.219-7.244-44.311a80.842 80.842 0 0 1-1.4-10.262c-.086-1.118-.17-2.362-.263-3.821-.251-3.921.344-10.52 3.287-12.254 1.337-.79 3.16-.573 5.611 1.357.192.152.391.315.591.489 7.171 6.2 4.231 24.019 4.521 32.395a11.307 11.307 0 0 0 .472 3.292 18.192 18.192 0 0 1 1.344 3.694c1.5 10.863-3.048 29.392-3.048 29.392z" class="cls-15" transform="translate(-1900.292 -1219.756)"/>
                    <path id="Path_11620" d="M1925.813 1314.5l-13.747-18.166c-.086-1.118-.17-2.362-.263-3.821-.251-3.921.344-10.52 3.287-12.254l5.611 1.357c.192.152.391.315.591.489 7.171 6.208 4.231 24.023 4.521 32.395z" class="cls-14" transform="translate(-1900.292 -1222.727)"/>
                    <path id="Path_11621" d="M2257.876 1622.029l-4.546-9.932a6 6 0 0 0-2.533 1.5c-.874 1-1.508.823-3.5-.559a10.955 10.955 0 0 1 1.315 3.365c.365.045 2.448 2.06 4.581 2.616.852.22 2.713 3.67 4.683 3.01z" class="cls-3" transform="translate(-2193.498 -1512.69)"/>
                    <path id="Path_11622" d="M1953.263 1307.093s9.787 34.025 13.374 36.215 22.441 5.2 26.274 6.845a2.884 2.884 0 0 0 .193-2.1 12.545 12.545 0 0 0-.6-1.46s-11.709-8.8-19.416-9.69c-1.912-.22 3.894-29.427-9.03-30.594-11.807-1.065-10.795.784-10.795.784z" class="cls-15" transform="translate(-1936.547 -1245.198)"/>
                    <path id="Path_11623" d="M1823.688 830.363s.263-1.313.56-2.315c.131-.443-.783-3.355-1.416-3.713s-2.281 1.6-1.815 3.108c.24.773.633 3.29.633 3.29z" class="cls-6" transform="translate(-1820.936 -824.292)"/>
                    <path id="Path_11624" d="M1842.75 852.56s.344-.761.655-.885.643-1.368.872-1.862c0 0-.22-.323-.606.092-.235.253-.759 1-.759 1z" class="cls-6" transform="translate(-1839.997 -846.489)"/>
                    <path id="Path_11625" d="M2196.264 888.607c.067.138.16.385.243.617v-.188c0-.462 1.731-2.979 2.441-3.136s1.712 2.2.825 3.5c-.455.669-1.568 2.961-1.568 2.961l-1.84-.95s-.106-.829-.367-1.037-.215-1.5-.288-2.035c.002.002.307-.239.554.268z" class="cls-6" transform="translate(-2148.422 -878.12)"/>
                    <path id="Path_11626" d="M1968.923 1025.988a6.189 6.189 0 0 0 3.654 1.244 4.927 4.927 0 0 0 2.858-2.026c-.627-.224-.681-1.14-.1-4.953l-.3.014-5.056.242s-.118 1.562-.331 3.019c-.179 1.223-.426 2.372-.725 2.46z" class="cls-6" transform="translate(-1950.249 -995.526)"/>
                    <path id="Path_11627" d="M1975 1020.606s-.118 1.562-.331 3.019c2.76.331 4.585-1.96 5.387-3.261z" class="cls-7" transform="translate(-1955.267 -995.623)"/>
                    <path id="Path_11628" d="M1968.321 943.368a14.6 14.6 0 0 0 2.414-3.956c.453-1.352.511-6.607-4.773-6.635a7.109 7.109 0 0 0-3.08.669c-1.236.592-3.1 1.989-1.957 6.752l.245 1.588z" class="cls-3" transform="translate(-1942.949 -919.086)"/>
                    <path id="Path_11629" d="M1918.667 1084.63s4.959 3.13 13.219 1.119c.1-.024 4.7-.757 4.7-.757-.115-.315-4.948-8.3-5.062-8.59-1.466-3.782 1.928-21.836-.31-22.849a5.068 5.068 0 0 1-3.6.924c-1.609-.142-2.148-.838-2.015-1.585-1.781.842-3.149 1.625-3.149 1.625-1.632 2.438-3.783 30.113-3.783 30.113z" class="cls-6" transform="translate(-1906.335 -1024.046)"/>
                    <path id="Path_11630" d="M1959.614 957.813s6.486 1.074 7.093-2.975 1.853-6.638-2.263-7.5-5.154.567-5.685 1.87-.816 8.221.855 8.605z" class="cls-6" transform="translate(-1941.007 -931.588)"/>
                    <path id="Path_11631" d="M1983.321 940.617s1.074 5.017 3.7 6.126 3.922.553 3.922.553a7.823 7.823 0 0 1-1.851-4.947s-4.092-3.794-5.771-1.732z" class="cls-3" transform="translate(-1962.831 -925.403)"/>
                    <path id="Path_11632" d="M1960.6 941.814a5.8 5.8 0 0 0-1.965 1.846c-.478.983-.939 3.085-1.547 2.921 0 0-.861-3.43.918-5.032 1.887-1.7 2.594.265 2.594.265z" class="cls-3" transform="translate(-1939.726 -926.148)"/>
                    <path id="Path_11633" fill="#edfdfc" d="M1871.733 878.7s-4.182 12.714-5.3 14.68c-.671 1.186-8.205 5.878-12.579 8.969a.745.745 0 0 0-.168.2.018.018 0 0 1 0 .006c-1.091 1.688-4.484 12.136-3.674 14.011 3.411 7.882 5.749 10.93 6.6 13.141a2.1 2.1 0 0 1-1.256 2.734 35.941 35.941 0 0 1-5.9 1.544c-.465.08-.943.152-1.432.214-6.722.853-11.273-.724-13.584-1.89a3.077 3.077 0 0 1-1.684-2.921c.139-2.493 1.386-4.961 1.948-10.958.426-4.55-3.5-11.474-3.334-13.9a8.094 8.094 0 0 1 1.227-2.846c.721-1.314 1.118-2.5.637-3.161-3.2-4.391-10.106-10.444-10.388-11.956-.413-2.222-.226-15.952-.226-15.952a4.135 4.135 0 0 1 1.16-.358 3.626 3.626 0 0 1 1.018.106s1.83 11.377 1.966 11.979 7.849 9.292 9.928 9.257a11.561 11.561 0 0 1 4.938 1.7 19.955 19.955 0 0 0-2.106 7.022c-.293 2.822 1.592 1.567 2.776-.365a62.689 62.689 0 0 1 4.829-6.341 9.147 9.147 0 0 1 4.58.027c1.955.708 12.074-5.005 12.4-5.531s5.744-10.623 5.744-10.623a1.257 1.257 0 0 1 1.169.114 1.319 1.319 0 0 1 .711 1.098z" transform="translate(-1822.368 -864.453)"/>
                    <path id="Path_11634" d="M1967.684 1012.676s-.278.56-.651.57a4.407 4.407 0 0 1-1.385-.176 5.36 5.36 0 0 1-.222-.682 6.3 6.3 0 0 1 2.258.288z" class="cls-8" transform="translate(-1947.194 -988.65)"/>
                    <path id="Path_11635" d="M2004.106 1156.13a35.967 35.967 0 0 1-5.9 1.544c-2.319-3.2-6.245-7.221-5.234-14.621 1.044-7.649 8.564-15.7 9.467-16.81-1.091 1.688-4.484 12.136-3.674 14.011 3.411 7.882 5.748 10.93 6.6 13.141a2.1 2.1 0 0 1-1.259 2.735z" class="cls-17" transform="translate(-1971.119 -1088.142)"/>
                    <path id="Path_11636" d="M1834.452 1014.679c.722-1.314 1.118-2.5.638-3.161-3.2-4.391-10.106-10.444-10.389-11.956.685 1.643 9.05 6.551 11.4 8.661 2.328 2.083-1.554 6.354-1.649 6.456z" class="cls-17" transform="translate(-1824.226 -977.446)"/>
                </g>
                <g id="Group_8033" transform="translate(31.234 36.891)">
                    <path id="Path_11637" d="M786.088 572.8a7.888 7.888 0 0 1 1.4 4.6 7.144 7.144 0 0 1-1.854 3.73l2.558 1.364s1.9-3.368 1.258-6.181a7.194 7.194 0 0 0-1.769-2.856 2.456 2.456 0 0 0-1.593-.657z" class="cls-18" transform="translate(-779.239 -569.451)"/>
                    <path id="Path_11638" d="M736.579 549.81l-1.62-3.581s7.559.256 10.064 6.415c0 0-5.289-3.772-8.444-2.834z" class="cls-19" transform="translate(-734.959 -546.229)"/>
                </g>
                <g id="Group_8034" transform="translate(0 124.208)">
                    <path id="Path_11639" d="M491.729 1245.577a6.7 6.7 0 0 1-2.267-3.393 6.066 6.066 0 0 1 .591-3.488l-2.415-.481s-.715 3.2.5 5.334a6.112 6.112 0 0 0 2.14 1.888 2.086 2.086 0 0 0 1.451.14z" class="cls-18" transform="translate(-487.429 -1238.215)"/>
                    <path id="Path_11640" d="M502.39 1283.322l2.2 2.513s-6.209 1.649-9.758-2.744c-.003.001 5.224 1.769 7.558.231z" class="cls-19" transform="translate(-493.895 -1277.429)"/>
                </g>
                <g id="Group_8035" transform="translate(280.608 139.641)">
                    <path id="Path_11641" fill="#f1a34f" d="M2711.248 1364.149s-.157-2.361 4.274-3.5c1.987-.512 6.41.4 3.606 4.75-2.917 4.527-5.517 2.893-5.517 2.893s6.083-4.762 3.649-6.939c-2.686-2.4-3.719 2.359-3.719 2.359a5.859 5.859 0 0 0-2.293.437z" transform="translate(-2711.248 -1360.517)"/>
                    <path id="Path_11642" fill="#db7714" d="M2715.721 1404.253a2.363 2.363 0 0 1-1-2.89l2.383.413s-.916 2.156 1.325 2.417c-.001.001-2.158.513-2.708.06z" transform="translate(-2714.148 -1396.209)"/>
                </g>
                <g id="Group_8036" transform="translate(124.282 17.334)">
                    <path id="Path_11643" fill="#5685d8" d="M1488.3 394.944a4.426 4.426 0 0 1 6.275-1.041l2.313-2.212s-2.161-1.641-7.146 1.3c-3.266 1.927-1.442 1.953-1.442 1.953z" transform="translate(-1485.844 -391.235)"/>
                    <path id="Path_11644" fill="#739af0" d="M1472.374 402.3s-.49-4.094 6.363-6.649c0 0-2.477 1.2-3.241 5.282z" transform="translate(-1472.367 -395.094)"/>
                </g>
                <path id="Path_11645" d="M1690.639 256.689s2.025-1.279 2.238-2.825c0 0 1.972.107 2.4.746 0 0-.906 2.558-1.972 3.038-.005 0-2.399.16-2.666-.959z" class="cls-24" transform="translate(-1538.815 -253.864)"/>
                <path id="Path_11646" d="M1139.857 1412.023s-2.161-1.365-2.388-3.013c0 0-2.1.114-2.559.8 0 0 .967 2.729 2.1 3.241.004-.005 2.563.166 2.847-1.028z" class="cls-24" transform="translate(-1053.209 -1263.25)"/>
                <path id="Path_11647" d="M1876.958 574.676s2.17-1.371 2.4-3.027c0 0 2.113.114 2.57.8 0 0-.971 2.741-2.113 3.255-.001-.004-2.571.171-2.857-1.028z" class="cls-19" transform="translate(-1701.623 -531.55)"/>
                <g id="Group_8037" transform="translate(211.001 76.18)">
                    <path id="Path_11648" d="M2166.181 1142.053s-1.255-1.522-1.93-1.736-1.98-1.224-2.151-.808.877 1.059.822 1.535-3.331 1.24-3.312 1.744a1.936 1.936 0 0 0 2.021 1.581c1.25-.14 4.418-.892 5.07-.567s-.52-1.749-.52-1.749z" class="cls-25" transform="translate(-2159.611 -1103.849)"/>
                    <path id="Path_11649" d="M2241.558 1033.5a26.8 26.8 0 0 1-6.241 6 34.477 34.477 0 0 1-14.746 5.654c-1.838-.589-7.487-1.2-10.825-1.741a6.428 6.428 0 0 1-2.539-.649l.084-2.907s12.251-.648 14.28-1.589a45.994 45.994 0 0 0 7.867-9.13 11.818 11.818 0 0 1 6.162-5.138c4.154-1.478 11.7 1.783 5.958 9.5z" class="cls-5" transform="translate(-2201.201 -1002.7)"/>
                    <path id="Path_11650" d="M2253.533 1120.8l-.625 1.829a34.478 34.478 0 0 1-14.746 5.654c-1.477 0-7.487-1.2-10.825-1.741.132.011 9.088.711 11.066.506 1.994-.206 11.277-8.252 11.277-8.252z" class="cls-10" transform="translate(-2218.792 -1085.841)"/>
                    <path id="Path_11651" d="M2371.551 1813.365h13.539c.97-.658-.262-7.089-.262-7.089s-3.695-1.4-4.333 1.449-4.707 3.755-6.859 4.1a2.316 2.316 0 0 0-2.085 1.54z" class="cls-3" transform="translate(-2344.808 -1686.267)"/>
                    <path id="Path_11652" d="M2530.679 1813.365h13.539c.97-.658-.262-7.089-.262-7.089s-3.695-1.4-4.333 1.449-4.707 3.755-6.859 4.1a2.317 2.317 0 0 0-2.085 1.54z" class="cls-3" transform="translate(-2483.857 -1686.267)"/>
                    <path id="Path_11653" d="M2400.419 1337.592s.609 7.593 1.324 16.719c.972 12.4 3.594 43.135 3.594 43.135s1.719 1.467 5.526.664a120.321 120.321 0 0 0 4.21-22.707l.045-.6c.9-12.321 2.3-38.266 2.3-38.266z" class="cls-26" transform="translate(-2370.033 -1276.105)"/>
                    <path id="Path_11654" d="M2398.772 1324.084s.816 10.216 1.531 19.342l13.331 21.093.045-.6c.9-12.321 2.3-38.265 2.3-38.265z" class="cls-14" transform="translate(-2368.594 -1265.22)"/>
                    <path id="Path_11655" d="M2429.565 1291.882s9.668 24.066 12.759 33.189c2.2 6.5 8.411 29.294 8.411 29.294a6.24 6.24 0 0 0 4.969-.767s2.31-23.29-2.356-29.857c-2.476-3.484-.615-36.217-10.653-36.5s-13.13 4.641-13.13 4.641z" class="cls-26" transform="translate(-2395.501 -1233.018)"/>
                    <path id="Path_11656" d="M2460.073 977.446a6.034 6.034 0 0 0 4.165.561 8.632 8.632 0 0 0 2.822-1.191 8.312 8.312 0 0 0 1.139-.857s-.05-.072-.134-.214a12.182 12.182 0 0 1-1.17-7.736 3.056 3.056 0 0 0-1.063.176c-1.918.454-5.775 1.548-5.946 1.6h-.007s-.047.906-.206 2.53l-.043.448c-.02.19-.04.393-.063.6a13.419 13.419 0 0 0 .506 4.083z" class="cls-6" transform="translate(-2421.692 -954.06)"/>
                    <path id="Path_11657" d="M2460.615 973.655c2.864.656 7.138-3.572 7.138-3.572a4.515 4.515 0 0 0-.979-.556c-1.918.454-5.775 1.548-5.946 1.6h-.007s-.047.904-.206 2.528z" class="cls-7" transform="translate(-2422.634 -955.403)"/>
                    <path id="Path_11658" d="M2447.408 898.938a14.55 14.55 0 0 0 2.679.625c2.2.3 5.083.122 5.99-2.535 1.528-4.471 3.479-7.152-1.016-8.978-2.406-.977-3.946-1.029-4.992-.656a3.618 3.618 0 0 0-1.85 1.6c-.874 1.37-2.63 9.162-.811 9.944z" class="cls-6" transform="translate(-2410.399 -883.446)"/>
                    <path id="Path_11659" d="M2431.286 863.492c2.6 1.871 6.2.032 7.323.529s1.319 2.372 1.339 2.967.1 1.1 1.617.742a.736.736 0 0 1 .551.033c.63.374-.175 2.185-.417 2.577 0 0-.349 1.3.426 1.929.094.076 1.617.741 5.287-4.876a5.216 5.216 0 0 0 .237-4.78c-.89-1.912-4.61-3.761-7.763-4.74a4.223 4.223 0 0 0-2.744-.1 4.969 4.969 0 0 0-2.358 2.584 9.893 9.893 0 0 1-3.498 3.135z" class="cls-3" transform="translate(-2397.005 -857.59)"/>
                    <path id="Path_11660" d="M2409.927 1054.443s-1.26.272-2.853.542a31.233 31.233 0 0 1-4.764.509 42.968 42.968 0 0 1-12.47-2.052c-1.276 0-1.859-1.976-2.068-4.734a54.221 54.221 0 0 1-.01-6.308c.033-.718.074-1.436.118-2.139.09-1.394.194-2.733.289-3.917.089-1.111.171-2.085.219-2.84 0 0-.182-5.284-.11-9.933a12.637 12.637 0 0 1 2.392-6.868c1.359-1.437 5.3-2.346 6.084-2.471l.092-.014c3.237 1.818 7.6-.638 7.6-.638.1.017.2.04.291.06a16.634 16.634 0 0 1 4.354.832c1.883 1.026 2.976 12.411 2.976 12.411.313 7.733-.081 20.118.531 24.845.202 1.557-1.307 2.4-2.671 2.715z" class="cls-5" transform="translate(-2358.898 -993.897)"/>
                    <path id="Path_11661" d="M2464.967 1014.1s-4.824 4.975-8.272 3.956c0 0-.46-.672 1.094-.887s3.229-.128 7.178-3.069z" class="cls-10" transform="translate(-2419.152 -994.35)"/>
                    <path id="Path_11662" d="M2452.625 957.49s-.094.579 1.252 1.041c0 0 1.13.388 1.336-.206a3.837 3.837 0 0 0-2.588-.835z" class="cls-8" transform="translate(-2415.65 -944.884)"/>
                    <path id="Path_11663" d="M2407.357 1163.27s-7.006 11.718-10.98 13.78a30.46 30.46 0 0 1-8.605 2.459 54.223 54.223 0 0 1-.01-6.308c2.847-.345 7.183-.9 7.183-.9z" class="cls-10" transform="translate(-2358.898 -1124.699)"/>
                    <path id="Path_11664" d="M2399.548 1116.613l-3.734 13.479s-4.394.278-6.515.2c.089-1.394.092-1.441.187-2.625 0 .001 5.045-2.629 10.062-11.054z" class="cls-10" transform="translate(-2360.317 -1083.929)"/>
                    <path id="Path_11665" d="M2246.836 1213.034s-1.255-1.523-1.929-1.736-1.98-1.224-2.151-.808.877 1.058.823 1.535-3.332 1.24-3.311 1.744a1.936 1.936 0 0 0 2.02 1.581c1.25-.14 4.419-.892 5.07-.567s-.522-1.749-.522-1.749z" class="cls-25" transform="translate(-2230.089 -1165.873)"/>
                    <path id="Path_11666" d="M2450.1 1024.59s.221 7.139-16.051 21.463l-3.268-5.853c-.6-.35 10.512-24.254 13.706-24.064 6.191.37 5.613 8.454 5.613 8.454z" class="cls-5" transform="translate(-2396.545 -996.129)"/>
                    <path id="Path_11667" d="M2301.266 1201.316s-18.505 2.116-19.19 2.483a3.394 3.394 0 0 0-1.665 3.6s9.579 1.2 14.85 1.182a34.824 34.824 0 0 0 7.487-.748z" class="cls-5" transform="translate(-2265.082 -1157.944)"/>
                </g>
            </g>
        </g>
    </g>
</svg>
