<svg xmlns="http://www.w3.org/2000/svg" width="67.09" height="67.09" viewBox="0 0 67.09 67.09">
    <defs>
        <filter id="r9w6jgkg6a" width="67.09" height="67.09" x="0" y="0" filterUnits="userSpaceOnUse">
            <feOffset dx="3" dy="3"/>
            <feGaussianBlur result="blur" stdDeviation="5"/>
            <feFlood flood-opacity=".2"/>
            <feComposite in2="blur" operator="in"/>
            <feComposite in="SourceGraphic"/>
        </filter>
    </defs>
    <g filter="url(#r9w6jgkg6a)">
        <path fill="#fff" d="M35.123 17.368a12.566 12.566 0 0 0-20.763 6.1.9.9 0 0 1-.871.684H9.2a.9.9 0 0 1-.883-1.06 18.547 18.547 0 0 1 31.034-9.956l2.671-2.671a1.8 1.8 0 0 1 3.064 1.269v10.025a1.8 1.8 0 0 1-1.786 1.795H33.271A1.8 1.8 0 0 1 32 20.49zM9.795 29.536h10.024a1.8 1.8 0 0 1 1.269 3.064l-3.122 3.122a12.566 12.566 0 0 0 20.763-6.1.9.9 0 0 1 .871-.684h4.285A.9.9 0 0 1 44.769 30a18.547 18.547 0 0 1-31.034 9.956l-2.671 2.671A1.8 1.8 0 0 1 8 41.355V31.331a1.8 1.8 0 0 1 1.795-1.795z" transform="translate(4 4)"/>
    </g>
</svg>
