<svg xmlns="http://www.w3.org/2000/svg" xmlns:xlink="http://www.w3.org/1999/xlink" width="222.51" height="279.236" viewBox="0 0 222.51 279.236">
    <defs>
        <linearGradient id="linear-gradient" x2="1" y1=".5" y2=".5" gradientUnits="objectBoundingBox">
            <stop offset="0" stop-color="#2b3582"/>
            <stop offset="1" stop-color="#150e42"/>
        </linearGradient>
        <linearGradient id="linear-gradient-2" x1=".268" x2=".587" y1="1.164" y2=".231" gradientUnits="objectBoundingBox">
            <stop offset="0" stop-color="#a737d5"/>
            <stop offset="1" stop-color="#ef497a"/>
        </linearGradient>
        <linearGradient id="linear-gradient-3" x1="224.839" x2="225.834" y1=".593" y2=".593" xlink:href="#linear-gradient"/>
        <linearGradient id="linear-gradient-4" x1="189.822" x2="190.815" y1=".613" y2=".613" xlink:href="#linear-gradient"/>
        <linearGradient id="linear-gradient-5" x1="-140.947" x2="-143.758" y1=".024" y2="1.814" xlink:href="#linear-gradient"/>
        <linearGradient id="linear-gradient-6" x1="-718.392" x2="-719.322" y1="627.724" y2="632.047" gradientUnits="objectBoundingBox">
            <stop offset="0" stop-color="#8d55d1"/>
            <stop offset=".996" stop-color="#1c2873"/>
        </linearGradient>
        <style>
            .cls-3{fill:#fff}.cls-4{fill:#014433}.cls-11{fill:#722f20}.cls-12{fill:#002a24}.cls-14{fill:#a7523e}
        </style>
    </defs>
    <g id="Group_8125" transform="translate(-600.74 -222.085)">
        <ellipse id="Ellipse_881" cx="100" cy="17" rx="100" ry="17" transform="translate(616.631 467.321)" style="mix-blend-mode:multiply;isolation:isolate" fill="#dedede" opacity="0.699"/>
        <g id="Group_8113" transform="translate(731.663 222.085)">
            <path id="Path_11801" fill="#279975" d="M885.554 409.031a4.2 4.2 0 0 0 6.681 2c12.739-10.425 46.089-43.157 45.894-99.98-.164-47.985 4.306-74.02 7.155-85.7a2.634 2.634 0 0 0-4.249-2.643C919.507 240.682 854 305.64 885.554 409.031z" transform="translate(-877.113 -222.085)"/>
            <path id="Path_11802" d="M901.063 454.953a.8.8 0 0 1-.723-1.146c.311-.654 31.2-66.248 33.968-132.572a.791.791 0 0 1 .834-.767.8.8 0 0 1 .767.834c-2.781 66.657-33.809 132.536-34.122 133.198a.8.8 0 0 1-.724.453z" class="cls-3" transform="translate(-887.896 -267.911)"/>
        </g>
        <g id="Group_8114" transform="translate(748.864 299.99)">
            <path id="Path_11803" d="M984.364 368.562c.326 19.933-.509 142.542-69.187 174.3a3.078 3.078 0 0 1-4.365-2.9c.51-14.569 4.806-60.579 37.18-111.941 23.358-37.057 32.274-53.936 35.137-59.731a.651.651 0 0 1 1.235.272z" class="cls-4" transform="translate(-910.01 -367.919)"/>
            <path id="Path_11804" d="M910.114 576.834a.8.8 0 0 1-.658-1.258c20.3-29.331 35.6-62.2 44.856-84.616 10.268-24.862 15.746-43.171 15.879-44.728a.8.8 0 0 1 1.585-.213c.267 1.344-6.087 21.487-15.638 44.718-9.339 22.715-24.791 56.032-45.363 85.75a.8.8 0 0 1-.661.347zM970.2 446.33z" class="cls-3" transform="translate(-909.313 -403.998)"/>
        </g>
        <g id="Group_8115" transform="rotate(-22 1248.679 -1360.937)">
            <path id="Path_11805" d="M759.319 599.123a2.9 2.9 0 0 0 4.476-1.776 88.447 88.447 0 0 0-17.929-73.812c-20.628-25.927-29.349-41.946-32.8-49.493a1.819 1.819 0 0 0-3.434.387c-3.975 18.953-11.661 82.183 49.687 124.694z" class="cls-4" transform="translate(-707.01 -472.982)"/>
            <path id="Path_11806" d="M774.948 629.231a.8.8 0 0 1-.78-.623c-.111-.488-11.443-49.2-38.3-86.274a.8.8 0 0 1 1.3-.94c27.053 37.345 38.452 86.367 38.564 86.857a.8.8 0 0 1-.6.959.76.76 0 0 1-.184.021z" class="cls-3" transform="translate(-720.381 -504.693)"/>
        </g>
        <path id="Path_11807" fill="url(#linear-gradient)" d="M786.891 439.718c-.516 24.376-2.192 108.458-1.392 138.254.085 3.157 2.248 5.69 4.946 5.793 13.345.511 62.268 1.806 84.1.735 4.546-.223 8.162-4.532 8.257-9.854.453-25.586 1.454-97.548-.925-130.514-.285-3.95-2.935-7.1-6.306-7.49-14.534-1.7-63.667-5.859-82.525-4.427-3.406.258-6.071 3.517-6.155 7.503z" transform="translate(-102.677 -97.741)"/>
        <path id="Path_11808" fill="url(#linear-gradient-2)" d="M797.341 454.848c-.718 19.675-2.984 85.129-2.265 109.333.105 3.537 2.489 6.4 5.509 6.6 12.437.852 54.869 2.729 73.112 1.02 3.285-.308 5.862-3.415 6.04-7.264.924-20.073 3.579-81.02 2.89-104.952-.11-3.818-2.638-6.936-5.891-7.278-13.455-1.413-58.544-4.776-74.046-3.786-2.91.19-5.225 2.92-5.349 6.327z" transform="translate(-107.172 -105.392)"/>
        <path id="Path_11809" fill="#fff" d="M857.588 700.1c-3.311 0-6-3.11-6-6.934s2.693-6.934 6-6.934 6 3.111 6 6.934-2.688 6.934-6 6.934zm0-12.8c-2.722 0-4.936 2.631-4.936 5.865s2.214 5.865 4.936 5.865 4.936-2.631 4.936-5.865-2.214-5.865-4.936-5.865z" opacity="0.65" transform="translate(-133.559 -216.2)"/>
        <path id="Path_11810" fill="#fff" d="M850.03 439.186a1.328 1.328 0 0 0 1.137 1.4c3.152.193 12.031.739 16 1.009a1.343 1.343 0 0 0 1.248-1.67l-.025-.154a1.291 1.291 0 0 0-1.07-1.134 131.312 131.312 0 0 0-16.139-.861 1.323 1.323 0 0 0-1.151 1.41z" opacity="0.5" transform="translate(-132.835 -100.453)"/>
        <path id="Path_11811" fill="#fff" d="M879.375 493.29l.158-23.087c.019-2.783-1.771-5.133-4.076-5.306l-59.828-4.523c-2.427-.183-4.508 2.059-4.616 4.986 0 0-2.808 69.413-2.808 70.259l-.909 27.251c-.109 2.93 1.851 5.4 4.284 5.471l62.819 1.921c2.43.074 4.451-2.346 4.471-5.275l.306-42.85.194-28.847z" opacity="0.3" transform="translate(-112.926 -110.99)"/>
        <g id="Group_8116" opacity="0.8" transform="translate(706.14 371.877)">
            <path id="Path_11812" d="M892.608 540.6a25.365 25.365 0 0 0-7.478-18.053 2.474 2.474 0 0 0-3.5 3.5 20.578 20.578 0 0 1-14.1 35.125l-.092-1.978a1.662 1.662 0 0 0-2.472-1.374l-8.57 4.794a1.662 1.662 0 0 0 .138 2.971l8.977 3.979a1.663 1.663 0 0 0 2.334-1.6l-.085-1.844a25.561 25.561 0 0 0 24.848-25.52z" class="cls-3" transform="translate(-841.545 -511.494)"/>
            <path id="Path_11813" d="M853.527 511.06l.09 1.941c0 .027-.018.052-.015.079l-.407-.975v2.844l-.031.1h1.2l-.4-1.069a1.656 1.656 0 0 0 2.126.415l8.57-4.8a1.666 1.666 0 0 0-.138-2.975l-8.977-3.981a1.662 1.662 0 0 0-2.335 1.6l.088 1.884a25.534 25.534 0 0 0-19.745 39.542 2.474 2.474 0 1 0 4.129-2.729 20.583 20.583 0 0 1 15.846-31.866z" class="cls-3" transform="translate(-829.335 -502.489)"/>
            <path id="Path_11814" d="M873.932 525.844l-.012-.029v.029z" class="cls-3" transform="translate(-850.102 -513.354)"/>
        </g>
        <g id="Group_8124" transform="translate(642.111 353.068)">
            <g id="Group_8121" transform="translate(.15)">
                <path id="Path_11821" d="M712.29 500.231c.1.045.2.09.291.135a1.026 1.026 0 0 0-.127-.929c-.628-.961.506-2.272.506-2.272a2.923 2.923 0 0 0 .953 1.882 2.811 2.811 0 0 1 .6 3.164c-1.094 4.248-2.731 9.868 3.648 13.973s15.365-7.747 15.365-7.747l-4.46 14.137s-6.883 5.08-14.889-2.062-2.7-17.536-2.7-17.536-1.207-3.632.813-2.745z" class="cls-11" transform="translate(-709.757 -481.2)"/>
                <path id="Path_11822" d="M753.729 473.744s-1.849-8.291 7.649-6.1c0 0 4.61-.754 4.845 3.6 0 0 2.972 1.958.8 5.723 0 0 8.831-3.411 12.679 4.33s.311 12-3.4 13.11a3.693 3.693 0 0 1 1.582 4.914c-1.422 3.405-8.623 5.807-12.877 1.664 0 0-12.1 1.6-11.862-6.95 0 0-5.63-3.635.283-10.7s.301-9.591.301-9.591z" class="cls-12" transform="translate(-728.839 -467.279)"/>
                <path id="Path_11823" fill="#b7d972" d="M748.909 514.913a13.027 13.027 0 0 1 12.75 3.249 3.274 3.274 0 0 1 .943 3.261c-1.42 5.227-5.165 20.668-1.881 27.349 0 0-5.788 6.38-12.1 1.238 0 0-2.833-12.347-6.543-17.767-2.562-3.742 4.085-14.052 5.767-16.543a1.967 1.967 0 0 1 1.064-.787z" transform="translate(-724.541 -489.229)"/>
                <path id="Path_11824" d="M761.943 495.92s2.822 7.984 3.035 11.506a6.038 6.038 0 0 1-6.059-.975s-.308-7.975-.754-9.4z" class="cls-14" transform="translate(-732.305 -480.62)"/>
                <path id="Path_11825" d="M754.083 475.492s-7.382 10.331-2.97 13.332 9.669-4.341 9.669-4.341 1.713-5.655-.079-7.573-6.62-1.418-6.62-1.418z" class="cls-14" transform="translate(-728.366 -471.077)"/>
                <path id="Path_11826" d="M760.9 470.8s-3.391.8-3.867 2.338 4.81 2.957 6.29 3.027l1.193 6.192s3.527-5.825 2.13-9.189-5.746-2.368-5.746-2.368z" class="cls-12" transform="translate(-731.763 -468.855)"/>
                <path id="Path_11827" d="M767.759 489.3s2.874-3.328 4.016-1.158-2.587 3.8-3.877 2.733z" class="cls-14" transform="translate(-736.775 -476.655)"/>
                <path id="Path_11828" d="M739.644 629.586c.022.561-.963 5.007-1.5 7.378a3.9 3.9 0 0 0 .42 2.8l18.548 31.218a4.246 4.246 0 0 1 .487 1.214 26.763 26.763 0 0 1 .677 8.322l-.959 1.993 4.15-.942.9-11.144-1.175-.716a5.584 5.584 0 0 1-2.258-2.643c-1.677-4.074-5.842-14.445-6.916-19.5-1.22-5.744-7.6-10.409-7.6-10.409l1.121-2.649z" class="cls-11" transform="translate(-722.936 -542.881)"/>
                <path id="Path_11829" fill="url(#linear-gradient-3)" d="M781.8 712.6s-2.241-3.553-2.5-4.936-1-3.825-2.379-3.09a81.131 81.131 0 0 0-.427 9.343c.225 2.625-2.967 2.541-2.967 2.541a2.982 2.982 0 0 0-1.524.768.747.747 0 0 0 .5 1.257 17.967 17.967 0 0 0 4.446-.252 1.36 1.36 0 0 0 1.1-1.255l.46-7.732 2.827 3.569z" transform="translate(-738.65 -577.75)"/>
                <path id="Path_11830" d="M758.411 638.238s.654 27.924.743 31.891-.626 12.755-4.6 15.382l1.73 1.281a23.129 23.129 0 0 0 4.274-5.374 32.692 32.692 0 0 1 3.09-4.7l-.787-1.613a3.547 3.547 0 0 1-.287-2.273c.858-4.158 3.724-17.989 4.506-20.968a13.415 13.415 0 0 0-2.222-12.142c-3.213-3.929-6.447-1.484-6.447-1.484z" class="cls-14" transform="translate(-730.623 -546.561)"/>
                <path id="Path_11831" fill="url(#linear-gradient-4)" d="M760.383 721.677a.245.245 0 0 0 .246-.21 36.077 36.077 0 0 1 1.134-5.629c.516-1.107 2.2-5.766 0-6.161 0 0-5.479 8-6.531 9.083a2.061 2.061 0 0 1-2.379.377 3.961 3.961 0 0 0-1.8 1.29.726.726 0 0 0 .572 1.166l3.69.035a2.6 2.6 0 0 0 2.434-1.636c.649-1.622 1.765-4 3.066-5.058l-.676 6.47a.246.246 0 0 0 .242.272z" transform="translate(-728.923 -580.188)"/>
                <path id="Path_11832" fill="#473b1e" d="M745.869 573.828s.832 2.65-.446 7.016l-7.923 27.674a.857.857 0 0 0 .536 1.043 52.873 52.873 0 0 0 20.8 2.522 1.208 1.208 0 0 0 1.1-.94c.7-3.155 3.092-13.919 3.585-16.131 1.876-8.428 3.971-17.516-5.245-23.012-4.248 1.82-8.209 2.892-12.407 1.828z" transform="translate(-722.664 -516.058)"/>
                <path id="Path_11833" d="M774.068 522.829s9.017 7.493 11.254 17.733-13.176 11.328-13.176 11.328-2.092-2.337-4.577-1.5-.192-4.078 2.714-4.065 1.56 2.311 5.672.449c4.005-1.814 6.481-7.425-3.738-15.93a4.633 4.633 0 0 1-1.349-1.844c-1.985-5-.411-8.272 3.2-6.171z" class="cls-14" transform="translate(-736.193 -492.853)"/>
            </g>
            <g id="Group_8123" transform="translate(0 9.982)">
                <path id="Path_11834" d="M721.274 497.053a4.991 4.991 0 0 0 .617-2.259c-.074-1.007.553-2.486-.115-2.376s-.805.02-.987 1.229-1.81 5.664.485 3.406z" class="cls-11" transform="translate(-714.406 -488.968)"/>
                <g id="Group_8122" transform="translate(1.348)">
                    <path id="Path_11835" fill="url(#linear-gradient-5)" d="M712.474 486.575a.636.636 0 0 1 .777-.6l4.605 1.047a.361.361 0 0 1 .278.392l-1.339 11.97a.2.2 0 0 1-.073.131.194.194 0 0 1-.144.04l-4.02-.487a.637.637 0 0 1-.559-.658z" transform="translate(-711.999 -485.964)"/>
                    <path id="Path_11836" d="M714.8 488.1a.36.36 0 0 1 .447-.33l3.03.758a.36.36 0 0 1 .27.39l-1.15 10.193a.194.194 0 0 1-.228.17l-2.794-.5a.2.2 0 0 1-.161-.2z" class="cls-3" transform="translate(-713.033 -486.802)"/>
                    <path id="Path_11837" fill="url(#linear-gradient-6)" d="M718.571 487.817c-.007.036.042.077.111.091l1.014.21c.069.014.13 0 .138-.04l.007-.035c.007-.036-.042-.077-.111-.091l-1.013-.21c-.069-.014-.131 0-.138.039z" transform="translate(-715.06 -486.79)"/>
                </g>
                <path id="Path_11838" d="M709.7 490.942c.744-.275 2.2-2.794 2.479-1.965s-.117 1.965 0 2.317.924 2.311.561 3.212a34.942 34.942 0 0 0-.913 3.714.761.761 0 0 1-1.489 0c-.031-.14-1.383-7.004-.638-7.278z" class="cls-11" transform="translate(-709.476 -487.29)"/>
            </g>
        </g>
    </g>
</svg>
