<svg xmlns="http://www.w3.org/2000/svg" width="77.123" height="86.024" viewBox="0 0 77.123 86.024">
    <defs>
        <filter id="lightbulb-solid" width="45.822" height="53.014" x="15.798" y="0" filterUnits="userSpaceOnUse">
            <feOffset dx="3" dy="3"/>
            <feGaussianBlur result="blur" stdDeviation="5"/>
            <feFlood flood-opacity=".2"/>
            <feComposite in2="blur" operator="in"/>
            <feComposite in="SourceGraphic"/>
        </filter>
        <filter id="people-carry-solid" width="77.123" height="67.697" x="0" y="18.327" filterUnits="userSpaceOnUse">
            <feOffset dx="3" dy="3"/>
            <feGaussianBlur result="blur-2" stdDeviation="5"/>
            <feFlood flood-opacity=".2"/>
            <feComposite in2="blur-2" operator="in"/>
            <feComposite in="SourceGraphic"/>
        </filter>
        <style>
            .cls-1{fill:#fff}
        </style>
    </defs>
    <g id="Group_8042">
        <g filter="url(#lightbulb-solid)" transform="translate(-169.628 -613.606) translate(169.63 613.61)">
            <path id="lightbulb-solid-2" d="M4.318 20.421a1.439 1.439 0 0 0 .241.8l.768 1.155a1.438 1.438 0 0 0 1.2.642H9.3a1.438 1.438 0 0 0 1.2-.642l.768-1.155a1.438 1.438 0 0 0 .241-.8v-1.724H4.315v1.724zM0 7.91a7.867 7.867 0 0 0 1.958 5.2A12.917 12.917 0 0 1 4.3 17.225v.035h7.2v-.035a12.917 12.917 0 0 1 2.347-4.11A7.909 7.909 0 1 0 0 7.91zm7.911-3.6a3.6 3.6 0 0 0-3.6 3.6.719.719 0 1 1-1.438 0 5.04 5.04 0 0 1 5.038-5.034.719.719 0 0 1 0 1.438z" class="cls-1" transform="translate(27.8 12)"/>
        </g>
        <g filter="url(#people-carry-solid)" transform="translate(-169.628 -613.606) translate(169.63 613.61)">
            <path id="people-carry-solid-2" d="M9.41 7.068a3.534 3.534 0 1 0-3.534-3.534A3.535 3.535 0 0 0 9.41 7.068zm28.273 0a3.534 3.534 0 1 0-3.534-3.534 3.535 3.535 0 0 0 3.534 3.534zm9.255 27.4l-3.24-8.1-3.026 3.416-.147 1.34 2.039 5.095a2.354 2.354 0 0 0 2.187 1.48 2.289 2.289 0 0 0 .876-.169 2.355 2.355 0 0 0 1.311-3.065zm-2.518-15.45l-1.362-5.9A4.771 4.771 0 0 0 40.3 9.807a4.543 4.543 0 0 0-4.13.243 8.067 8.067 0 0 0-3.541 4.373l-.832 2.5-1.178.751V10.6a1.181 1.181 0 0 0-1.178-1.178H17.657a1.181 1.181 0 0 0-1.178 1.178v7.07l-1.185-.751-.832-2.5a8.009 8.009 0 0 0-3.542-4.369 4.544 4.544 0 0 0-4.13-.243 4.772 4.772 0 0 0-2.761 3.306l-1.355 5.9a4.717 4.717 0 0 0 1.06 4.175l4.948 5.588.743 6.824a2.358 2.358 0 0 0 2.341 2.1c.088 0 .169-.007.258-.015a2.352 2.352 0 0 0 2.084-2.6l-.744-6.833a4.706 4.706 0 0 0-1.149-2.577l-3.188-3.609 1.3-5.176.5 1.5a4.762 4.762 0 0 0 1.8 2.4l3.762 2.393a3.135 3.135 0 0 0 1.266.368h11.78a3.135 3.135 0 0 0 1.266-.368l3.762-2.393a4.732 4.732 0 0 0 1.8-2.4l.5-1.5 1.3 5.176-3.188 3.608a4.706 4.706 0 0 0-1.149 2.577l-.744 6.833a2.357 2.357 0 0 0 2.084 2.6c.088.007.169.015.258.015a2.357 2.357 0 0 0 2.341-2.1l.744-6.818 4.948-5.588a4.739 4.739 0 0 0 1.063-4.175zM3.4 26.366l-3.24 8.1a2.356 2.356 0 0 0 4.373 1.752l2.039-5.095-.147-1.34z" class="cls-1" transform="translate(12.01 30.33)"/>
        </g>
    </g>
</svg>
