<svg xmlns="http://www.w3.org/2000/svg" width="257.952" height="187.898" viewBox="0 0 257.952 187.898">
    <defs>
        <linearGradient id="linear-gradient" x1=".848" x2=".121" y1="-.002" y2="1.005" gradientUnits="objectBoundingBox">
            <stop offset="0" stop-color="#53cd9f"/>
            <stop offset="1" stop-color="#0d7a5c"/>
        </linearGradient>
        <clipPath id="clip-path">
            <path id="Path_11710" fill="none" d="M1181.958 673.84s76.174 51.6 154.191 8.6 72.488-94.306 54.673-108.891-63.806-82.375-98.862-44.313-68.631 32.819-95.259 16.9c-35.63-21.293-90.301 75.488-14.743 127.704z" transform="translate(-1144.011 -517.785)"/>
        </clipPath>
        <style>
            .cls-2{fill:#b7d972;opacity:.143}.cls-4{fill:#233862}.cls-5{fill:#473b1e}.cls-10{mix-blend-mode:multiply;isolation:isolate}.cls-7{fill:url(#linear-gradient)}.cls-8{fill:#a7523e}.cls-9{fill:#722f20}.cls-10{fill:#141414;opacity:.253}.cls-12{fill:#ef6a78}
        </style>
    </defs>
    <g id="Group_8081" transform="translate(-1144.011 -494.612)">
        <path id="Path_11689" d="M1181.958 803.255s76.174 51.6 154.191 8.6 72.488-94.306 54.673-108.891-63.806-15.148-98.862 22.914-68.631 32.819-95.259 16.9c-35.63-21.293-90.301 8.261-14.743 60.477z" class="cls-2" transform="translate(0 -146.457)"/>
        <g id="Group_8078" transform="translate(1144.011 500.743)">
            <g id="Group_8077" clip-path="url(#clip-path)">
                <g id="Group_8076" transform="translate(81.057 38.14)">
                    <path id="Path_11690" d="M1651.09 1521.956a26.506 26.506 0 0 1 1.813-6.793c1.266-2.533 9.326-.921 9.326-.921s1.612 1.382 1.957 7.829z" class="cls-4" transform="translate(-1597.988 -1288.374)"/>
                    <path id="Path_11691" d="M1476.026 1507.142c1.894-1.156.816-9.778.816-9.778s-8.824-7.059-10.037-1.655-8.383 7.832-12.464 8.494c-2.817.457-3.689 2.017-3.959 2.94z" class="cls-4" transform="translate(-1450.381 -1273.618)"/>
                    <path id="Path_11692" d="M1532.829 1124.6a40.741 40.741 0 0 0-.647 4.766c-.82 16-13.468 52.584-15.731 53.438-3.5 1.321-9.013-1.487-11.9-2.406a2.473 2.473 0 0 1-1.736-2.81c6.264-28.8 8.566-70.26 9.4-94.808a111.368 111.368 0 0 1 2.546-20.907s30.848-8.231 31.031 2.181c.169 9.213-10.211 45.346-12.963 60.546z" class="cls-5" transform="translate(-1488.908 -953.79)"/>
                    <path id="Path_11693" d="M1559.109 1124.6l-20.608-41.82a111.362 111.362 0 0 1 2.546-20.907s30.849-8.231 31.031 2.181c.162 9.213-10.218 45.346-12.969 60.546z" transform="translate(-1515.187 -953.79)" style="mix-blend-mode:multiply;isolation:isolate" opacity="0.423"/>
                    <path id="Path_11694" d="M1590.45 1068.387l16.308 118.195s7.162 1.727 12.732.345c0 0 4.774-62.861 4.376-78.058s3.427-40.665-.873-43.474-32.543 2.992-32.543 2.992z" class="cls-5" transform="translate(-1553.391 -958.087)"/>
                    <path id="Path_11695" d="M1592.1 870.317a2.264 2.264 0 0 1-1.633 2.338c-2.275.66-4.9 1.119-9.956 2.167a96.534 96.534 0 0 1-19 1.909c-12.492.08-17.221-4.226-17.221-4.226-.538.01.284-2.6 1.025-15.035.251-4.211.493-9.548.668-16.294.158-6.07.264-13.281.274-21.836.013-10.291 15.942-21.362 16.236-21.362 0 1.482 2.336 4.216 5.932 4.452 4.269.279 9.507-1.845 9.507-4.3 0-.025 7.718 12.346 10.458 25.527 1.387 6.635.827 6.457 3.71 46.66z" class="cls-7" transform="translate(-1519.316 -761.986)"/>
                    <path id="Path_11696" d="M1539 797.98s-14.812-.126-18.377 4.874-11.38 31.894-7.3 40.843 11.711-3.7 15.947-9.184 9.73-36.533 9.73-36.533z" class="cls-7" transform="translate(-1495.823 -761.987)"/>
                    <path id="Path_11697" d="M1612.879 764.885l.009 1.531s-.417 4.789 5.479 5.488 10.273-.894 10.113-4.589a53.3 53.3 0 0 1-1.063-8.166 16.664 16.664 0 0 1 .21-2.867l-11.426-.228-3.365.55z" class="cls-8" transform="translate(-1569.854 -731.153)"/>
                    <path id="Path_11698" d="M1612.835 756.6l.043 8.283a9.663 9.663 0 0 0 4.118.909c5.252 0 8.646-3.851 10.419-6.646a16.664 16.664 0 0 1 .21-2.867l-11.426-.228z" class="cls-9" transform="translate(-1569.854 -731.153)"/>
                    <path id="Path_11699" d="M1619.62 700.019c-1.325 7.134-10.531 6.9-14.51 6.452-1.12-.124-1.824-.267-1.824-.267-1.262-.337-1.967-2.326-2.294-4.93-.65-5.154.171-12.721 1.042-14.656 1.311-2.912 3.779-6.062 13.05-3.789s6.237 8.048 4.536 17.19z" class="cls-8" transform="translate(-1560.972 -676.73)"/>
                    <path id="Path_11700" d="M1540.852 873.737s-5.729 12.651-5.562 16.444a19.775 19.775 0 0 1 5.562.715c4.479 1.335 0-17.159 0-17.159z" class="cls-10" transform="translate(-1512.823 -817.701)"/>
                    <path id="Path_11701" fill="#373737" d="M1594.568 665.036a30.679 30.679 0 0 0 8.894-2.406c3.906-1.7 8.835.172 10.435 1.015a2.376 2.376 0 0 0-.39-.962 2.147 2.147 0 0 1 .824 1.221c.074.055.107.092.088.1a2.756 2.756 0 0 1 1.338.087s-.366-.052-.5.183a.216.216 0 0 1-.059.065c6.094 2.944 6.657 12.575 4.7 14.8a77.44 77.44 0 0 0-5.922 8.748 11.028 11.028 0 0 1 .131-3.815c.429-2.359-1.608-2.359-4.182-3.432s-.429-4.075-2.681-5.9-10.51-.751-10.4-2.145c-3.07-1.107-2.276-7.245-2.276-7.559z" transform="translate(-1556.352 -661.94)"/>
                    <path id="Path_11702" d="M1583.161 961.8c-2.418 9.711-28.572 14.729-34.517 15.749.251-4.211.493-9.548.668-16.294z" class="cls-10" transform="translate(-1522.646 -882.062)"/>
                    <path id="Path_11703" d="M1652.909 946.8a46.071 46.071 0 0 0 6.811-1.329c1-.5 5.555-6.977 2.57-8.638s-11 4.983-11 4.983z" class="cls-8" transform="translate(-1598.135 -863.904)"/>
                    <path id="Path_11704" d="M1528.919 950.2s21.523 1.168 35.966-1.925a6.208 6.208 0 0 0-4.174-6.026s-22.511-4.771-27.919-3.442-3.873 11.393-3.873 11.393z" class="cls-7" transform="translate(-1507.992 -865.381)"/>
                    <path id="Path_11705" d="M1665.2 830.337c-4.467 5.386-10.306 9.783-16.743 10.812a12 12 0 0 1-1.593-7.188 14.382 14.382 0 0 1 2.344-6.6 14.6 14.6 0 0 0 1.266-2.552c3.515-8.969 2.992-26.254 2.992-26.254s14.927 1.563 19.578 8.208c2.847 4.07-.787 15.059-7.844 23.574z" class="cls-7" transform="translate(-1594.846 -762.411)"/>
                    <path id="Path_11706" d="M1605.759 759.9c-1.12-.124-1.824-.267-1.824-.267-1.262-.337-1.967-2.326-2.294-4.93a6.237 6.237 0 0 1 3.9 3.191 4.59 4.59 0 0 1 .218 2.006z" class="cls-9" transform="translate(-1561.622 -730.163)"/>
                    <path id="Path_11707" d="M1587.046 764.834s-5.155-8.507-1.146-8.877a6.063 6.063 0 0 1 6.2 3.34c.579 1-.151 5.492-.151 5.492z" class="cls-8" transform="translate(-1548.923 -731.057)"/>
                    <path id="Path_11708" d="M1610.935 822.88a11.093 11.093 0 0 1-.879 2.954 14.135 14.135 0 0 1-3.283 4.521c-13.389-6.043-16.1-26.8-16.551-38.2-.183-4.583 0-7.656 0-7.656 6.04-2 7.737 1.475 7.737 1.475s7.131 16.959 10.831 28.042c1.41 4.242 2.326 7.624 2.145 8.864z" class="cls-7" transform="translate(-1553.163 -751.618)"/>
                    <path id="Path_11709" d="M1623.743 842.55c-4.467 5.386-10.306 9.783-16.743 10.812-13.389-6.043-16.1-26.8-16.552-38.2 0 0 6.335 22.978 14.958 31.01a9.409 9.409 0 0 0 4.877 2.668s10.874-3.073 13.155-5.967a1.238 1.238 0 0 1 .305-.323z" class="cls-10" transform="translate(-1553.389 -774.624)"/>
                </g>
            </g>
        </g>
        <path id="Path_11711" d="M1307.015 659.13s32.512 36.379 41.135-8.466-16.563-50.988-31.306-23.344-39.316 10.789-9.829 31.81z" class="cls-2" transform="translate(-109.7 -85.359)"/>
        <g id="Group_8079" transform="translate(1296.457 526.662)">
            <path id="Path_11712" d="M1725.428 630.839a2.5 2.5 0 0 1-.751 1.836 2.554 2.554 0 0 1-1.8.863 2.475 2.475 0 0 1-1.846-.74 2.44 2.44 0 0 1-.821-1.782 2.79 2.79 0 0 1 2.542-2.709 2.452 2.452 0 0 1 1.826.741 2.5 2.5 0 0 1 .85 1.791zm5.849-15.087a6.776 6.776 0 0 1 4.893 2.122 7.442 7.442 0 0 1 2.5 4.258 4.636 4.636 0 0 1-1.387 3.986 4.54 4.54 0 0 1-2.325 1.416 12.336 12.336 0 0 1-3.056.191 12.418 12.418 0 0 0-2.561.145 3.167 3.167 0 0 0-1.714.987l-2.883-2.727a5.814 5.814 0 0 1 1.684-1.282 5.091 5.091 0 0 1 1.622-.5 18.211 18.211 0 0 1 1.834-.093 8.969 8.969 0 0 0 1.906-.148 2.5 2.5 0 0 0 1.3-.764q1.251-1.322-.224-2.716-1.626-1.538-3.472.371l-2.95-2.831a6.949 6.949 0 0 1 4.832-2.414z" class="cls-12" transform="translate(-1720.208 -615.75)"/>
        </g>
        <g id="Group_8080" transform="translate(1284.865 494.612)">
            <path id="Path_11713" d="M1684.162 522.781a4.126 4.126 0 0 1 .586 3.215 4.206 4.206 0 0 1-1.737 2.8 4.077 4.077 0 0 1-3.22.61 4.017 4.017 0 0 1-2.719-1.747 4.595 4.595 0 0 1 1.127-6.016 4.039 4.039 0 0 1 3.191-.59 4.124 4.124 0 0 1 2.772 1.728zm-1.763-28.169l8.16 1.563-1.656 8.643-4.04 12.992-5.166-.989 1.046-13.565z" class="cls-12" transform="translate(-1676.395 -494.612)"/>
        </g>
    </g>
</svg>
